%TF.GenerationSoftware,KiCad,Pcbnew,10.0.2*%
%TF.CreationDate,2026-07-10T15:13:39+07:00*%
%TF.ProjectId,c61,6336312e-6b69-4636-9164-5f7063625858,rev?*%
%TF.SameCoordinates,Original*%
%TF.FileFunction,Paste,Top*%
%TF.FilePolarity,Positive*%
%FSLAX46Y46*%
G04 Gerber Fmt 4.6, Leading zero omitted, Abs format (unit mm)*
G04 Created by KiCad (PCBNEW 10.0.2) date 2026-07-10 15:13:39*
%MOMM*%
%LPD*%
G01*
G04 APERTURE LIST*
G04 Aperture macros list*
%AMRoundRect*
0 Rectangle with rounded corners*
0 $1 Rounding radius*
0 $2 $3 $4 $5 $6 $7 $8 $9 X,Y pos of 4 corners*
0 Add a 4 corners polygon primitive as box body*
4,1,4,$2,$3,$4,$5,$6,$7,$8,$9,$2,$3,0*
0 Add four circle primitives for the rounded corners*
1,1,$1+$1,$2,$3*
1,1,$1+$1,$4,$5*
1,1,$1+$1,$6,$7*
1,1,$1+$1,$8,$9*
0 Add four rect primitives between the rounded corners*
20,1,$1+$1,$2,$3,$4,$5,0*
20,1,$1+$1,$4,$5,$6,$7,0*
20,1,$1+$1,$6,$7,$8,$9,0*
20,1,$1+$1,$8,$9,$2,$3,0*%
G04 Aperture macros list end*
%ADD10R,0.300000X1.400000*%
%ADD11R,2.650000X2.300000*%
%ADD12RoundRect,0.250000X0.625000X-0.375000X0.625000X0.375000X-0.625000X0.375000X-0.625000X-0.375000X0*%
%ADD13RoundRect,0.237500X0.237500X-0.250000X0.237500X0.250000X-0.237500X0.250000X-0.237500X-0.250000X0*%
%ADD14RoundRect,0.242500X-0.242500X-0.242500X0.242500X-0.242500X0.242500X0.242500X-0.242500X0.242500X0*%
%ADD15RoundRect,0.062500X-0.350000X-0.062500X0.350000X-0.062500X0.350000X0.062500X-0.350000X0.062500X0*%
%ADD16RoundRect,0.062500X-0.062500X-0.350000X0.062500X-0.350000X0.062500X0.350000X-0.062500X0.350000X0*%
%ADD17RoundRect,0.237500X-0.250000X-0.237500X0.250000X-0.237500X0.250000X0.237500X-0.250000X0.237500X0*%
%ADD18RoundRect,0.250000X-0.475000X0.337500X-0.475000X-0.337500X0.475000X-0.337500X0.475000X0.337500X0*%
%ADD19RoundRect,0.237500X-0.237500X0.287500X-0.237500X-0.287500X0.237500X-0.287500X0.237500X0.287500X0*%
%ADD20RoundRect,0.250000X0.337500X0.475000X-0.337500X0.475000X-0.337500X-0.475000X0.337500X-0.475000X0*%
%ADD21RoundRect,0.250000X-0.800000X-0.650000X0.800000X-0.650000X0.800000X0.650000X-0.800000X0.650000X0*%
%ADD22RoundRect,0.130000X-0.130000X-0.305000X0.130000X-0.305000X0.130000X0.305000X-0.130000X0.305000X0*%
%ADD23RoundRect,0.237500X0.300000X0.237500X-0.300000X0.237500X-0.300000X-0.237500X0.300000X-0.237500X0*%
G04 APERTURE END LIST*
D10*
%TO.C,J2*%
X4150000Y-1750000D03*
X4650000Y-1750000D03*
X5150000Y-1750000D03*
X5650000Y-1750000D03*
X6150000Y-1750000D03*
X6650000Y-1750000D03*
X7150000Y-1750000D03*
X7650000Y-1750000D03*
X8150000Y-1750000D03*
X8650000Y-1750000D03*
X9150000Y-1750000D03*
X9650000Y-1750000D03*
X10150000Y-1750000D03*
X10650000Y-1750000D03*
X11150000Y-1750000D03*
X11650000Y-1750000D03*
X12150000Y-1750000D03*
X12650000Y-1750000D03*
X13150000Y-1750000D03*
X13650000Y-1750000D03*
X14150000Y-1750000D03*
X14650000Y-1750000D03*
X15150000Y-1750000D03*
X15650000Y-1750000D03*
D11*
X2375000Y-3000000D03*
X17425000Y-3000000D03*
%TD*%
D12*
%TO.C,D1*%
X148195000Y-106205000D03*
X148195000Y-103405000D03*
%TD*%
D13*
%TO.C,R8*%
X143900000Y-102012500D03*
X143900000Y-100187500D03*
%TD*%
D14*
%TO.C,U1*%
X141600000Y-107200000D03*
X141600000Y-108400000D03*
X141600000Y-109600000D03*
X142800000Y-107200000D03*
X142800000Y-108400000D03*
X142800000Y-109600000D03*
X144000000Y-107200000D03*
X144000000Y-108400000D03*
X144000000Y-109600000D03*
D15*
X140362500Y-106600000D03*
X140362500Y-107000000D03*
X140362500Y-107400000D03*
X140362500Y-107800000D03*
X140362500Y-108200000D03*
X140362500Y-108600000D03*
X140362500Y-109000000D03*
X140362500Y-109400000D03*
X140362500Y-109800000D03*
X140362500Y-110200000D03*
D16*
X141000000Y-110837500D03*
X141400000Y-110837500D03*
X141800000Y-110837500D03*
X142200000Y-110837500D03*
X142600000Y-110837500D03*
X143000000Y-110837500D03*
X143400000Y-110837500D03*
X143800000Y-110837500D03*
X144200000Y-110837500D03*
X144600000Y-110837500D03*
D15*
X145237500Y-110200000D03*
X145237500Y-109800000D03*
X145237500Y-109400000D03*
X145237500Y-109000000D03*
X145237500Y-108600000D03*
X145237500Y-108200000D03*
X145237500Y-107800000D03*
X145237500Y-107400000D03*
X145237500Y-107000000D03*
X145237500Y-106600000D03*
D16*
X144600000Y-105962500D03*
X144200000Y-105962500D03*
X143800000Y-105962500D03*
X143400000Y-105962500D03*
X143000000Y-105962500D03*
X142600000Y-105962500D03*
X142200000Y-105962500D03*
X141800000Y-105962500D03*
X141400000Y-105962500D03*
X141000000Y-105962500D03*
%TD*%
D17*
%TO.C,R1*%
X135887500Y-116850000D03*
X137712500Y-116850000D03*
%TD*%
D18*
%TO.C,C2*%
X147331208Y-94933269D03*
X147331208Y-97008269D03*
%TD*%
D19*
%TO.C,L1*%
X141400000Y-99950000D03*
X141400000Y-101700000D03*
%TD*%
D20*
%TO.C,C10*%
X137437500Y-109400000D03*
X135362500Y-109400000D03*
%TD*%
D18*
%TO.C,C1*%
X137600000Y-94962500D03*
X137600000Y-97037500D03*
%TD*%
D17*
%TO.C,R2*%
X135887500Y-118850000D03*
X137712500Y-118850000D03*
%TD*%
D21*
%TO.C,Y1*%
X140950000Y-96950000D03*
X143850000Y-96950000D03*
X143850000Y-94650000D03*
X140950000Y-94650000D03*
%TD*%
D22*
%TO.C,U2*%
X142600000Y-117050000D03*
X142600000Y-118050000D03*
X143200000Y-117050000D03*
X143200000Y-118050000D03*
D15*
X141687500Y-116550000D03*
X141687500Y-117050000D03*
X141687500Y-117550000D03*
X141687500Y-118050000D03*
X141687500Y-118550000D03*
X144112500Y-118550000D03*
X144112500Y-118050000D03*
X144112500Y-117550000D03*
X144112500Y-117050000D03*
X144112500Y-116550000D03*
%TD*%
D23*
%TO.C,C4*%
X139725000Y-103750000D03*
X138000000Y-103750000D03*
%TD*%
D19*
%TO.C,L2*%
X148050000Y-116975000D03*
X148050000Y-118725000D03*
%TD*%
D20*
%TO.C,C11*%
X137404203Y-111718901D03*
X135329203Y-111718901D03*
%TD*%
%TO.C,C6*%
X137437500Y-107025000D03*
X135362500Y-107025000D03*
%TD*%
M02*
