%TF.GenerationSoftware,KiCad,Pcbnew,10.0.2*%
%TF.CreationDate,2026-07-10T15:13:39+07:00*%
%TF.ProjectId,c61,6336312e-6b69-4636-9164-5f7063625858,rev?*%
%TF.SameCoordinates,Original*%
%TF.FileFunction,Legend,Top*%
%TF.FilePolarity,Positive*%
%FSLAX46Y46*%
G04 Gerber Fmt 4.6, Leading zero omitted, Abs format (unit mm)*
G04 Created by KiCad (PCBNEW 10.0.2) date 2026-07-10 15:13:39*
%MOMM*%
%LPD*%
G01*
G04 APERTURE LIST*
%ADD10C,0.100000*%
%ADD11C,0.254000*%
%ADD12C,0.150000*%
%ADD13C,0.125000*%
%ADD14C,0.200000*%
%ADD15C,0.120000*%
G04 APERTURE END LIST*
D10*
X132584836Y-114833609D02*
X132584836Y-114333609D01*
X132584836Y-114333609D02*
X132775312Y-114333609D01*
X132775312Y-114333609D02*
X132822931Y-114357419D01*
X132822931Y-114357419D02*
X132846741Y-114381228D01*
X132846741Y-114381228D02*
X132870550Y-114428847D01*
X132870550Y-114428847D02*
X132870550Y-114500276D01*
X132870550Y-114500276D02*
X132846741Y-114547895D01*
X132846741Y-114547895D02*
X132822931Y-114571704D01*
X132822931Y-114571704D02*
X132775312Y-114595514D01*
X132775312Y-114595514D02*
X132584836Y-114595514D01*
X133061027Y-114809800D02*
X133132455Y-114833609D01*
X133132455Y-114833609D02*
X133251503Y-114833609D01*
X133251503Y-114833609D02*
X133299122Y-114809800D01*
X133299122Y-114809800D02*
X133322931Y-114785990D01*
X133322931Y-114785990D02*
X133346741Y-114738371D01*
X133346741Y-114738371D02*
X133346741Y-114690752D01*
X133346741Y-114690752D02*
X133322931Y-114643133D01*
X133322931Y-114643133D02*
X133299122Y-114619323D01*
X133299122Y-114619323D02*
X133251503Y-114595514D01*
X133251503Y-114595514D02*
X133156265Y-114571704D01*
X133156265Y-114571704D02*
X133108646Y-114547895D01*
X133108646Y-114547895D02*
X133084836Y-114524085D01*
X133084836Y-114524085D02*
X133061027Y-114476466D01*
X133061027Y-114476466D02*
X133061027Y-114428847D01*
X133061027Y-114428847D02*
X133084836Y-114381228D01*
X133084836Y-114381228D02*
X133108646Y-114357419D01*
X133108646Y-114357419D02*
X133156265Y-114333609D01*
X133156265Y-114333609D02*
X133275312Y-114333609D01*
X133275312Y-114333609D02*
X133346741Y-114357419D01*
X133489598Y-114333609D02*
X133775312Y-114333609D01*
X133632455Y-114833609D02*
X133632455Y-114333609D01*
X134203883Y-114833609D02*
X133918169Y-114833609D01*
X134061026Y-114833609D02*
X134061026Y-114333609D01*
X134061026Y-114333609D02*
X134013407Y-114405038D01*
X134013407Y-114405038D02*
X133965788Y-114452657D01*
X133965788Y-114452657D02*
X133918169Y-114476466D01*
X132611027Y-111790752D02*
X132849122Y-111790752D01*
X132563408Y-111933609D02*
X132730074Y-111433609D01*
X132730074Y-111433609D02*
X132896741Y-111933609D01*
X133015788Y-111433609D02*
X133325312Y-111433609D01*
X133325312Y-111433609D02*
X133158645Y-111624085D01*
X133158645Y-111624085D02*
X133230074Y-111624085D01*
X133230074Y-111624085D02*
X133277693Y-111647895D01*
X133277693Y-111647895D02*
X133301502Y-111671704D01*
X133301502Y-111671704D02*
X133325312Y-111719323D01*
X133325312Y-111719323D02*
X133325312Y-111838371D01*
X133325312Y-111838371D02*
X133301502Y-111885990D01*
X133301502Y-111885990D02*
X133277693Y-111909800D01*
X133277693Y-111909800D02*
X133230074Y-111933609D01*
X133230074Y-111933609D02*
X133087217Y-111933609D01*
X133087217Y-111933609D02*
X133039598Y-111909800D01*
X133039598Y-111909800D02*
X133015788Y-111885990D01*
X133753883Y-111600276D02*
X133753883Y-111933609D01*
X133634835Y-111409800D02*
X133515788Y-111766942D01*
X133515788Y-111766942D02*
X133825311Y-111766942D01*
X132634836Y-117483609D02*
X132634836Y-116983609D01*
X132634836Y-116983609D02*
X132825312Y-116983609D01*
X132825312Y-116983609D02*
X132872931Y-117007419D01*
X132872931Y-117007419D02*
X132896741Y-117031228D01*
X132896741Y-117031228D02*
X132920550Y-117078847D01*
X132920550Y-117078847D02*
X132920550Y-117150276D01*
X132920550Y-117150276D02*
X132896741Y-117197895D01*
X132896741Y-117197895D02*
X132872931Y-117221704D01*
X132872931Y-117221704D02*
X132825312Y-117245514D01*
X132825312Y-117245514D02*
X132634836Y-117245514D01*
X133111027Y-117459800D02*
X133182455Y-117483609D01*
X133182455Y-117483609D02*
X133301503Y-117483609D01*
X133301503Y-117483609D02*
X133349122Y-117459800D01*
X133349122Y-117459800D02*
X133372931Y-117435990D01*
X133372931Y-117435990D02*
X133396741Y-117388371D01*
X133396741Y-117388371D02*
X133396741Y-117340752D01*
X133396741Y-117340752D02*
X133372931Y-117293133D01*
X133372931Y-117293133D02*
X133349122Y-117269323D01*
X133349122Y-117269323D02*
X133301503Y-117245514D01*
X133301503Y-117245514D02*
X133206265Y-117221704D01*
X133206265Y-117221704D02*
X133158646Y-117197895D01*
X133158646Y-117197895D02*
X133134836Y-117174085D01*
X133134836Y-117174085D02*
X133111027Y-117126466D01*
X133111027Y-117126466D02*
X133111027Y-117078847D01*
X133111027Y-117078847D02*
X133134836Y-117031228D01*
X133134836Y-117031228D02*
X133158646Y-117007419D01*
X133158646Y-117007419D02*
X133206265Y-116983609D01*
X133206265Y-116983609D02*
X133325312Y-116983609D01*
X133325312Y-116983609D02*
X133396741Y-117007419D01*
X133539598Y-116983609D02*
X133825312Y-116983609D01*
X133682455Y-117483609D02*
X133682455Y-116983609D01*
X133968169Y-117031228D02*
X133991978Y-117007419D01*
X133991978Y-117007419D02*
X134039597Y-116983609D01*
X134039597Y-116983609D02*
X134158645Y-116983609D01*
X134158645Y-116983609D02*
X134206264Y-117007419D01*
X134206264Y-117007419D02*
X134230073Y-117031228D01*
X134230073Y-117031228D02*
X134253883Y-117078847D01*
X134253883Y-117078847D02*
X134253883Y-117126466D01*
X134253883Y-117126466D02*
X134230073Y-117197895D01*
X134230073Y-117197895D02*
X133944359Y-117483609D01*
X133944359Y-117483609D02*
X134253883Y-117483609D01*
X132634836Y-119983609D02*
X132634836Y-119483609D01*
X132634836Y-119721704D02*
X132920550Y-119721704D01*
X132920550Y-119983609D02*
X132920550Y-119483609D01*
X133396741Y-119983609D02*
X133158646Y-119983609D01*
X133158646Y-119983609D02*
X133158646Y-119483609D01*
X133563408Y-119983609D02*
X133563408Y-119483609D01*
X133563408Y-119483609D02*
X133753884Y-119483609D01*
X133753884Y-119483609D02*
X133801503Y-119507419D01*
X133801503Y-119507419D02*
X133825313Y-119531228D01*
X133825313Y-119531228D02*
X133849122Y-119578847D01*
X133849122Y-119578847D02*
X133849122Y-119650276D01*
X133849122Y-119650276D02*
X133825313Y-119697895D01*
X133825313Y-119697895D02*
X133801503Y-119721704D01*
X133801503Y-119721704D02*
X133753884Y-119745514D01*
X133753884Y-119745514D02*
X133563408Y-119745514D01*
X134158646Y-119483609D02*
X134253884Y-119483609D01*
X134253884Y-119483609D02*
X134301503Y-119507419D01*
X134301503Y-119507419D02*
X134349122Y-119555038D01*
X134349122Y-119555038D02*
X134372932Y-119650276D01*
X134372932Y-119650276D02*
X134372932Y-119816942D01*
X134372932Y-119816942D02*
X134349122Y-119912180D01*
X134349122Y-119912180D02*
X134301503Y-119959800D01*
X134301503Y-119959800D02*
X134253884Y-119983609D01*
X134253884Y-119983609D02*
X134158646Y-119983609D01*
X134158646Y-119983609D02*
X134111027Y-119959800D01*
X134111027Y-119959800D02*
X134063408Y-119912180D01*
X134063408Y-119912180D02*
X134039599Y-119816942D01*
X134039599Y-119816942D02*
X134039599Y-119650276D01*
X134039599Y-119650276D02*
X134063408Y-119555038D01*
X134063408Y-119555038D02*
X134111027Y-119507419D01*
X134111027Y-119507419D02*
X134158646Y-119483609D01*
X134539599Y-119483609D02*
X134658647Y-119983609D01*
X134658647Y-119983609D02*
X134753885Y-119626466D01*
X134753885Y-119626466D02*
X134849123Y-119983609D01*
X134849123Y-119983609D02*
X134968171Y-119483609D01*
X132946741Y-90907419D02*
X132899122Y-90883609D01*
X132899122Y-90883609D02*
X132827693Y-90883609D01*
X132827693Y-90883609D02*
X132756265Y-90907419D01*
X132756265Y-90907419D02*
X132708646Y-90955038D01*
X132708646Y-90955038D02*
X132684836Y-91002657D01*
X132684836Y-91002657D02*
X132661027Y-91097895D01*
X132661027Y-91097895D02*
X132661027Y-91169323D01*
X132661027Y-91169323D02*
X132684836Y-91264561D01*
X132684836Y-91264561D02*
X132708646Y-91312180D01*
X132708646Y-91312180D02*
X132756265Y-91359800D01*
X132756265Y-91359800D02*
X132827693Y-91383609D01*
X132827693Y-91383609D02*
X132875312Y-91383609D01*
X132875312Y-91383609D02*
X132946741Y-91359800D01*
X132946741Y-91359800D02*
X132970550Y-91335990D01*
X132970550Y-91335990D02*
X132970550Y-91169323D01*
X132970550Y-91169323D02*
X132875312Y-91169323D01*
X133256265Y-91097895D02*
X133208646Y-91074085D01*
X133208646Y-91074085D02*
X133184836Y-91050276D01*
X133184836Y-91050276D02*
X133161027Y-91002657D01*
X133161027Y-91002657D02*
X133161027Y-90978847D01*
X133161027Y-90978847D02*
X133184836Y-90931228D01*
X133184836Y-90931228D02*
X133208646Y-90907419D01*
X133208646Y-90907419D02*
X133256265Y-90883609D01*
X133256265Y-90883609D02*
X133351503Y-90883609D01*
X133351503Y-90883609D02*
X133399122Y-90907419D01*
X133399122Y-90907419D02*
X133422931Y-90931228D01*
X133422931Y-90931228D02*
X133446741Y-90978847D01*
X133446741Y-90978847D02*
X133446741Y-91002657D01*
X133446741Y-91002657D02*
X133422931Y-91050276D01*
X133422931Y-91050276D02*
X133399122Y-91074085D01*
X133399122Y-91074085D02*
X133351503Y-91097895D01*
X133351503Y-91097895D02*
X133256265Y-91097895D01*
X133256265Y-91097895D02*
X133208646Y-91121704D01*
X133208646Y-91121704D02*
X133184836Y-91145514D01*
X133184836Y-91145514D02*
X133161027Y-91193133D01*
X133161027Y-91193133D02*
X133161027Y-91288371D01*
X133161027Y-91288371D02*
X133184836Y-91335990D01*
X133184836Y-91335990D02*
X133208646Y-91359800D01*
X133208646Y-91359800D02*
X133256265Y-91383609D01*
X133256265Y-91383609D02*
X133351503Y-91383609D01*
X133351503Y-91383609D02*
X133399122Y-91359800D01*
X133399122Y-91359800D02*
X133422931Y-91335990D01*
X133422931Y-91335990D02*
X133446741Y-91288371D01*
X133446741Y-91288371D02*
X133446741Y-91193133D01*
X133446741Y-91193133D02*
X133422931Y-91145514D01*
X133422931Y-91145514D02*
X133399122Y-91121704D01*
X133399122Y-91121704D02*
X133351503Y-91097895D01*
X132946741Y-93707419D02*
X132899122Y-93683609D01*
X132899122Y-93683609D02*
X132827693Y-93683609D01*
X132827693Y-93683609D02*
X132756265Y-93707419D01*
X132756265Y-93707419D02*
X132708646Y-93755038D01*
X132708646Y-93755038D02*
X132684836Y-93802657D01*
X132684836Y-93802657D02*
X132661027Y-93897895D01*
X132661027Y-93897895D02*
X132661027Y-93969323D01*
X132661027Y-93969323D02*
X132684836Y-94064561D01*
X132684836Y-94064561D02*
X132708646Y-94112180D01*
X132708646Y-94112180D02*
X132756265Y-94159800D01*
X132756265Y-94159800D02*
X132827693Y-94183609D01*
X132827693Y-94183609D02*
X132875312Y-94183609D01*
X132875312Y-94183609D02*
X132946741Y-94159800D01*
X132946741Y-94159800D02*
X132970550Y-94135990D01*
X132970550Y-94135990D02*
X132970550Y-93969323D01*
X132970550Y-93969323D02*
X132875312Y-93969323D01*
X133208646Y-94183609D02*
X133303884Y-94183609D01*
X133303884Y-94183609D02*
X133351503Y-94159800D01*
X133351503Y-94159800D02*
X133375312Y-94135990D01*
X133375312Y-94135990D02*
X133422931Y-94064561D01*
X133422931Y-94064561D02*
X133446741Y-93969323D01*
X133446741Y-93969323D02*
X133446741Y-93778847D01*
X133446741Y-93778847D02*
X133422931Y-93731228D01*
X133422931Y-93731228D02*
X133399122Y-93707419D01*
X133399122Y-93707419D02*
X133351503Y-93683609D01*
X133351503Y-93683609D02*
X133256265Y-93683609D01*
X133256265Y-93683609D02*
X133208646Y-93707419D01*
X133208646Y-93707419D02*
X133184836Y-93731228D01*
X133184836Y-93731228D02*
X133161027Y-93778847D01*
X133161027Y-93778847D02*
X133161027Y-93897895D01*
X133161027Y-93897895D02*
X133184836Y-93945514D01*
X133184836Y-93945514D02*
X133208646Y-93969323D01*
X133208646Y-93969323D02*
X133256265Y-93993133D01*
X133256265Y-93993133D02*
X133351503Y-93993133D01*
X133351503Y-93993133D02*
X133399122Y-93969323D01*
X133399122Y-93969323D02*
X133422931Y-93945514D01*
X133422931Y-93945514D02*
X133446741Y-93897895D01*
X132946741Y-101707419D02*
X132899122Y-101683609D01*
X132899122Y-101683609D02*
X132827693Y-101683609D01*
X132827693Y-101683609D02*
X132756265Y-101707419D01*
X132756265Y-101707419D02*
X132708646Y-101755038D01*
X132708646Y-101755038D02*
X132684836Y-101802657D01*
X132684836Y-101802657D02*
X132661027Y-101897895D01*
X132661027Y-101897895D02*
X132661027Y-101969323D01*
X132661027Y-101969323D02*
X132684836Y-102064561D01*
X132684836Y-102064561D02*
X132708646Y-102112180D01*
X132708646Y-102112180D02*
X132756265Y-102159800D01*
X132756265Y-102159800D02*
X132827693Y-102183609D01*
X132827693Y-102183609D02*
X132875312Y-102183609D01*
X132875312Y-102183609D02*
X132946741Y-102159800D01*
X132946741Y-102159800D02*
X132970550Y-102135990D01*
X132970550Y-102135990D02*
X132970550Y-101969323D01*
X132970550Y-101969323D02*
X132875312Y-101969323D01*
X133184836Y-102183609D02*
X133184836Y-101683609D01*
X133184836Y-101683609D02*
X133470550Y-102183609D01*
X133470550Y-102183609D02*
X133470550Y-101683609D01*
X133708646Y-102183609D02*
X133708646Y-101683609D01*
X133708646Y-101683609D02*
X133827694Y-101683609D01*
X133827694Y-101683609D02*
X133899122Y-101707419D01*
X133899122Y-101707419D02*
X133946741Y-101755038D01*
X133946741Y-101755038D02*
X133970551Y-101802657D01*
X133970551Y-101802657D02*
X133994360Y-101897895D01*
X133994360Y-101897895D02*
X133994360Y-101969323D01*
X133994360Y-101969323D02*
X133970551Y-102064561D01*
X133970551Y-102064561D02*
X133946741Y-102112180D01*
X133946741Y-102112180D02*
X133899122Y-102159800D01*
X133899122Y-102159800D02*
X133827694Y-102183609D01*
X133827694Y-102183609D02*
X133708646Y-102183609D01*
X132661027Y-109640752D02*
X132899122Y-109640752D01*
X132613408Y-109783609D02*
X132780074Y-109283609D01*
X132780074Y-109283609D02*
X132946741Y-109783609D01*
X133375312Y-109783609D02*
X133089598Y-109783609D01*
X133232455Y-109783609D02*
X133232455Y-109283609D01*
X133232455Y-109283609D02*
X133184836Y-109355038D01*
X133184836Y-109355038D02*
X133137217Y-109402657D01*
X133137217Y-109402657D02*
X133089598Y-109426466D01*
X133565788Y-109331228D02*
X133589597Y-109307419D01*
X133589597Y-109307419D02*
X133637216Y-109283609D01*
X133637216Y-109283609D02*
X133756264Y-109283609D01*
X133756264Y-109283609D02*
X133803883Y-109307419D01*
X133803883Y-109307419D02*
X133827692Y-109331228D01*
X133827692Y-109331228D02*
X133851502Y-109378847D01*
X133851502Y-109378847D02*
X133851502Y-109426466D01*
X133851502Y-109426466D02*
X133827692Y-109497895D01*
X133827692Y-109497895D02*
X133541978Y-109783609D01*
X133541978Y-109783609D02*
X133851502Y-109783609D01*
X133020550Y-97033609D02*
X132853884Y-96795514D01*
X132734836Y-97033609D02*
X132734836Y-96533609D01*
X132734836Y-96533609D02*
X132925312Y-96533609D01*
X132925312Y-96533609D02*
X132972931Y-96557419D01*
X132972931Y-96557419D02*
X132996741Y-96581228D01*
X132996741Y-96581228D02*
X133020550Y-96628847D01*
X133020550Y-96628847D02*
X133020550Y-96700276D01*
X133020550Y-96700276D02*
X132996741Y-96747895D01*
X132996741Y-96747895D02*
X132972931Y-96771704D01*
X132972931Y-96771704D02*
X132925312Y-96795514D01*
X132925312Y-96795514D02*
X132734836Y-96795514D01*
X133187217Y-96533609D02*
X133520550Y-97033609D01*
X133520550Y-96533609D02*
X133187217Y-97033609D01*
X132663408Y-104183609D02*
X132830074Y-104683609D01*
X132830074Y-104683609D02*
X132996741Y-104183609D01*
X133330074Y-104421704D02*
X133401502Y-104445514D01*
X133401502Y-104445514D02*
X133425312Y-104469323D01*
X133425312Y-104469323D02*
X133449121Y-104516942D01*
X133449121Y-104516942D02*
X133449121Y-104588371D01*
X133449121Y-104588371D02*
X133425312Y-104635990D01*
X133425312Y-104635990D02*
X133401502Y-104659800D01*
X133401502Y-104659800D02*
X133353883Y-104683609D01*
X133353883Y-104683609D02*
X133163407Y-104683609D01*
X133163407Y-104683609D02*
X133163407Y-104183609D01*
X133163407Y-104183609D02*
X133330074Y-104183609D01*
X133330074Y-104183609D02*
X133377693Y-104207419D01*
X133377693Y-104207419D02*
X133401502Y-104231228D01*
X133401502Y-104231228D02*
X133425312Y-104278847D01*
X133425312Y-104278847D02*
X133425312Y-104326466D01*
X133425312Y-104326466D02*
X133401502Y-104374085D01*
X133401502Y-104374085D02*
X133377693Y-104397895D01*
X133377693Y-104397895D02*
X133330074Y-104421704D01*
X133330074Y-104421704D02*
X133163407Y-104421704D01*
X133663407Y-104183609D02*
X133663407Y-104588371D01*
X133663407Y-104588371D02*
X133687217Y-104635990D01*
X133687217Y-104635990D02*
X133711026Y-104659800D01*
X133711026Y-104659800D02*
X133758645Y-104683609D01*
X133758645Y-104683609D02*
X133853883Y-104683609D01*
X133853883Y-104683609D02*
X133901502Y-104659800D01*
X133901502Y-104659800D02*
X133925312Y-104635990D01*
X133925312Y-104635990D02*
X133949121Y-104588371D01*
X133949121Y-104588371D02*
X133949121Y-104183609D01*
X134163408Y-104659800D02*
X134234836Y-104683609D01*
X134234836Y-104683609D02*
X134353884Y-104683609D01*
X134353884Y-104683609D02*
X134401503Y-104659800D01*
X134401503Y-104659800D02*
X134425312Y-104635990D01*
X134425312Y-104635990D02*
X134449122Y-104588371D01*
X134449122Y-104588371D02*
X134449122Y-104540752D01*
X134449122Y-104540752D02*
X134425312Y-104493133D01*
X134425312Y-104493133D02*
X134401503Y-104469323D01*
X134401503Y-104469323D02*
X134353884Y-104445514D01*
X134353884Y-104445514D02*
X134258646Y-104421704D01*
X134258646Y-104421704D02*
X134211027Y-104397895D01*
X134211027Y-104397895D02*
X134187217Y-104374085D01*
X134187217Y-104374085D02*
X134163408Y-104326466D01*
X134163408Y-104326466D02*
X134163408Y-104278847D01*
X134163408Y-104278847D02*
X134187217Y-104231228D01*
X134187217Y-104231228D02*
X134211027Y-104207419D01*
X134211027Y-104207419D02*
X134258646Y-104183609D01*
X134258646Y-104183609D02*
X134377693Y-104183609D01*
X134377693Y-104183609D02*
X134449122Y-104207419D01*
X132687217Y-106783609D02*
X132996741Y-106783609D01*
X132996741Y-106783609D02*
X132830074Y-106974085D01*
X132830074Y-106974085D02*
X132901503Y-106974085D01*
X132901503Y-106974085D02*
X132949122Y-106997895D01*
X132949122Y-106997895D02*
X132972931Y-107021704D01*
X132972931Y-107021704D02*
X132996741Y-107069323D01*
X132996741Y-107069323D02*
X132996741Y-107188371D01*
X132996741Y-107188371D02*
X132972931Y-107235990D01*
X132972931Y-107235990D02*
X132949122Y-107259800D01*
X132949122Y-107259800D02*
X132901503Y-107283609D01*
X132901503Y-107283609D02*
X132758646Y-107283609D01*
X132758646Y-107283609D02*
X132711027Y-107259800D01*
X132711027Y-107259800D02*
X132687217Y-107235990D01*
X133211026Y-107235990D02*
X133234836Y-107259800D01*
X133234836Y-107259800D02*
X133211026Y-107283609D01*
X133211026Y-107283609D02*
X133187217Y-107259800D01*
X133187217Y-107259800D02*
X133211026Y-107235990D01*
X133211026Y-107235990D02*
X133211026Y-107283609D01*
X133401502Y-106783609D02*
X133711026Y-106783609D01*
X133711026Y-106783609D02*
X133544359Y-106974085D01*
X133544359Y-106974085D02*
X133615788Y-106974085D01*
X133615788Y-106974085D02*
X133663407Y-106997895D01*
X133663407Y-106997895D02*
X133687216Y-107021704D01*
X133687216Y-107021704D02*
X133711026Y-107069323D01*
X133711026Y-107069323D02*
X133711026Y-107188371D01*
X133711026Y-107188371D02*
X133687216Y-107235990D01*
X133687216Y-107235990D02*
X133663407Y-107259800D01*
X133663407Y-107259800D02*
X133615788Y-107283609D01*
X133615788Y-107283609D02*
X133472931Y-107283609D01*
X133472931Y-107283609D02*
X133425312Y-107259800D01*
X133425312Y-107259800D02*
X133401502Y-107235990D01*
X133853883Y-106783609D02*
X134020549Y-107283609D01*
X134020549Y-107283609D02*
X134187216Y-106783609D01*
X132713408Y-99133609D02*
X132999122Y-99133609D01*
X132856265Y-99633609D02*
X132856265Y-99133609D01*
X133118169Y-99133609D02*
X133451502Y-99633609D01*
X133451502Y-99133609D02*
X133118169Y-99633609D01*
X133782271Y-90832733D02*
X134082271Y-90832733D01*
X134210843Y-91304162D02*
X133782271Y-91304162D01*
X133782271Y-91304162D02*
X133782271Y-90404162D01*
X133782271Y-90404162D02*
X134210843Y-90404162D01*
X134553700Y-91261305D02*
X134682272Y-91304162D01*
X134682272Y-91304162D02*
X134896557Y-91304162D01*
X134896557Y-91304162D02*
X134982272Y-91261305D01*
X134982272Y-91261305D02*
X135025129Y-91218447D01*
X135025129Y-91218447D02*
X135067986Y-91132733D01*
X135067986Y-91132733D02*
X135067986Y-91047019D01*
X135067986Y-91047019D02*
X135025129Y-90961305D01*
X135025129Y-90961305D02*
X134982272Y-90918447D01*
X134982272Y-90918447D02*
X134896557Y-90875590D01*
X134896557Y-90875590D02*
X134725129Y-90832733D01*
X134725129Y-90832733D02*
X134639414Y-90789876D01*
X134639414Y-90789876D02*
X134596557Y-90747019D01*
X134596557Y-90747019D02*
X134553700Y-90661305D01*
X134553700Y-90661305D02*
X134553700Y-90575590D01*
X134553700Y-90575590D02*
X134596557Y-90489876D01*
X134596557Y-90489876D02*
X134639414Y-90447019D01*
X134639414Y-90447019D02*
X134725129Y-90404162D01*
X134725129Y-90404162D02*
X134939414Y-90404162D01*
X134939414Y-90404162D02*
X135067986Y-90447019D01*
X135453700Y-91304162D02*
X135453700Y-90404162D01*
X135453700Y-90404162D02*
X135796557Y-90404162D01*
X135796557Y-90404162D02*
X135882272Y-90447019D01*
X135882272Y-90447019D02*
X135925129Y-90489876D01*
X135925129Y-90489876D02*
X135967986Y-90575590D01*
X135967986Y-90575590D02*
X135967986Y-90704162D01*
X135967986Y-90704162D02*
X135925129Y-90789876D01*
X135925129Y-90789876D02*
X135882272Y-90832733D01*
X135882272Y-90832733D02*
X135796557Y-90875590D01*
X135796557Y-90875590D02*
X135453700Y-90875590D01*
X136267986Y-90404162D02*
X136825129Y-90404162D01*
X136825129Y-90404162D02*
X136525129Y-90747019D01*
X136525129Y-90747019D02*
X136653700Y-90747019D01*
X136653700Y-90747019D02*
X136739415Y-90789876D01*
X136739415Y-90789876D02*
X136782272Y-90832733D01*
X136782272Y-90832733D02*
X136825129Y-90918447D01*
X136825129Y-90918447D02*
X136825129Y-91132733D01*
X136825129Y-91132733D02*
X136782272Y-91218447D01*
X136782272Y-91218447D02*
X136739415Y-91261305D01*
X136739415Y-91261305D02*
X136653700Y-91304162D01*
X136653700Y-91304162D02*
X136396557Y-91304162D01*
X136396557Y-91304162D02*
X136310843Y-91261305D01*
X136310843Y-91261305D02*
X136267986Y-91218447D01*
X137167986Y-90489876D02*
X137210843Y-90447019D01*
X137210843Y-90447019D02*
X137296558Y-90404162D01*
X137296558Y-90404162D02*
X137510843Y-90404162D01*
X137510843Y-90404162D02*
X137596558Y-90447019D01*
X137596558Y-90447019D02*
X137639415Y-90489876D01*
X137639415Y-90489876D02*
X137682272Y-90575590D01*
X137682272Y-90575590D02*
X137682272Y-90661305D01*
X137682272Y-90661305D02*
X137639415Y-90789876D01*
X137639415Y-90789876D02*
X137125129Y-91304162D01*
X137125129Y-91304162D02*
X137682272Y-91304162D01*
X138067986Y-90961305D02*
X138753701Y-90961305D01*
X139696558Y-91218447D02*
X139653701Y-91261305D01*
X139653701Y-91261305D02*
X139525129Y-91304162D01*
X139525129Y-91304162D02*
X139439415Y-91304162D01*
X139439415Y-91304162D02*
X139310844Y-91261305D01*
X139310844Y-91261305D02*
X139225129Y-91175590D01*
X139225129Y-91175590D02*
X139182272Y-91089876D01*
X139182272Y-91089876D02*
X139139415Y-90918447D01*
X139139415Y-90918447D02*
X139139415Y-90789876D01*
X139139415Y-90789876D02*
X139182272Y-90618447D01*
X139182272Y-90618447D02*
X139225129Y-90532733D01*
X139225129Y-90532733D02*
X139310844Y-90447019D01*
X139310844Y-90447019D02*
X139439415Y-90404162D01*
X139439415Y-90404162D02*
X139525129Y-90404162D01*
X139525129Y-90404162D02*
X139653701Y-90447019D01*
X139653701Y-90447019D02*
X139696558Y-90489876D01*
X140467987Y-90404162D02*
X140296558Y-90404162D01*
X140296558Y-90404162D02*
X140210844Y-90447019D01*
X140210844Y-90447019D02*
X140167987Y-90489876D01*
X140167987Y-90489876D02*
X140082272Y-90618447D01*
X140082272Y-90618447D02*
X140039415Y-90789876D01*
X140039415Y-90789876D02*
X140039415Y-91132733D01*
X140039415Y-91132733D02*
X140082272Y-91218447D01*
X140082272Y-91218447D02*
X140125129Y-91261305D01*
X140125129Y-91261305D02*
X140210844Y-91304162D01*
X140210844Y-91304162D02*
X140382272Y-91304162D01*
X140382272Y-91304162D02*
X140467987Y-91261305D01*
X140467987Y-91261305D02*
X140510844Y-91218447D01*
X140510844Y-91218447D02*
X140553701Y-91132733D01*
X140553701Y-91132733D02*
X140553701Y-90918447D01*
X140553701Y-90918447D02*
X140510844Y-90832733D01*
X140510844Y-90832733D02*
X140467987Y-90789876D01*
X140467987Y-90789876D02*
X140382272Y-90747019D01*
X140382272Y-90747019D02*
X140210844Y-90747019D01*
X140210844Y-90747019D02*
X140125129Y-90789876D01*
X140125129Y-90789876D02*
X140082272Y-90832733D01*
X140082272Y-90832733D02*
X140039415Y-90918447D01*
X141410844Y-91304162D02*
X140896558Y-91304162D01*
X141153701Y-91304162D02*
X141153701Y-90404162D01*
X141153701Y-90404162D02*
X141067987Y-90532733D01*
X141067987Y-90532733D02*
X140982272Y-90618447D01*
X140982272Y-90618447D02*
X140896558Y-90661305D01*
X142439415Y-91261305D02*
X142567987Y-91304162D01*
X142567987Y-91304162D02*
X142782272Y-91304162D01*
X142782272Y-91304162D02*
X142867987Y-91261305D01*
X142867987Y-91261305D02*
X142910844Y-91218447D01*
X142910844Y-91218447D02*
X142953701Y-91132733D01*
X142953701Y-91132733D02*
X142953701Y-91047019D01*
X142953701Y-91047019D02*
X142910844Y-90961305D01*
X142910844Y-90961305D02*
X142867987Y-90918447D01*
X142867987Y-90918447D02*
X142782272Y-90875590D01*
X142782272Y-90875590D02*
X142610844Y-90832733D01*
X142610844Y-90832733D02*
X142525129Y-90789876D01*
X142525129Y-90789876D02*
X142482272Y-90747019D01*
X142482272Y-90747019D02*
X142439415Y-90661305D01*
X142439415Y-90661305D02*
X142439415Y-90575590D01*
X142439415Y-90575590D02*
X142482272Y-90489876D01*
X142482272Y-90489876D02*
X142525129Y-90447019D01*
X142525129Y-90447019D02*
X142610844Y-90404162D01*
X142610844Y-90404162D02*
X142825129Y-90404162D01*
X142825129Y-90404162D02*
X142953701Y-90447019D01*
X143339415Y-91304162D02*
X143339415Y-90404162D01*
X143767986Y-91304162D02*
X143767986Y-90404162D01*
X143767986Y-90404162D02*
X143982272Y-90404162D01*
X143982272Y-90404162D02*
X144110843Y-90447019D01*
X144110843Y-90447019D02*
X144196558Y-90532733D01*
X144196558Y-90532733D02*
X144239415Y-90618447D01*
X144239415Y-90618447D02*
X144282272Y-90789876D01*
X144282272Y-90789876D02*
X144282272Y-90918447D01*
X144282272Y-90918447D02*
X144239415Y-91089876D01*
X144239415Y-91089876D02*
X144196558Y-91175590D01*
X144196558Y-91175590D02*
X144110843Y-91261305D01*
X144110843Y-91261305D02*
X143982272Y-91304162D01*
X143982272Y-91304162D02*
X143767986Y-91304162D01*
X144667986Y-90832733D02*
X144967986Y-90832733D01*
X145096558Y-91304162D02*
X144667986Y-91304162D01*
X144667986Y-91304162D02*
X144667986Y-90404162D01*
X144667986Y-90404162D02*
X145096558Y-90404162D01*
X145996558Y-91218447D02*
X145953701Y-91261305D01*
X145953701Y-91261305D02*
X145825129Y-91304162D01*
X145825129Y-91304162D02*
X145739415Y-91304162D01*
X145739415Y-91304162D02*
X145610844Y-91261305D01*
X145610844Y-91261305D02*
X145525129Y-91175590D01*
X145525129Y-91175590D02*
X145482272Y-91089876D01*
X145482272Y-91089876D02*
X145439415Y-90918447D01*
X145439415Y-90918447D02*
X145439415Y-90789876D01*
X145439415Y-90789876D02*
X145482272Y-90618447D01*
X145482272Y-90618447D02*
X145525129Y-90532733D01*
X145525129Y-90532733D02*
X145610844Y-90447019D01*
X145610844Y-90447019D02*
X145739415Y-90404162D01*
X145739415Y-90404162D02*
X145825129Y-90404162D01*
X145825129Y-90404162D02*
X145953701Y-90447019D01*
X145953701Y-90447019D02*
X145996558Y-90489876D01*
X146339415Y-91047019D02*
X146767987Y-91047019D01*
X146253701Y-91304162D02*
X146553701Y-90404162D01*
X146553701Y-90404162D02*
X146853701Y-91304162D01*
X147667987Y-91304162D02*
X147367987Y-90875590D01*
X147153701Y-91304162D02*
X147153701Y-90404162D01*
X147153701Y-90404162D02*
X147496558Y-90404162D01*
X147496558Y-90404162D02*
X147582273Y-90447019D01*
X147582273Y-90447019D02*
X147625130Y-90489876D01*
X147625130Y-90489876D02*
X147667987Y-90575590D01*
X147667987Y-90575590D02*
X147667987Y-90704162D01*
X147667987Y-90704162D02*
X147625130Y-90789876D01*
X147625130Y-90789876D02*
X147582273Y-90832733D01*
X147582273Y-90832733D02*
X147496558Y-90875590D01*
X147496558Y-90875590D02*
X147153701Y-90875590D01*
D11*
X9476667Y-2954318D02*
X9476667Y-3861461D01*
X9476667Y-3861461D02*
X9416190Y-4042889D01*
X9416190Y-4042889D02*
X9295238Y-4163842D01*
X9295238Y-4163842D02*
X9113809Y-4224318D01*
X9113809Y-4224318D02*
X8992857Y-4224318D01*
X10020952Y-3075270D02*
X10081428Y-3014794D01*
X10081428Y-3014794D02*
X10202381Y-2954318D01*
X10202381Y-2954318D02*
X10504762Y-2954318D01*
X10504762Y-2954318D02*
X10625714Y-3014794D01*
X10625714Y-3014794D02*
X10686190Y-3075270D01*
X10686190Y-3075270D02*
X10746667Y-3196222D01*
X10746667Y-3196222D02*
X10746667Y-3317175D01*
X10746667Y-3317175D02*
X10686190Y-3498603D01*
X10686190Y-3498603D02*
X9960476Y-4224318D01*
X9960476Y-4224318D02*
X10746667Y-4224318D01*
D12*
X146819819Y-105543094D02*
X145819819Y-105543094D01*
X145819819Y-105543094D02*
X145819819Y-105304999D01*
X145819819Y-105304999D02*
X145867438Y-105162142D01*
X145867438Y-105162142D02*
X145962676Y-105066904D01*
X145962676Y-105066904D02*
X146057914Y-105019285D01*
X146057914Y-105019285D02*
X146248390Y-104971666D01*
X146248390Y-104971666D02*
X146391247Y-104971666D01*
X146391247Y-104971666D02*
X146581723Y-105019285D01*
X146581723Y-105019285D02*
X146676961Y-105066904D01*
X146676961Y-105066904D02*
X146772200Y-105162142D01*
X146772200Y-105162142D02*
X146819819Y-105304999D01*
X146819819Y-105304999D02*
X146819819Y-105543094D01*
X146819819Y-104019285D02*
X146819819Y-104590713D01*
X146819819Y-104304999D02*
X145819819Y-104304999D01*
X145819819Y-104304999D02*
X145962676Y-104400237D01*
X145962676Y-104400237D02*
X146057914Y-104495475D01*
X146057914Y-104495475D02*
X146105533Y-104590713D01*
D10*
X144049847Y-101166666D02*
X143859371Y-101299999D01*
X144049847Y-101395237D02*
X143649847Y-101395237D01*
X143649847Y-101395237D02*
X143649847Y-101242856D01*
X143649847Y-101242856D02*
X143668895Y-101204761D01*
X143668895Y-101204761D02*
X143687942Y-101185714D01*
X143687942Y-101185714D02*
X143726038Y-101166666D01*
X143726038Y-101166666D02*
X143783180Y-101166666D01*
X143783180Y-101166666D02*
X143821276Y-101185714D01*
X143821276Y-101185714D02*
X143840323Y-101204761D01*
X143840323Y-101204761D02*
X143859371Y-101242856D01*
X143859371Y-101242856D02*
X143859371Y-101395237D01*
X143821276Y-100938095D02*
X143802228Y-100976190D01*
X143802228Y-100976190D02*
X143783180Y-100995237D01*
X143783180Y-100995237D02*
X143745085Y-101014285D01*
X143745085Y-101014285D02*
X143726038Y-101014285D01*
X143726038Y-101014285D02*
X143687942Y-100995237D01*
X143687942Y-100995237D02*
X143668895Y-100976190D01*
X143668895Y-100976190D02*
X143649847Y-100938095D01*
X143649847Y-100938095D02*
X143649847Y-100861904D01*
X143649847Y-100861904D02*
X143668895Y-100823809D01*
X143668895Y-100823809D02*
X143687942Y-100804761D01*
X143687942Y-100804761D02*
X143726038Y-100785714D01*
X143726038Y-100785714D02*
X143745085Y-100785714D01*
X143745085Y-100785714D02*
X143783180Y-100804761D01*
X143783180Y-100804761D02*
X143802228Y-100823809D01*
X143802228Y-100823809D02*
X143821276Y-100861904D01*
X143821276Y-100861904D02*
X143821276Y-100938095D01*
X143821276Y-100938095D02*
X143840323Y-100976190D01*
X143840323Y-100976190D02*
X143859371Y-100995237D01*
X143859371Y-100995237D02*
X143897466Y-101014285D01*
X143897466Y-101014285D02*
X143973657Y-101014285D01*
X143973657Y-101014285D02*
X144011752Y-100995237D01*
X144011752Y-100995237D02*
X144030800Y-100976190D01*
X144030800Y-100976190D02*
X144049847Y-100938095D01*
X144049847Y-100938095D02*
X144049847Y-100861904D01*
X144049847Y-100861904D02*
X144030800Y-100823809D01*
X144030800Y-100823809D02*
X144011752Y-100804761D01*
X144011752Y-100804761D02*
X143973657Y-100785714D01*
X143973657Y-100785714D02*
X143897466Y-100785714D01*
X143897466Y-100785714D02*
X143859371Y-100804761D01*
X143859371Y-100804761D02*
X143840323Y-100823809D01*
X143840323Y-100823809D02*
X143821276Y-100861904D01*
X144922776Y-101730951D02*
X145256109Y-101730951D01*
X144732300Y-101849999D02*
X145089442Y-101969046D01*
X145089442Y-101969046D02*
X145089442Y-101659523D01*
X145256109Y-101445237D02*
X145256109Y-101349999D01*
X145256109Y-101349999D02*
X145232300Y-101302380D01*
X145232300Y-101302380D02*
X145208490Y-101278571D01*
X145208490Y-101278571D02*
X145137061Y-101230952D01*
X145137061Y-101230952D02*
X145041823Y-101207142D01*
X145041823Y-101207142D02*
X144851347Y-101207142D01*
X144851347Y-101207142D02*
X144803728Y-101230952D01*
X144803728Y-101230952D02*
X144779919Y-101254761D01*
X144779919Y-101254761D02*
X144756109Y-101302380D01*
X144756109Y-101302380D02*
X144756109Y-101397618D01*
X144756109Y-101397618D02*
X144779919Y-101445237D01*
X144779919Y-101445237D02*
X144803728Y-101469047D01*
X144803728Y-101469047D02*
X144851347Y-101492856D01*
X144851347Y-101492856D02*
X144970395Y-101492856D01*
X144970395Y-101492856D02*
X145018014Y-101469047D01*
X145018014Y-101469047D02*
X145041823Y-101445237D01*
X145041823Y-101445237D02*
X145065633Y-101397618D01*
X145065633Y-101397618D02*
X145065633Y-101302380D01*
X145065633Y-101302380D02*
X145041823Y-101254761D01*
X145041823Y-101254761D02*
X145018014Y-101230952D01*
X145018014Y-101230952D02*
X144970395Y-101207142D01*
X145256109Y-100969047D02*
X145256109Y-100873809D01*
X145256109Y-100873809D02*
X145232300Y-100826190D01*
X145232300Y-100826190D02*
X145208490Y-100802381D01*
X145208490Y-100802381D02*
X145137061Y-100754762D01*
X145137061Y-100754762D02*
X145041823Y-100730952D01*
X145041823Y-100730952D02*
X144851347Y-100730952D01*
X144851347Y-100730952D02*
X144803728Y-100754762D01*
X144803728Y-100754762D02*
X144779919Y-100778571D01*
X144779919Y-100778571D02*
X144756109Y-100826190D01*
X144756109Y-100826190D02*
X144756109Y-100921428D01*
X144756109Y-100921428D02*
X144779919Y-100969047D01*
X144779919Y-100969047D02*
X144803728Y-100992857D01*
X144803728Y-100992857D02*
X144851347Y-101016666D01*
X144851347Y-101016666D02*
X144970395Y-101016666D01*
X144970395Y-101016666D02*
X145018014Y-100992857D01*
X145018014Y-100992857D02*
X145041823Y-100969047D01*
X145041823Y-100969047D02*
X145065633Y-100921428D01*
X145065633Y-100921428D02*
X145065633Y-100826190D01*
X145065633Y-100826190D02*
X145041823Y-100778571D01*
X145041823Y-100778571D02*
X145018014Y-100754762D01*
X145018014Y-100754762D02*
X144970395Y-100730952D01*
X145256109Y-100230953D02*
X145018014Y-100397619D01*
X145256109Y-100516667D02*
X144756109Y-100516667D01*
X144756109Y-100516667D02*
X144756109Y-100326191D01*
X144756109Y-100326191D02*
X144779919Y-100278572D01*
X144779919Y-100278572D02*
X144803728Y-100254762D01*
X144803728Y-100254762D02*
X144851347Y-100230953D01*
X144851347Y-100230953D02*
X144922776Y-100230953D01*
X144922776Y-100230953D02*
X144970395Y-100254762D01*
X144970395Y-100254762D02*
X144994204Y-100278572D01*
X144994204Y-100278572D02*
X145018014Y-100326191D01*
X145018014Y-100326191D02*
X145018014Y-100516667D01*
X142495238Y-104729847D02*
X142495238Y-105053657D01*
X142495238Y-105053657D02*
X142514285Y-105091752D01*
X142514285Y-105091752D02*
X142533333Y-105110800D01*
X142533333Y-105110800D02*
X142571428Y-105129847D01*
X142571428Y-105129847D02*
X142647619Y-105129847D01*
X142647619Y-105129847D02*
X142685714Y-105110800D01*
X142685714Y-105110800D02*
X142704761Y-105091752D01*
X142704761Y-105091752D02*
X142723809Y-105053657D01*
X142723809Y-105053657D02*
X142723809Y-104729847D01*
X143123809Y-105129847D02*
X142895238Y-105129847D01*
X143009524Y-105129847D02*
X143009524Y-104729847D01*
X143009524Y-104729847D02*
X142971428Y-104786990D01*
X142971428Y-104786990D02*
X142933333Y-104825085D01*
X142933333Y-104825085D02*
X142895238Y-104844133D01*
X139978572Y-111964204D02*
X140145239Y-111964204D01*
X140216667Y-112226109D02*
X139978572Y-112226109D01*
X139978572Y-112226109D02*
X139978572Y-111726109D01*
X139978572Y-111726109D02*
X140216667Y-111726109D01*
X140407144Y-112202300D02*
X140478572Y-112226109D01*
X140478572Y-112226109D02*
X140597620Y-112226109D01*
X140597620Y-112226109D02*
X140645239Y-112202300D01*
X140645239Y-112202300D02*
X140669048Y-112178490D01*
X140669048Y-112178490D02*
X140692858Y-112130871D01*
X140692858Y-112130871D02*
X140692858Y-112083252D01*
X140692858Y-112083252D02*
X140669048Y-112035633D01*
X140669048Y-112035633D02*
X140645239Y-112011823D01*
X140645239Y-112011823D02*
X140597620Y-111988014D01*
X140597620Y-111988014D02*
X140502382Y-111964204D01*
X140502382Y-111964204D02*
X140454763Y-111940395D01*
X140454763Y-111940395D02*
X140430953Y-111916585D01*
X140430953Y-111916585D02*
X140407144Y-111868966D01*
X140407144Y-111868966D02*
X140407144Y-111821347D01*
X140407144Y-111821347D02*
X140430953Y-111773728D01*
X140430953Y-111773728D02*
X140454763Y-111749919D01*
X140454763Y-111749919D02*
X140502382Y-111726109D01*
X140502382Y-111726109D02*
X140621429Y-111726109D01*
X140621429Y-111726109D02*
X140692858Y-111749919D01*
X140907143Y-112226109D02*
X140907143Y-111726109D01*
X140907143Y-111726109D02*
X141097619Y-111726109D01*
X141097619Y-111726109D02*
X141145238Y-111749919D01*
X141145238Y-111749919D02*
X141169048Y-111773728D01*
X141169048Y-111773728D02*
X141192857Y-111821347D01*
X141192857Y-111821347D02*
X141192857Y-111892776D01*
X141192857Y-111892776D02*
X141169048Y-111940395D01*
X141169048Y-111940395D02*
X141145238Y-111964204D01*
X141145238Y-111964204D02*
X141097619Y-111988014D01*
X141097619Y-111988014D02*
X140907143Y-111988014D01*
X141359524Y-111726109D02*
X141669048Y-111726109D01*
X141669048Y-111726109D02*
X141502381Y-111916585D01*
X141502381Y-111916585D02*
X141573810Y-111916585D01*
X141573810Y-111916585D02*
X141621429Y-111940395D01*
X141621429Y-111940395D02*
X141645238Y-111964204D01*
X141645238Y-111964204D02*
X141669048Y-112011823D01*
X141669048Y-112011823D02*
X141669048Y-112130871D01*
X141669048Y-112130871D02*
X141645238Y-112178490D01*
X141645238Y-112178490D02*
X141621429Y-112202300D01*
X141621429Y-112202300D02*
X141573810Y-112226109D01*
X141573810Y-112226109D02*
X141430953Y-112226109D01*
X141430953Y-112226109D02*
X141383334Y-112202300D01*
X141383334Y-112202300D02*
X141359524Y-112178490D01*
X141859524Y-111773728D02*
X141883333Y-111749919D01*
X141883333Y-111749919D02*
X141930952Y-111726109D01*
X141930952Y-111726109D02*
X142050000Y-111726109D01*
X142050000Y-111726109D02*
X142097619Y-111749919D01*
X142097619Y-111749919D02*
X142121428Y-111773728D01*
X142121428Y-111773728D02*
X142145238Y-111821347D01*
X142145238Y-111821347D02*
X142145238Y-111868966D01*
X142145238Y-111868966D02*
X142121428Y-111940395D01*
X142121428Y-111940395D02*
X141835714Y-112226109D01*
X141835714Y-112226109D02*
X142145238Y-112226109D01*
X142359523Y-112035633D02*
X142740476Y-112035633D01*
X143264285Y-112178490D02*
X143240476Y-112202300D01*
X143240476Y-112202300D02*
X143169047Y-112226109D01*
X143169047Y-112226109D02*
X143121428Y-112226109D01*
X143121428Y-112226109D02*
X143050000Y-112202300D01*
X143050000Y-112202300D02*
X143002381Y-112154680D01*
X143002381Y-112154680D02*
X142978571Y-112107061D01*
X142978571Y-112107061D02*
X142954762Y-112011823D01*
X142954762Y-112011823D02*
X142954762Y-111940395D01*
X142954762Y-111940395D02*
X142978571Y-111845157D01*
X142978571Y-111845157D02*
X143002381Y-111797538D01*
X143002381Y-111797538D02*
X143050000Y-111749919D01*
X143050000Y-111749919D02*
X143121428Y-111726109D01*
X143121428Y-111726109D02*
X143169047Y-111726109D01*
X143169047Y-111726109D02*
X143240476Y-111749919D01*
X143240476Y-111749919D02*
X143264285Y-111773728D01*
X143692857Y-111726109D02*
X143597619Y-111726109D01*
X143597619Y-111726109D02*
X143550000Y-111749919D01*
X143550000Y-111749919D02*
X143526190Y-111773728D01*
X143526190Y-111773728D02*
X143478571Y-111845157D01*
X143478571Y-111845157D02*
X143454762Y-111940395D01*
X143454762Y-111940395D02*
X143454762Y-112130871D01*
X143454762Y-112130871D02*
X143478571Y-112178490D01*
X143478571Y-112178490D02*
X143502381Y-112202300D01*
X143502381Y-112202300D02*
X143550000Y-112226109D01*
X143550000Y-112226109D02*
X143645238Y-112226109D01*
X143645238Y-112226109D02*
X143692857Y-112202300D01*
X143692857Y-112202300D02*
X143716666Y-112178490D01*
X143716666Y-112178490D02*
X143740476Y-112130871D01*
X143740476Y-112130871D02*
X143740476Y-112011823D01*
X143740476Y-112011823D02*
X143716666Y-111964204D01*
X143716666Y-111964204D02*
X143692857Y-111940395D01*
X143692857Y-111940395D02*
X143645238Y-111916585D01*
X143645238Y-111916585D02*
X143550000Y-111916585D01*
X143550000Y-111916585D02*
X143502381Y-111940395D01*
X143502381Y-111940395D02*
X143478571Y-111964204D01*
X143478571Y-111964204D02*
X143454762Y-112011823D01*
X144216666Y-112226109D02*
X143930952Y-112226109D01*
X144073809Y-112226109D02*
X144073809Y-111726109D01*
X144073809Y-111726109D02*
X144026190Y-111797538D01*
X144026190Y-111797538D02*
X143978571Y-111845157D01*
X143978571Y-111845157D02*
X143930952Y-111868966D01*
X144430951Y-112226109D02*
X144430951Y-111726109D01*
X144430951Y-111964204D02*
X144716665Y-111964204D01*
X144716665Y-112226109D02*
X144716665Y-111726109D01*
X145121428Y-111964204D02*
X144954761Y-111964204D01*
X144954761Y-112226109D02*
X144954761Y-111726109D01*
X144954761Y-111726109D02*
X145192856Y-111726109D01*
X145597618Y-111892776D02*
X145597618Y-112226109D01*
X145478570Y-111702300D02*
X145359523Y-112059442D01*
X145359523Y-112059442D02*
X145669046Y-112059442D01*
D13*
X134616666Y-117074809D02*
X134450000Y-116836714D01*
X134330952Y-117074809D02*
X134330952Y-116574809D01*
X134330952Y-116574809D02*
X134521428Y-116574809D01*
X134521428Y-116574809D02*
X134569047Y-116598619D01*
X134569047Y-116598619D02*
X134592857Y-116622428D01*
X134592857Y-116622428D02*
X134616666Y-116670047D01*
X134616666Y-116670047D02*
X134616666Y-116741476D01*
X134616666Y-116741476D02*
X134592857Y-116789095D01*
X134592857Y-116789095D02*
X134569047Y-116812904D01*
X134569047Y-116812904D02*
X134521428Y-116836714D01*
X134521428Y-116836714D02*
X134330952Y-116836714D01*
X135092857Y-117074809D02*
X134807143Y-117074809D01*
X134950000Y-117074809D02*
X134950000Y-116574809D01*
X134950000Y-116574809D02*
X134902381Y-116646238D01*
X134902381Y-116646238D02*
X134854762Y-116693857D01*
X134854762Y-116693857D02*
X134807143Y-116717666D01*
D10*
X136142857Y-115626109D02*
X135904762Y-115626109D01*
X135904762Y-115626109D02*
X135880953Y-115864204D01*
X135880953Y-115864204D02*
X135904762Y-115840395D01*
X135904762Y-115840395D02*
X135952381Y-115816585D01*
X135952381Y-115816585D02*
X136071429Y-115816585D01*
X136071429Y-115816585D02*
X136119048Y-115840395D01*
X136119048Y-115840395D02*
X136142857Y-115864204D01*
X136142857Y-115864204D02*
X136166667Y-115911823D01*
X136166667Y-115911823D02*
X136166667Y-116030871D01*
X136166667Y-116030871D02*
X136142857Y-116078490D01*
X136142857Y-116078490D02*
X136119048Y-116102300D01*
X136119048Y-116102300D02*
X136071429Y-116126109D01*
X136071429Y-116126109D02*
X135952381Y-116126109D01*
X135952381Y-116126109D02*
X135904762Y-116102300D01*
X135904762Y-116102300D02*
X135880953Y-116078490D01*
X136642857Y-116126109D02*
X136357143Y-116126109D01*
X136500000Y-116126109D02*
X136500000Y-115626109D01*
X136500000Y-115626109D02*
X136452381Y-115697538D01*
X136452381Y-115697538D02*
X136404762Y-115745157D01*
X136404762Y-115745157D02*
X136357143Y-115768966D01*
X137119047Y-116126109D02*
X136833333Y-116126109D01*
X136976190Y-116126109D02*
X136976190Y-115626109D01*
X136976190Y-115626109D02*
X136928571Y-115697538D01*
X136928571Y-115697538D02*
X136880952Y-115745157D01*
X136880952Y-115745157D02*
X136833333Y-115768966D01*
X137619046Y-116126109D02*
X137452380Y-115888014D01*
X137333332Y-116126109D02*
X137333332Y-115626109D01*
X137333332Y-115626109D02*
X137523808Y-115626109D01*
X137523808Y-115626109D02*
X137571427Y-115649919D01*
X137571427Y-115649919D02*
X137595237Y-115673728D01*
X137595237Y-115673728D02*
X137619046Y-115721347D01*
X137619046Y-115721347D02*
X137619046Y-115792776D01*
X137619046Y-115792776D02*
X137595237Y-115840395D01*
X137595237Y-115840395D02*
X137571427Y-115864204D01*
X137571427Y-115864204D02*
X137523808Y-115888014D01*
X137523808Y-115888014D02*
X137333332Y-115888014D01*
X147564939Y-96046364D02*
X147583987Y-96065412D01*
X147583987Y-96065412D02*
X147603034Y-96122554D01*
X147603034Y-96122554D02*
X147603034Y-96160650D01*
X147603034Y-96160650D02*
X147583987Y-96217793D01*
X147583987Y-96217793D02*
X147545891Y-96255888D01*
X147545891Y-96255888D02*
X147507796Y-96274935D01*
X147507796Y-96274935D02*
X147431606Y-96293983D01*
X147431606Y-96293983D02*
X147374463Y-96293983D01*
X147374463Y-96293983D02*
X147298272Y-96274935D01*
X147298272Y-96274935D02*
X147260177Y-96255888D01*
X147260177Y-96255888D02*
X147222082Y-96217793D01*
X147222082Y-96217793D02*
X147203034Y-96160650D01*
X147203034Y-96160650D02*
X147203034Y-96122554D01*
X147203034Y-96122554D02*
X147222082Y-96065412D01*
X147222082Y-96065412D02*
X147241129Y-96046364D01*
X147241129Y-95893983D02*
X147222082Y-95874935D01*
X147222082Y-95874935D02*
X147203034Y-95836840D01*
X147203034Y-95836840D02*
X147203034Y-95741602D01*
X147203034Y-95741602D02*
X147222082Y-95703507D01*
X147222082Y-95703507D02*
X147241129Y-95684459D01*
X147241129Y-95684459D02*
X147279225Y-95665412D01*
X147279225Y-95665412D02*
X147317320Y-95665412D01*
X147317320Y-95665412D02*
X147374463Y-95684459D01*
X147374463Y-95684459D02*
X147603034Y-95913031D01*
X147603034Y-95913031D02*
X147603034Y-95665412D01*
X145674936Y-96792196D02*
X145651127Y-96768387D01*
X145651127Y-96768387D02*
X145627317Y-96720768D01*
X145627317Y-96720768D02*
X145627317Y-96601720D01*
X145627317Y-96601720D02*
X145651127Y-96554101D01*
X145651127Y-96554101D02*
X145674936Y-96530292D01*
X145674936Y-96530292D02*
X145722555Y-96506482D01*
X145722555Y-96506482D02*
X145770174Y-96506482D01*
X145770174Y-96506482D02*
X145841603Y-96530292D01*
X145841603Y-96530292D02*
X146127317Y-96816006D01*
X146127317Y-96816006D02*
X146127317Y-96506482D01*
X145674936Y-96316006D02*
X145651127Y-96292197D01*
X145651127Y-96292197D02*
X145627317Y-96244578D01*
X145627317Y-96244578D02*
X145627317Y-96125530D01*
X145627317Y-96125530D02*
X145651127Y-96077911D01*
X145651127Y-96077911D02*
X145674936Y-96054102D01*
X145674936Y-96054102D02*
X145722555Y-96030292D01*
X145722555Y-96030292D02*
X145770174Y-96030292D01*
X145770174Y-96030292D02*
X145841603Y-96054102D01*
X145841603Y-96054102D02*
X146127317Y-96339816D01*
X146127317Y-96339816D02*
X146127317Y-96030292D01*
X145793984Y-95816007D02*
X146127317Y-95816007D01*
X145841603Y-95816007D02*
X145817793Y-95792197D01*
X145817793Y-95792197D02*
X145793984Y-95744578D01*
X145793984Y-95744578D02*
X145793984Y-95673150D01*
X145793984Y-95673150D02*
X145817793Y-95625531D01*
X145817793Y-95625531D02*
X145865412Y-95601721D01*
X145865412Y-95601721D02*
X146127317Y-95601721D01*
X145865412Y-95196959D02*
X145865412Y-95363626D01*
X146127317Y-95363626D02*
X145627317Y-95363626D01*
X145627317Y-95363626D02*
X145627317Y-95125531D01*
D12*
X141035385Y-121725057D02*
X141083004Y-121677438D01*
X141083004Y-121677438D02*
X141178242Y-121629819D01*
X141178242Y-121629819D02*
X141416337Y-121629819D01*
X141416337Y-121629819D02*
X141511575Y-121677438D01*
X141511575Y-121677438D02*
X141559194Y-121725057D01*
X141559194Y-121725057D02*
X141606813Y-121820295D01*
X141606813Y-121820295D02*
X141606813Y-121915533D01*
X141606813Y-121915533D02*
X141559194Y-122058390D01*
X141559194Y-122058390D02*
X140987766Y-122629819D01*
X140987766Y-122629819D02*
X141606813Y-122629819D01*
X142035385Y-122534580D02*
X142083004Y-122582200D01*
X142083004Y-122582200D02*
X142035385Y-122629819D01*
X142035385Y-122629819D02*
X141987766Y-122582200D01*
X141987766Y-122582200D02*
X142035385Y-122534580D01*
X142035385Y-122534580D02*
X142035385Y-122629819D01*
X142940146Y-121963152D02*
X142940146Y-122629819D01*
X142702051Y-121582200D02*
X142463956Y-122296485D01*
X142463956Y-122296485D02*
X143083003Y-122296485D01*
X143987765Y-121677438D02*
X143892527Y-121629819D01*
X143892527Y-121629819D02*
X143749670Y-121629819D01*
X143749670Y-121629819D02*
X143606813Y-121677438D01*
X143606813Y-121677438D02*
X143511575Y-121772676D01*
X143511575Y-121772676D02*
X143463956Y-121867914D01*
X143463956Y-121867914D02*
X143416337Y-122058390D01*
X143416337Y-122058390D02*
X143416337Y-122201247D01*
X143416337Y-122201247D02*
X143463956Y-122391723D01*
X143463956Y-122391723D02*
X143511575Y-122486961D01*
X143511575Y-122486961D02*
X143606813Y-122582200D01*
X143606813Y-122582200D02*
X143749670Y-122629819D01*
X143749670Y-122629819D02*
X143844908Y-122629819D01*
X143844908Y-122629819D02*
X143987765Y-122582200D01*
X143987765Y-122582200D02*
X144035384Y-122534580D01*
X144035384Y-122534580D02*
X144035384Y-122201247D01*
X144035384Y-122201247D02*
X143844908Y-122201247D01*
X144463956Y-122629819D02*
X144463956Y-121629819D01*
X144463956Y-122106009D02*
X145035384Y-122106009D01*
X145035384Y-122629819D02*
X145035384Y-121629819D01*
X145416337Y-121963152D02*
X145940146Y-121963152D01*
X145940146Y-121963152D02*
X145416337Y-122629819D01*
X145416337Y-122629819D02*
X145940146Y-122629819D01*
D10*
X141609847Y-100891666D02*
X141609847Y-101082142D01*
X141609847Y-101082142D02*
X141209847Y-101082142D01*
X141609847Y-100548809D02*
X141609847Y-100777380D01*
X141609847Y-100663094D02*
X141209847Y-100663094D01*
X141209847Y-100663094D02*
X141266990Y-100701190D01*
X141266990Y-100701190D02*
X141305085Y-100739285D01*
X141305085Y-100739285D02*
X141324133Y-100777380D01*
X140043728Y-101694046D02*
X140019919Y-101670237D01*
X140019919Y-101670237D02*
X139996109Y-101622618D01*
X139996109Y-101622618D02*
X139996109Y-101503570D01*
X139996109Y-101503570D02*
X140019919Y-101455951D01*
X140019919Y-101455951D02*
X140043728Y-101432142D01*
X140043728Y-101432142D02*
X140091347Y-101408332D01*
X140091347Y-101408332D02*
X140138966Y-101408332D01*
X140138966Y-101408332D02*
X140210395Y-101432142D01*
X140210395Y-101432142D02*
X140496109Y-101717856D01*
X140496109Y-101717856D02*
X140496109Y-101408332D01*
X140162776Y-100979761D02*
X140496109Y-100979761D01*
X139972300Y-101098809D02*
X140329442Y-101217856D01*
X140329442Y-101217856D02*
X140329442Y-100908333D01*
X140162776Y-100717857D02*
X140496109Y-100717857D01*
X140210395Y-100717857D02*
X140186585Y-100694047D01*
X140186585Y-100694047D02*
X140162776Y-100646428D01*
X140162776Y-100646428D02*
X140162776Y-100575000D01*
X140162776Y-100575000D02*
X140186585Y-100527381D01*
X140186585Y-100527381D02*
X140234204Y-100503571D01*
X140234204Y-100503571D02*
X140496109Y-100503571D01*
X140496109Y-100265476D02*
X139996109Y-100265476D01*
X140234204Y-100265476D02*
X140234204Y-99979762D01*
X140496109Y-99979762D02*
X139996109Y-99979762D01*
X136078571Y-109758489D02*
X136054762Y-109782299D01*
X136054762Y-109782299D02*
X135983333Y-109806108D01*
X135983333Y-109806108D02*
X135935714Y-109806108D01*
X135935714Y-109806108D02*
X135864286Y-109782299D01*
X135864286Y-109782299D02*
X135816667Y-109734679D01*
X135816667Y-109734679D02*
X135792857Y-109687060D01*
X135792857Y-109687060D02*
X135769048Y-109591822D01*
X135769048Y-109591822D02*
X135769048Y-109520394D01*
X135769048Y-109520394D02*
X135792857Y-109425156D01*
X135792857Y-109425156D02*
X135816667Y-109377537D01*
X135816667Y-109377537D02*
X135864286Y-109329918D01*
X135864286Y-109329918D02*
X135935714Y-109306108D01*
X135935714Y-109306108D02*
X135983333Y-109306108D01*
X135983333Y-109306108D02*
X136054762Y-109329918D01*
X136054762Y-109329918D02*
X136078571Y-109353727D01*
X136554762Y-109806108D02*
X136269048Y-109806108D01*
X136411905Y-109806108D02*
X136411905Y-109306108D01*
X136411905Y-109306108D02*
X136364286Y-109377537D01*
X136364286Y-109377537D02*
X136316667Y-109425156D01*
X136316667Y-109425156D02*
X136269048Y-109448965D01*
X136864285Y-109306108D02*
X136911904Y-109306108D01*
X136911904Y-109306108D02*
X136959523Y-109329918D01*
X136959523Y-109329918D02*
X136983333Y-109353727D01*
X136983333Y-109353727D02*
X137007142Y-109401346D01*
X137007142Y-109401346D02*
X137030952Y-109496584D01*
X137030952Y-109496584D02*
X137030952Y-109615632D01*
X137030952Y-109615632D02*
X137007142Y-109710870D01*
X137007142Y-109710870D02*
X136983333Y-109758489D01*
X136983333Y-109758489D02*
X136959523Y-109782299D01*
X136959523Y-109782299D02*
X136911904Y-109806108D01*
X136911904Y-109806108D02*
X136864285Y-109806108D01*
X136864285Y-109806108D02*
X136816666Y-109782299D01*
X136816666Y-109782299D02*
X136792857Y-109758489D01*
X136792857Y-109758489D02*
X136769047Y-109710870D01*
X136769047Y-109710870D02*
X136745238Y-109615632D01*
X136745238Y-109615632D02*
X136745238Y-109496584D01*
X136745238Y-109496584D02*
X136769047Y-109401346D01*
X136769047Y-109401346D02*
X136792857Y-109353727D01*
X136792857Y-109353727D02*
X136816666Y-109329918D01*
X136816666Y-109329918D02*
X136864285Y-109306108D01*
X133964462Y-109928021D02*
X133964462Y-109889926D01*
X133964462Y-109889926D02*
X133983510Y-109851830D01*
X133983510Y-109851830D02*
X134002557Y-109832783D01*
X134002557Y-109832783D02*
X134040653Y-109813735D01*
X134040653Y-109813735D02*
X134116843Y-109794688D01*
X134116843Y-109794688D02*
X134212081Y-109794688D01*
X134212081Y-109794688D02*
X134288272Y-109813735D01*
X134288272Y-109813735D02*
X134326367Y-109832783D01*
X134326367Y-109832783D02*
X134345415Y-109851830D01*
X134345415Y-109851830D02*
X134364462Y-109889926D01*
X134364462Y-109889926D02*
X134364462Y-109928021D01*
X134364462Y-109928021D02*
X134345415Y-109966116D01*
X134345415Y-109966116D02*
X134326367Y-109985164D01*
X134326367Y-109985164D02*
X134288272Y-110004211D01*
X134288272Y-110004211D02*
X134212081Y-110023259D01*
X134212081Y-110023259D02*
X134116843Y-110023259D01*
X134116843Y-110023259D02*
X134040653Y-110004211D01*
X134040653Y-110004211D02*
X134002557Y-109985164D01*
X134002557Y-109985164D02*
X133983510Y-109966116D01*
X133983510Y-109966116D02*
X133964462Y-109928021D01*
X134326367Y-109623259D02*
X134345415Y-109604212D01*
X134345415Y-109604212D02*
X134364462Y-109623259D01*
X134364462Y-109623259D02*
X134345415Y-109642307D01*
X134345415Y-109642307D02*
X134326367Y-109623259D01*
X134326367Y-109623259D02*
X134364462Y-109623259D01*
X134364462Y-109223260D02*
X134364462Y-109451831D01*
X134364462Y-109337545D02*
X133964462Y-109337545D01*
X133964462Y-109337545D02*
X134021605Y-109375641D01*
X134021605Y-109375641D02*
X134059700Y-109413736D01*
X134059700Y-109413736D02*
X134078748Y-109451831D01*
X134097795Y-108880403D02*
X134364462Y-108880403D01*
X134097795Y-109051831D02*
X134307319Y-109051831D01*
X134307319Y-109051831D02*
X134345415Y-109032784D01*
X134345415Y-109032784D02*
X134364462Y-108994689D01*
X134364462Y-108994689D02*
X134364462Y-108937546D01*
X134364462Y-108937546D02*
X134345415Y-108899450D01*
X134345415Y-108899450D02*
X134326367Y-108880403D01*
X134154938Y-108556593D02*
X134154938Y-108689926D01*
X134364462Y-108689926D02*
X133964462Y-108689926D01*
X133964462Y-108689926D02*
X133964462Y-108499450D01*
X137820543Y-96066666D02*
X137839591Y-96085714D01*
X137839591Y-96085714D02*
X137858638Y-96142856D01*
X137858638Y-96142856D02*
X137858638Y-96180952D01*
X137858638Y-96180952D02*
X137839591Y-96238095D01*
X137839591Y-96238095D02*
X137801495Y-96276190D01*
X137801495Y-96276190D02*
X137763400Y-96295237D01*
X137763400Y-96295237D02*
X137687210Y-96314285D01*
X137687210Y-96314285D02*
X137630067Y-96314285D01*
X137630067Y-96314285D02*
X137553876Y-96295237D01*
X137553876Y-96295237D02*
X137515781Y-96276190D01*
X137515781Y-96276190D02*
X137477686Y-96238095D01*
X137477686Y-96238095D02*
X137458638Y-96180952D01*
X137458638Y-96180952D02*
X137458638Y-96142856D01*
X137458638Y-96142856D02*
X137477686Y-96085714D01*
X137477686Y-96085714D02*
X137496733Y-96066666D01*
X137858638Y-95685714D02*
X137858638Y-95914285D01*
X137858638Y-95799999D02*
X137458638Y-95799999D01*
X137458638Y-95799999D02*
X137515781Y-95838095D01*
X137515781Y-95838095D02*
X137553876Y-95876190D01*
X137553876Y-95876190D02*
X137572924Y-95914285D01*
X135943728Y-96821427D02*
X135919919Y-96797618D01*
X135919919Y-96797618D02*
X135896109Y-96749999D01*
X135896109Y-96749999D02*
X135896109Y-96630951D01*
X135896109Y-96630951D02*
X135919919Y-96583332D01*
X135919919Y-96583332D02*
X135943728Y-96559523D01*
X135943728Y-96559523D02*
X135991347Y-96535713D01*
X135991347Y-96535713D02*
X136038966Y-96535713D01*
X136038966Y-96535713D02*
X136110395Y-96559523D01*
X136110395Y-96559523D02*
X136396109Y-96845237D01*
X136396109Y-96845237D02*
X136396109Y-96535713D01*
X135943728Y-96345237D02*
X135919919Y-96321428D01*
X135919919Y-96321428D02*
X135896109Y-96273809D01*
X135896109Y-96273809D02*
X135896109Y-96154761D01*
X135896109Y-96154761D02*
X135919919Y-96107142D01*
X135919919Y-96107142D02*
X135943728Y-96083333D01*
X135943728Y-96083333D02*
X135991347Y-96059523D01*
X135991347Y-96059523D02*
X136038966Y-96059523D01*
X136038966Y-96059523D02*
X136110395Y-96083333D01*
X136110395Y-96083333D02*
X136396109Y-96369047D01*
X136396109Y-96369047D02*
X136396109Y-96059523D01*
X136062776Y-95845238D02*
X136396109Y-95845238D01*
X136110395Y-95845238D02*
X136086585Y-95821428D01*
X136086585Y-95821428D02*
X136062776Y-95773809D01*
X136062776Y-95773809D02*
X136062776Y-95702381D01*
X136062776Y-95702381D02*
X136086585Y-95654762D01*
X136086585Y-95654762D02*
X136134204Y-95630952D01*
X136134204Y-95630952D02*
X136396109Y-95630952D01*
X136134204Y-95226190D02*
X136134204Y-95392857D01*
X136396109Y-95392857D02*
X135896109Y-95392857D01*
X135896109Y-95392857D02*
X135896109Y-95154762D01*
D13*
X134516666Y-119174809D02*
X134350000Y-118936714D01*
X134230952Y-119174809D02*
X134230952Y-118674809D01*
X134230952Y-118674809D02*
X134421428Y-118674809D01*
X134421428Y-118674809D02*
X134469047Y-118698619D01*
X134469047Y-118698619D02*
X134492857Y-118722428D01*
X134492857Y-118722428D02*
X134516666Y-118770047D01*
X134516666Y-118770047D02*
X134516666Y-118841476D01*
X134516666Y-118841476D02*
X134492857Y-118889095D01*
X134492857Y-118889095D02*
X134469047Y-118912904D01*
X134469047Y-118912904D02*
X134421428Y-118936714D01*
X134421428Y-118936714D02*
X134230952Y-118936714D01*
X134707143Y-118722428D02*
X134730952Y-118698619D01*
X134730952Y-118698619D02*
X134778571Y-118674809D01*
X134778571Y-118674809D02*
X134897619Y-118674809D01*
X134897619Y-118674809D02*
X134945238Y-118698619D01*
X134945238Y-118698619D02*
X134969047Y-118722428D01*
X134969047Y-118722428D02*
X134992857Y-118770047D01*
X134992857Y-118770047D02*
X134992857Y-118817666D01*
X134992857Y-118817666D02*
X134969047Y-118889095D01*
X134969047Y-118889095D02*
X134683333Y-119174809D01*
X134683333Y-119174809D02*
X134992857Y-119174809D01*
D10*
X136238095Y-120109847D02*
X136009524Y-120109847D01*
X136123810Y-120109847D02*
X136123810Y-119709847D01*
X136123810Y-119709847D02*
X136085714Y-119766990D01*
X136085714Y-119766990D02*
X136047619Y-119805085D01*
X136047619Y-119805085D02*
X136009524Y-119824133D01*
X136580952Y-119709847D02*
X136504762Y-119709847D01*
X136504762Y-119709847D02*
X136466666Y-119728895D01*
X136466666Y-119728895D02*
X136447619Y-119747942D01*
X136447619Y-119747942D02*
X136409524Y-119805085D01*
X136409524Y-119805085D02*
X136390476Y-119881276D01*
X136390476Y-119881276D02*
X136390476Y-120033657D01*
X136390476Y-120033657D02*
X136409524Y-120071752D01*
X136409524Y-120071752D02*
X136428571Y-120090800D01*
X136428571Y-120090800D02*
X136466666Y-120109847D01*
X136466666Y-120109847D02*
X136542857Y-120109847D01*
X136542857Y-120109847D02*
X136580952Y-120090800D01*
X136580952Y-120090800D02*
X136600000Y-120071752D01*
X136600000Y-120071752D02*
X136619047Y-120033657D01*
X136619047Y-120033657D02*
X136619047Y-119938419D01*
X136619047Y-119938419D02*
X136600000Y-119900323D01*
X136600000Y-119900323D02*
X136580952Y-119881276D01*
X136580952Y-119881276D02*
X136542857Y-119862228D01*
X136542857Y-119862228D02*
X136466666Y-119862228D01*
X136466666Y-119862228D02*
X136428571Y-119881276D01*
X136428571Y-119881276D02*
X136409524Y-119900323D01*
X136409524Y-119900323D02*
X136390476Y-119938419D01*
X136790476Y-120071752D02*
X136809523Y-120090800D01*
X136809523Y-120090800D02*
X136790476Y-120109847D01*
X136790476Y-120109847D02*
X136771428Y-120090800D01*
X136771428Y-120090800D02*
X136790476Y-120071752D01*
X136790476Y-120071752D02*
X136790476Y-120109847D01*
X136961904Y-119747942D02*
X136980952Y-119728895D01*
X136980952Y-119728895D02*
X137019047Y-119709847D01*
X137019047Y-119709847D02*
X137114285Y-119709847D01*
X137114285Y-119709847D02*
X137152380Y-119728895D01*
X137152380Y-119728895D02*
X137171428Y-119747942D01*
X137171428Y-119747942D02*
X137190475Y-119786038D01*
X137190475Y-119786038D02*
X137190475Y-119824133D01*
X137190475Y-119824133D02*
X137171428Y-119881276D01*
X137171428Y-119881276D02*
X136942856Y-120109847D01*
X136942856Y-120109847D02*
X137190475Y-120109847D01*
X137361904Y-120109847D02*
X137361904Y-119709847D01*
X137590475Y-120109847D02*
X137419046Y-119881276D01*
X137590475Y-119709847D02*
X137361904Y-119938419D01*
X142209524Y-92789371D02*
X142209524Y-92979847D01*
X142076191Y-92579847D02*
X142209524Y-92789371D01*
X142209524Y-92789371D02*
X142342857Y-92579847D01*
X142685714Y-92979847D02*
X142457143Y-92979847D01*
X142571429Y-92979847D02*
X142571429Y-92579847D01*
X142571429Y-92579847D02*
X142533333Y-92636990D01*
X142533333Y-92636990D02*
X142495238Y-92675085D01*
X142495238Y-92675085D02*
X142457143Y-92694133D01*
X140552380Y-98641752D02*
X140533332Y-98660800D01*
X140533332Y-98660800D02*
X140476190Y-98679847D01*
X140476190Y-98679847D02*
X140438094Y-98679847D01*
X140438094Y-98679847D02*
X140380951Y-98660800D01*
X140380951Y-98660800D02*
X140342856Y-98622704D01*
X140342856Y-98622704D02*
X140323809Y-98584609D01*
X140323809Y-98584609D02*
X140304761Y-98508419D01*
X140304761Y-98508419D02*
X140304761Y-98451276D01*
X140304761Y-98451276D02*
X140323809Y-98375085D01*
X140323809Y-98375085D02*
X140342856Y-98336990D01*
X140342856Y-98336990D02*
X140380951Y-98298895D01*
X140380951Y-98298895D02*
X140438094Y-98279847D01*
X140438094Y-98279847D02*
X140476190Y-98279847D01*
X140476190Y-98279847D02*
X140533332Y-98298895D01*
X140533332Y-98298895D02*
X140552380Y-98317942D01*
X140723809Y-98679847D02*
X140723809Y-98413180D01*
X140723809Y-98489371D02*
X140742856Y-98451276D01*
X140742856Y-98451276D02*
X140761904Y-98432228D01*
X140761904Y-98432228D02*
X140799999Y-98413180D01*
X140799999Y-98413180D02*
X140838094Y-98413180D01*
X140933332Y-98413180D02*
X141028570Y-98679847D01*
X141123809Y-98413180D02*
X141028570Y-98679847D01*
X141028570Y-98679847D02*
X140990475Y-98775085D01*
X140990475Y-98775085D02*
X140971428Y-98794133D01*
X140971428Y-98794133D02*
X140933332Y-98813180D01*
X141257142Y-98660800D02*
X141295237Y-98679847D01*
X141295237Y-98679847D02*
X141371428Y-98679847D01*
X141371428Y-98679847D02*
X141409523Y-98660800D01*
X141409523Y-98660800D02*
X141428571Y-98622704D01*
X141428571Y-98622704D02*
X141428571Y-98603657D01*
X141428571Y-98603657D02*
X141409523Y-98565561D01*
X141409523Y-98565561D02*
X141371428Y-98546514D01*
X141371428Y-98546514D02*
X141314285Y-98546514D01*
X141314285Y-98546514D02*
X141276190Y-98527466D01*
X141276190Y-98527466D02*
X141257142Y-98489371D01*
X141257142Y-98489371D02*
X141257142Y-98470323D01*
X141257142Y-98470323D02*
X141276190Y-98432228D01*
X141276190Y-98432228D02*
X141314285Y-98413180D01*
X141314285Y-98413180D02*
X141371428Y-98413180D01*
X141371428Y-98413180D02*
X141409523Y-98432228D01*
X141542857Y-98413180D02*
X141695238Y-98413180D01*
X141600000Y-98279847D02*
X141600000Y-98622704D01*
X141600000Y-98622704D02*
X141619047Y-98660800D01*
X141619047Y-98660800D02*
X141657142Y-98679847D01*
X141657142Y-98679847D02*
X141695238Y-98679847D01*
X141999999Y-98679847D02*
X141999999Y-98470323D01*
X141999999Y-98470323D02*
X141980952Y-98432228D01*
X141980952Y-98432228D02*
X141942856Y-98413180D01*
X141942856Y-98413180D02*
X141866666Y-98413180D01*
X141866666Y-98413180D02*
X141828571Y-98432228D01*
X141999999Y-98660800D02*
X141961904Y-98679847D01*
X141961904Y-98679847D02*
X141866666Y-98679847D01*
X141866666Y-98679847D02*
X141828571Y-98660800D01*
X141828571Y-98660800D02*
X141809523Y-98622704D01*
X141809523Y-98622704D02*
X141809523Y-98584609D01*
X141809523Y-98584609D02*
X141828571Y-98546514D01*
X141828571Y-98546514D02*
X141866666Y-98527466D01*
X141866666Y-98527466D02*
X141961904Y-98527466D01*
X141961904Y-98527466D02*
X141999999Y-98508419D01*
X142247618Y-98679847D02*
X142209523Y-98660800D01*
X142209523Y-98660800D02*
X142190476Y-98622704D01*
X142190476Y-98622704D02*
X142190476Y-98279847D01*
X142876190Y-98413180D02*
X142876190Y-98679847D01*
X142780952Y-98260800D02*
X142685714Y-98546514D01*
X142685714Y-98546514D02*
X142933333Y-98546514D01*
X143161904Y-98279847D02*
X143199999Y-98279847D01*
X143199999Y-98279847D02*
X143238095Y-98298895D01*
X143238095Y-98298895D02*
X143257142Y-98317942D01*
X143257142Y-98317942D02*
X143276190Y-98356038D01*
X143276190Y-98356038D02*
X143295237Y-98432228D01*
X143295237Y-98432228D02*
X143295237Y-98527466D01*
X143295237Y-98527466D02*
X143276190Y-98603657D01*
X143276190Y-98603657D02*
X143257142Y-98641752D01*
X143257142Y-98641752D02*
X143238095Y-98660800D01*
X143238095Y-98660800D02*
X143199999Y-98679847D01*
X143199999Y-98679847D02*
X143161904Y-98679847D01*
X143161904Y-98679847D02*
X143123809Y-98660800D01*
X143123809Y-98660800D02*
X143104761Y-98641752D01*
X143104761Y-98641752D02*
X143085714Y-98603657D01*
X143085714Y-98603657D02*
X143066666Y-98527466D01*
X143066666Y-98527466D02*
X143066666Y-98432228D01*
X143066666Y-98432228D02*
X143085714Y-98356038D01*
X143085714Y-98356038D02*
X143104761Y-98317942D01*
X143104761Y-98317942D02*
X143123809Y-98298895D01*
X143123809Y-98298895D02*
X143161904Y-98279847D01*
X143466666Y-98679847D02*
X143466666Y-98279847D01*
X143466666Y-98279847D02*
X143599999Y-98565561D01*
X143599999Y-98565561D02*
X143733332Y-98279847D01*
X143733332Y-98279847D02*
X143733332Y-98679847D01*
X143923809Y-98679847D02*
X143923809Y-98279847D01*
X143923809Y-98470323D02*
X144152380Y-98470323D01*
X144152380Y-98679847D02*
X144152380Y-98279847D01*
X144304761Y-98413180D02*
X144514285Y-98413180D01*
X144514285Y-98413180D02*
X144304761Y-98679847D01*
X144304761Y-98679847D02*
X144514285Y-98679847D01*
X142519047Y-115426109D02*
X142519047Y-115830871D01*
X142519047Y-115830871D02*
X142542857Y-115878490D01*
X142542857Y-115878490D02*
X142566666Y-115902300D01*
X142566666Y-115902300D02*
X142614285Y-115926109D01*
X142614285Y-115926109D02*
X142709523Y-115926109D01*
X142709523Y-115926109D02*
X142757142Y-115902300D01*
X142757142Y-115902300D02*
X142780952Y-115878490D01*
X142780952Y-115878490D02*
X142804761Y-115830871D01*
X142804761Y-115830871D02*
X142804761Y-115426109D01*
X143019048Y-115473728D02*
X143042857Y-115449919D01*
X143042857Y-115449919D02*
X143090476Y-115426109D01*
X143090476Y-115426109D02*
X143209524Y-115426109D01*
X143209524Y-115426109D02*
X143257143Y-115449919D01*
X143257143Y-115449919D02*
X143280952Y-115473728D01*
X143280952Y-115473728D02*
X143304762Y-115521347D01*
X143304762Y-115521347D02*
X143304762Y-115568966D01*
X143304762Y-115568966D02*
X143280952Y-115640395D01*
X143280952Y-115640395D02*
X142995238Y-115926109D01*
X142995238Y-115926109D02*
X143304762Y-115926109D01*
X140652382Y-119229847D02*
X140880953Y-119229847D01*
X140766667Y-119629847D02*
X140766667Y-119229847D01*
X141014287Y-119629847D02*
X141014287Y-119229847D01*
X141014287Y-119229847D02*
X141166668Y-119229847D01*
X141166668Y-119229847D02*
X141204763Y-119248895D01*
X141204763Y-119248895D02*
X141223810Y-119267942D01*
X141223810Y-119267942D02*
X141242858Y-119306038D01*
X141242858Y-119306038D02*
X141242858Y-119363180D01*
X141242858Y-119363180D02*
X141223810Y-119401276D01*
X141223810Y-119401276D02*
X141204763Y-119420323D01*
X141204763Y-119420323D02*
X141166668Y-119439371D01*
X141166668Y-119439371D02*
X141014287Y-119439371D01*
X141395239Y-119610800D02*
X141452382Y-119629847D01*
X141452382Y-119629847D02*
X141547620Y-119629847D01*
X141547620Y-119629847D02*
X141585715Y-119610800D01*
X141585715Y-119610800D02*
X141604763Y-119591752D01*
X141604763Y-119591752D02*
X141623810Y-119553657D01*
X141623810Y-119553657D02*
X141623810Y-119515561D01*
X141623810Y-119515561D02*
X141604763Y-119477466D01*
X141604763Y-119477466D02*
X141585715Y-119458419D01*
X141585715Y-119458419D02*
X141547620Y-119439371D01*
X141547620Y-119439371D02*
X141471429Y-119420323D01*
X141471429Y-119420323D02*
X141433334Y-119401276D01*
X141433334Y-119401276D02*
X141414287Y-119382228D01*
X141414287Y-119382228D02*
X141395239Y-119344133D01*
X141395239Y-119344133D02*
X141395239Y-119306038D01*
X141395239Y-119306038D02*
X141414287Y-119267942D01*
X141414287Y-119267942D02*
X141433334Y-119248895D01*
X141433334Y-119248895D02*
X141471429Y-119229847D01*
X141471429Y-119229847D02*
X141566668Y-119229847D01*
X141566668Y-119229847D02*
X141623810Y-119248895D01*
X141966667Y-119229847D02*
X141890477Y-119229847D01*
X141890477Y-119229847D02*
X141852381Y-119248895D01*
X141852381Y-119248895D02*
X141833334Y-119267942D01*
X141833334Y-119267942D02*
X141795239Y-119325085D01*
X141795239Y-119325085D02*
X141776191Y-119401276D01*
X141776191Y-119401276D02*
X141776191Y-119553657D01*
X141776191Y-119553657D02*
X141795239Y-119591752D01*
X141795239Y-119591752D02*
X141814286Y-119610800D01*
X141814286Y-119610800D02*
X141852381Y-119629847D01*
X141852381Y-119629847D02*
X141928572Y-119629847D01*
X141928572Y-119629847D02*
X141966667Y-119610800D01*
X141966667Y-119610800D02*
X141985715Y-119591752D01*
X141985715Y-119591752D02*
X142004762Y-119553657D01*
X142004762Y-119553657D02*
X142004762Y-119458419D01*
X142004762Y-119458419D02*
X141985715Y-119420323D01*
X141985715Y-119420323D02*
X141966667Y-119401276D01*
X141966667Y-119401276D02*
X141928572Y-119382228D01*
X141928572Y-119382228D02*
X141852381Y-119382228D01*
X141852381Y-119382228D02*
X141814286Y-119401276D01*
X141814286Y-119401276D02*
X141795239Y-119420323D01*
X141795239Y-119420323D02*
X141776191Y-119458419D01*
X142138095Y-119229847D02*
X142385714Y-119229847D01*
X142385714Y-119229847D02*
X142252381Y-119382228D01*
X142252381Y-119382228D02*
X142309524Y-119382228D01*
X142309524Y-119382228D02*
X142347619Y-119401276D01*
X142347619Y-119401276D02*
X142366667Y-119420323D01*
X142366667Y-119420323D02*
X142385714Y-119458419D01*
X142385714Y-119458419D02*
X142385714Y-119553657D01*
X142385714Y-119553657D02*
X142366667Y-119591752D01*
X142366667Y-119591752D02*
X142347619Y-119610800D01*
X142347619Y-119610800D02*
X142309524Y-119629847D01*
X142309524Y-119629847D02*
X142195238Y-119629847D01*
X142195238Y-119629847D02*
X142157143Y-119610800D01*
X142157143Y-119610800D02*
X142138095Y-119591752D01*
X142576190Y-119629847D02*
X142652381Y-119629847D01*
X142652381Y-119629847D02*
X142690476Y-119610800D01*
X142690476Y-119610800D02*
X142709524Y-119591752D01*
X142709524Y-119591752D02*
X142747619Y-119534609D01*
X142747619Y-119534609D02*
X142766666Y-119458419D01*
X142766666Y-119458419D02*
X142766666Y-119306038D01*
X142766666Y-119306038D02*
X142747619Y-119267942D01*
X142747619Y-119267942D02*
X142728571Y-119248895D01*
X142728571Y-119248895D02*
X142690476Y-119229847D01*
X142690476Y-119229847D02*
X142614285Y-119229847D01*
X142614285Y-119229847D02*
X142576190Y-119248895D01*
X142576190Y-119248895D02*
X142557143Y-119267942D01*
X142557143Y-119267942D02*
X142538095Y-119306038D01*
X142538095Y-119306038D02*
X142538095Y-119401276D01*
X142538095Y-119401276D02*
X142557143Y-119439371D01*
X142557143Y-119439371D02*
X142576190Y-119458419D01*
X142576190Y-119458419D02*
X142614285Y-119477466D01*
X142614285Y-119477466D02*
X142690476Y-119477466D01*
X142690476Y-119477466D02*
X142728571Y-119458419D01*
X142728571Y-119458419D02*
X142747619Y-119439371D01*
X142747619Y-119439371D02*
X142766666Y-119401276D01*
X143014285Y-119229847D02*
X143052380Y-119229847D01*
X143052380Y-119229847D02*
X143090476Y-119248895D01*
X143090476Y-119248895D02*
X143109523Y-119267942D01*
X143109523Y-119267942D02*
X143128571Y-119306038D01*
X143128571Y-119306038D02*
X143147618Y-119382228D01*
X143147618Y-119382228D02*
X143147618Y-119477466D01*
X143147618Y-119477466D02*
X143128571Y-119553657D01*
X143128571Y-119553657D02*
X143109523Y-119591752D01*
X143109523Y-119591752D02*
X143090476Y-119610800D01*
X143090476Y-119610800D02*
X143052380Y-119629847D01*
X143052380Y-119629847D02*
X143014285Y-119629847D01*
X143014285Y-119629847D02*
X142976190Y-119610800D01*
X142976190Y-119610800D02*
X142957142Y-119591752D01*
X142957142Y-119591752D02*
X142938095Y-119553657D01*
X142938095Y-119553657D02*
X142919047Y-119477466D01*
X142919047Y-119477466D02*
X142919047Y-119382228D01*
X142919047Y-119382228D02*
X142938095Y-119306038D01*
X142938095Y-119306038D02*
X142957142Y-119267942D01*
X142957142Y-119267942D02*
X142976190Y-119248895D01*
X142976190Y-119248895D02*
X143014285Y-119229847D01*
X143395237Y-119229847D02*
X143433332Y-119229847D01*
X143433332Y-119229847D02*
X143471428Y-119248895D01*
X143471428Y-119248895D02*
X143490475Y-119267942D01*
X143490475Y-119267942D02*
X143509523Y-119306038D01*
X143509523Y-119306038D02*
X143528570Y-119382228D01*
X143528570Y-119382228D02*
X143528570Y-119477466D01*
X143528570Y-119477466D02*
X143509523Y-119553657D01*
X143509523Y-119553657D02*
X143490475Y-119591752D01*
X143490475Y-119591752D02*
X143471428Y-119610800D01*
X143471428Y-119610800D02*
X143433332Y-119629847D01*
X143433332Y-119629847D02*
X143395237Y-119629847D01*
X143395237Y-119629847D02*
X143357142Y-119610800D01*
X143357142Y-119610800D02*
X143338094Y-119591752D01*
X143338094Y-119591752D02*
X143319047Y-119553657D01*
X143319047Y-119553657D02*
X143299999Y-119477466D01*
X143299999Y-119477466D02*
X143299999Y-119382228D01*
X143299999Y-119382228D02*
X143319047Y-119306038D01*
X143319047Y-119306038D02*
X143338094Y-119267942D01*
X143338094Y-119267942D02*
X143357142Y-119248895D01*
X143357142Y-119248895D02*
X143395237Y-119229847D01*
X143699999Y-119629847D02*
X143699999Y-119229847D01*
X143699999Y-119229847D02*
X143795237Y-119229847D01*
X143795237Y-119229847D02*
X143852380Y-119248895D01*
X143852380Y-119248895D02*
X143890475Y-119286990D01*
X143890475Y-119286990D02*
X143909522Y-119325085D01*
X143909522Y-119325085D02*
X143928570Y-119401276D01*
X143928570Y-119401276D02*
X143928570Y-119458419D01*
X143928570Y-119458419D02*
X143909522Y-119534609D01*
X143909522Y-119534609D02*
X143890475Y-119572704D01*
X143890475Y-119572704D02*
X143852380Y-119610800D01*
X143852380Y-119610800D02*
X143795237Y-119629847D01*
X143795237Y-119629847D02*
X143699999Y-119629847D01*
X144080951Y-119610800D02*
X144138094Y-119629847D01*
X144138094Y-119629847D02*
X144233332Y-119629847D01*
X144233332Y-119629847D02*
X144271427Y-119610800D01*
X144271427Y-119610800D02*
X144290475Y-119591752D01*
X144290475Y-119591752D02*
X144309522Y-119553657D01*
X144309522Y-119553657D02*
X144309522Y-119515561D01*
X144309522Y-119515561D02*
X144290475Y-119477466D01*
X144290475Y-119477466D02*
X144271427Y-119458419D01*
X144271427Y-119458419D02*
X144233332Y-119439371D01*
X144233332Y-119439371D02*
X144157141Y-119420323D01*
X144157141Y-119420323D02*
X144119046Y-119401276D01*
X144119046Y-119401276D02*
X144099999Y-119382228D01*
X144099999Y-119382228D02*
X144080951Y-119344133D01*
X144080951Y-119344133D02*
X144080951Y-119306038D01*
X144080951Y-119306038D02*
X144099999Y-119267942D01*
X144099999Y-119267942D02*
X144119046Y-119248895D01*
X144119046Y-119248895D02*
X144157141Y-119229847D01*
X144157141Y-119229847D02*
X144252380Y-119229847D01*
X144252380Y-119229847D02*
X144309522Y-119248895D01*
X144480951Y-119629847D02*
X144480951Y-119229847D01*
X144709522Y-119629847D02*
X144538093Y-119401276D01*
X144709522Y-119229847D02*
X144480951Y-119458419D01*
X145109522Y-119629847D02*
X144976189Y-119439371D01*
X144880951Y-119629847D02*
X144880951Y-119229847D01*
X144880951Y-119229847D02*
X145033332Y-119229847D01*
X145033332Y-119229847D02*
X145071427Y-119248895D01*
X145071427Y-119248895D02*
X145090474Y-119267942D01*
X145090474Y-119267942D02*
X145109522Y-119306038D01*
X145109522Y-119306038D02*
X145109522Y-119363180D01*
X145109522Y-119363180D02*
X145090474Y-119401276D01*
X145090474Y-119401276D02*
X145071427Y-119420323D01*
X145071427Y-119420323D02*
X145033332Y-119439371D01*
X145033332Y-119439371D02*
X144880951Y-119439371D01*
X138779166Y-104058490D02*
X138755357Y-104082300D01*
X138755357Y-104082300D02*
X138683928Y-104106109D01*
X138683928Y-104106109D02*
X138636309Y-104106109D01*
X138636309Y-104106109D02*
X138564881Y-104082300D01*
X138564881Y-104082300D02*
X138517262Y-104034680D01*
X138517262Y-104034680D02*
X138493452Y-103987061D01*
X138493452Y-103987061D02*
X138469643Y-103891823D01*
X138469643Y-103891823D02*
X138469643Y-103820395D01*
X138469643Y-103820395D02*
X138493452Y-103725157D01*
X138493452Y-103725157D02*
X138517262Y-103677538D01*
X138517262Y-103677538D02*
X138564881Y-103629919D01*
X138564881Y-103629919D02*
X138636309Y-103606109D01*
X138636309Y-103606109D02*
X138683928Y-103606109D01*
X138683928Y-103606109D02*
X138755357Y-103629919D01*
X138755357Y-103629919D02*
X138779166Y-103653728D01*
X139207738Y-103772776D02*
X139207738Y-104106109D01*
X139088690Y-103582300D02*
X138969643Y-103939442D01*
X138969643Y-103939442D02*
X139279166Y-103939442D01*
X138433928Y-102899847D02*
X138205357Y-102899847D01*
X138319643Y-102899847D02*
X138319643Y-102499847D01*
X138319643Y-102499847D02*
X138281547Y-102556990D01*
X138281547Y-102556990D02*
X138243452Y-102595085D01*
X138243452Y-102595085D02*
X138205357Y-102614133D01*
X138681547Y-102499847D02*
X138719642Y-102499847D01*
X138719642Y-102499847D02*
X138757738Y-102518895D01*
X138757738Y-102518895D02*
X138776785Y-102537942D01*
X138776785Y-102537942D02*
X138795833Y-102576038D01*
X138795833Y-102576038D02*
X138814880Y-102652228D01*
X138814880Y-102652228D02*
X138814880Y-102747466D01*
X138814880Y-102747466D02*
X138795833Y-102823657D01*
X138795833Y-102823657D02*
X138776785Y-102861752D01*
X138776785Y-102861752D02*
X138757738Y-102880800D01*
X138757738Y-102880800D02*
X138719642Y-102899847D01*
X138719642Y-102899847D02*
X138681547Y-102899847D01*
X138681547Y-102899847D02*
X138643452Y-102880800D01*
X138643452Y-102880800D02*
X138624404Y-102861752D01*
X138624404Y-102861752D02*
X138605357Y-102823657D01*
X138605357Y-102823657D02*
X138586309Y-102747466D01*
X138586309Y-102747466D02*
X138586309Y-102652228D01*
X138586309Y-102652228D02*
X138605357Y-102576038D01*
X138605357Y-102576038D02*
X138624404Y-102537942D01*
X138624404Y-102537942D02*
X138643452Y-102518895D01*
X138643452Y-102518895D02*
X138681547Y-102499847D01*
X138986309Y-102633180D02*
X138986309Y-102899847D01*
X138986309Y-102671276D02*
X139005356Y-102652228D01*
X139005356Y-102652228D02*
X139043451Y-102633180D01*
X139043451Y-102633180D02*
X139100594Y-102633180D01*
X139100594Y-102633180D02*
X139138690Y-102652228D01*
X139138690Y-102652228D02*
X139157737Y-102690323D01*
X139157737Y-102690323D02*
X139157737Y-102899847D01*
X139481547Y-102690323D02*
X139348214Y-102690323D01*
X139348214Y-102899847D02*
X139348214Y-102499847D01*
X139348214Y-102499847D02*
X139538690Y-102499847D01*
X148259847Y-117916666D02*
X148259847Y-118107142D01*
X148259847Y-118107142D02*
X147859847Y-118107142D01*
X147897942Y-117802380D02*
X147878895Y-117783332D01*
X147878895Y-117783332D02*
X147859847Y-117745237D01*
X147859847Y-117745237D02*
X147859847Y-117649999D01*
X147859847Y-117649999D02*
X147878895Y-117611904D01*
X147878895Y-117611904D02*
X147897942Y-117592856D01*
X147897942Y-117592856D02*
X147936038Y-117573809D01*
X147936038Y-117573809D02*
X147974133Y-117573809D01*
X147974133Y-117573809D02*
X148031276Y-117592856D01*
X148031276Y-117592856D02*
X148259847Y-117821428D01*
X148259847Y-117821428D02*
X148259847Y-117573809D01*
X148921018Y-118640475D02*
X148901971Y-118621427D01*
X148901971Y-118621427D02*
X148882923Y-118583332D01*
X148882923Y-118583332D02*
X148882923Y-118488094D01*
X148882923Y-118488094D02*
X148901971Y-118449999D01*
X148901971Y-118449999D02*
X148921018Y-118430951D01*
X148921018Y-118430951D02*
X148959114Y-118411904D01*
X148959114Y-118411904D02*
X148997209Y-118411904D01*
X148997209Y-118411904D02*
X149054352Y-118430951D01*
X149054352Y-118430951D02*
X149282923Y-118659523D01*
X149282923Y-118659523D02*
X149282923Y-118411904D01*
X149244828Y-118240475D02*
X149263876Y-118221428D01*
X149263876Y-118221428D02*
X149282923Y-118240475D01*
X149282923Y-118240475D02*
X149263876Y-118259523D01*
X149263876Y-118259523D02*
X149244828Y-118240475D01*
X149244828Y-118240475D02*
X149282923Y-118240475D01*
X148921018Y-118069047D02*
X148901971Y-118049999D01*
X148901971Y-118049999D02*
X148882923Y-118011904D01*
X148882923Y-118011904D02*
X148882923Y-117916666D01*
X148882923Y-117916666D02*
X148901971Y-117878571D01*
X148901971Y-117878571D02*
X148921018Y-117859523D01*
X148921018Y-117859523D02*
X148959114Y-117840476D01*
X148959114Y-117840476D02*
X148997209Y-117840476D01*
X148997209Y-117840476D02*
X149054352Y-117859523D01*
X149054352Y-117859523D02*
X149282923Y-118088095D01*
X149282923Y-118088095D02*
X149282923Y-117840476D01*
X149016256Y-117497619D02*
X149282923Y-117497619D01*
X149016256Y-117669047D02*
X149225780Y-117669047D01*
X149225780Y-117669047D02*
X149263876Y-117650000D01*
X149263876Y-117650000D02*
X149282923Y-117611905D01*
X149282923Y-117611905D02*
X149282923Y-117554762D01*
X149282923Y-117554762D02*
X149263876Y-117516666D01*
X149263876Y-117516666D02*
X149244828Y-117497619D01*
X149282923Y-117307142D02*
X148882923Y-117307142D01*
X149073399Y-117307142D02*
X149073399Y-117078571D01*
X149282923Y-117078571D02*
X148882923Y-117078571D01*
X136109560Y-111840653D02*
X136090512Y-111859701D01*
X136090512Y-111859701D02*
X136033370Y-111878748D01*
X136033370Y-111878748D02*
X135995274Y-111878748D01*
X135995274Y-111878748D02*
X135938131Y-111859701D01*
X135938131Y-111859701D02*
X135900036Y-111821605D01*
X135900036Y-111821605D02*
X135880989Y-111783510D01*
X135880989Y-111783510D02*
X135861941Y-111707320D01*
X135861941Y-111707320D02*
X135861941Y-111650177D01*
X135861941Y-111650177D02*
X135880989Y-111573986D01*
X135880989Y-111573986D02*
X135900036Y-111535891D01*
X135900036Y-111535891D02*
X135938131Y-111497796D01*
X135938131Y-111497796D02*
X135995274Y-111478748D01*
X135995274Y-111478748D02*
X136033370Y-111478748D01*
X136033370Y-111478748D02*
X136090512Y-111497796D01*
X136090512Y-111497796D02*
X136109560Y-111516843D01*
X136490512Y-111878748D02*
X136261941Y-111878748D01*
X136376227Y-111878748D02*
X136376227Y-111478748D01*
X136376227Y-111478748D02*
X136338131Y-111535891D01*
X136338131Y-111535891D02*
X136300036Y-111573986D01*
X136300036Y-111573986D02*
X136261941Y-111593034D01*
X136871464Y-111878748D02*
X136642893Y-111878748D01*
X136757179Y-111878748D02*
X136757179Y-111478748D01*
X136757179Y-111478748D02*
X136719083Y-111535891D01*
X136719083Y-111535891D02*
X136680988Y-111573986D01*
X136680988Y-111573986D02*
X136642893Y-111593034D01*
X133796550Y-112326043D02*
X133796550Y-112287948D01*
X133796550Y-112287948D02*
X133815598Y-112249852D01*
X133815598Y-112249852D02*
X133834645Y-112230805D01*
X133834645Y-112230805D02*
X133872741Y-112211757D01*
X133872741Y-112211757D02*
X133948931Y-112192710D01*
X133948931Y-112192710D02*
X134044169Y-112192710D01*
X134044169Y-112192710D02*
X134120360Y-112211757D01*
X134120360Y-112211757D02*
X134158455Y-112230805D01*
X134158455Y-112230805D02*
X134177503Y-112249852D01*
X134177503Y-112249852D02*
X134196550Y-112287948D01*
X134196550Y-112287948D02*
X134196550Y-112326043D01*
X134196550Y-112326043D02*
X134177503Y-112364138D01*
X134177503Y-112364138D02*
X134158455Y-112383186D01*
X134158455Y-112383186D02*
X134120360Y-112402233D01*
X134120360Y-112402233D02*
X134044169Y-112421281D01*
X134044169Y-112421281D02*
X133948931Y-112421281D01*
X133948931Y-112421281D02*
X133872741Y-112402233D01*
X133872741Y-112402233D02*
X133834645Y-112383186D01*
X133834645Y-112383186D02*
X133815598Y-112364138D01*
X133815598Y-112364138D02*
X133796550Y-112326043D01*
X134158455Y-112021281D02*
X134177503Y-112002234D01*
X134177503Y-112002234D02*
X134196550Y-112021281D01*
X134196550Y-112021281D02*
X134177503Y-112040329D01*
X134177503Y-112040329D02*
X134158455Y-112021281D01*
X134158455Y-112021281D02*
X134196550Y-112021281D01*
X134196550Y-111621282D02*
X134196550Y-111849853D01*
X134196550Y-111735567D02*
X133796550Y-111735567D01*
X133796550Y-111735567D02*
X133853693Y-111773663D01*
X133853693Y-111773663D02*
X133891788Y-111811758D01*
X133891788Y-111811758D02*
X133910836Y-111849853D01*
X133929883Y-111278425D02*
X134196550Y-111278425D01*
X133929883Y-111449853D02*
X134139407Y-111449853D01*
X134139407Y-111449853D02*
X134177503Y-111430806D01*
X134177503Y-111430806D02*
X134196550Y-111392711D01*
X134196550Y-111392711D02*
X134196550Y-111335568D01*
X134196550Y-111335568D02*
X134177503Y-111297472D01*
X134177503Y-111297472D02*
X134158455Y-111278425D01*
X133987026Y-110954615D02*
X133987026Y-111087948D01*
X134196550Y-111087948D02*
X133796550Y-111087948D01*
X133796550Y-111087948D02*
X133796550Y-110897472D01*
X136316666Y-107283490D02*
X136292857Y-107307300D01*
X136292857Y-107307300D02*
X136221428Y-107331109D01*
X136221428Y-107331109D02*
X136173809Y-107331109D01*
X136173809Y-107331109D02*
X136102381Y-107307300D01*
X136102381Y-107307300D02*
X136054762Y-107259680D01*
X136054762Y-107259680D02*
X136030952Y-107212061D01*
X136030952Y-107212061D02*
X136007143Y-107116823D01*
X136007143Y-107116823D02*
X136007143Y-107045395D01*
X136007143Y-107045395D02*
X136030952Y-106950157D01*
X136030952Y-106950157D02*
X136054762Y-106902538D01*
X136054762Y-106902538D02*
X136102381Y-106854919D01*
X136102381Y-106854919D02*
X136173809Y-106831109D01*
X136173809Y-106831109D02*
X136221428Y-106831109D01*
X136221428Y-106831109D02*
X136292857Y-106854919D01*
X136292857Y-106854919D02*
X136316666Y-106878728D01*
X136745238Y-106831109D02*
X136650000Y-106831109D01*
X136650000Y-106831109D02*
X136602381Y-106854919D01*
X136602381Y-106854919D02*
X136578571Y-106878728D01*
X136578571Y-106878728D02*
X136530952Y-106950157D01*
X136530952Y-106950157D02*
X136507143Y-107045395D01*
X136507143Y-107045395D02*
X136507143Y-107235871D01*
X136507143Y-107235871D02*
X136530952Y-107283490D01*
X136530952Y-107283490D02*
X136554762Y-107307300D01*
X136554762Y-107307300D02*
X136602381Y-107331109D01*
X136602381Y-107331109D02*
X136697619Y-107331109D01*
X136697619Y-107331109D02*
X136745238Y-107307300D01*
X136745238Y-107307300D02*
X136769047Y-107283490D01*
X136769047Y-107283490D02*
X136792857Y-107235871D01*
X136792857Y-107235871D02*
X136792857Y-107116823D01*
X136792857Y-107116823D02*
X136769047Y-107069204D01*
X136769047Y-107069204D02*
X136745238Y-107045395D01*
X136745238Y-107045395D02*
X136697619Y-107021585D01*
X136697619Y-107021585D02*
X136602381Y-107021585D01*
X136602381Y-107021585D02*
X136554762Y-107045395D01*
X136554762Y-107045395D02*
X136530952Y-107069204D01*
X136530952Y-107069204D02*
X136507143Y-107116823D01*
X133972594Y-107715823D02*
X133972594Y-107677728D01*
X133972594Y-107677728D02*
X133991642Y-107639632D01*
X133991642Y-107639632D02*
X134010689Y-107620585D01*
X134010689Y-107620585D02*
X134048785Y-107601537D01*
X134048785Y-107601537D02*
X134124975Y-107582490D01*
X134124975Y-107582490D02*
X134220213Y-107582490D01*
X134220213Y-107582490D02*
X134296404Y-107601537D01*
X134296404Y-107601537D02*
X134334499Y-107620585D01*
X134334499Y-107620585D02*
X134353547Y-107639632D01*
X134353547Y-107639632D02*
X134372594Y-107677728D01*
X134372594Y-107677728D02*
X134372594Y-107715823D01*
X134372594Y-107715823D02*
X134353547Y-107753918D01*
X134353547Y-107753918D02*
X134334499Y-107772966D01*
X134334499Y-107772966D02*
X134296404Y-107792013D01*
X134296404Y-107792013D02*
X134220213Y-107811061D01*
X134220213Y-107811061D02*
X134124975Y-107811061D01*
X134124975Y-107811061D02*
X134048785Y-107792013D01*
X134048785Y-107792013D02*
X134010689Y-107772966D01*
X134010689Y-107772966D02*
X133991642Y-107753918D01*
X133991642Y-107753918D02*
X133972594Y-107715823D01*
X134334499Y-107411061D02*
X134353547Y-107392014D01*
X134353547Y-107392014D02*
X134372594Y-107411061D01*
X134372594Y-107411061D02*
X134353547Y-107430109D01*
X134353547Y-107430109D02*
X134334499Y-107411061D01*
X134334499Y-107411061D02*
X134372594Y-107411061D01*
X134372594Y-107011062D02*
X134372594Y-107239633D01*
X134372594Y-107125347D02*
X133972594Y-107125347D01*
X133972594Y-107125347D02*
X134029737Y-107163443D01*
X134029737Y-107163443D02*
X134067832Y-107201538D01*
X134067832Y-107201538D02*
X134086880Y-107239633D01*
X134105927Y-106668205D02*
X134372594Y-106668205D01*
X134105927Y-106839633D02*
X134315451Y-106839633D01*
X134315451Y-106839633D02*
X134353547Y-106820586D01*
X134353547Y-106820586D02*
X134372594Y-106782491D01*
X134372594Y-106782491D02*
X134372594Y-106725348D01*
X134372594Y-106725348D02*
X134353547Y-106687252D01*
X134353547Y-106687252D02*
X134334499Y-106668205D01*
X134163070Y-106344395D02*
X134163070Y-106477728D01*
X134372594Y-106477728D02*
X133972594Y-106477728D01*
X133972594Y-106477728D02*
X133972594Y-106287252D01*
%TO.C,J2*%
D14*
X1150000Y-4850000D02*
X1950000Y-4850000D01*
X1150000Y-6250000D02*
X1150000Y-4850000D01*
D10*
X4150000Y-500000D02*
X4150000Y-500000D01*
X4150000Y-600000D02*
X4150000Y-600000D01*
D14*
X17850000Y-4850000D02*
X18650000Y-4850000D01*
X18650000Y-4850000D02*
X18650000Y-6250000D01*
X18650000Y-6250000D02*
X1150000Y-6250000D01*
D10*
X4150000Y-500000D02*
G75*
G02*
X4150000Y-600000I0J-50000D01*
G01*
X4150000Y-600000D02*
G75*
G02*
X4150000Y-500000I0J50000D01*
G01*
%TO.C,D1*%
D15*
X147060000Y-103205000D02*
X147060000Y-107090000D01*
X147060000Y-107090000D02*
X149330000Y-107090000D01*
X149330000Y-107090000D02*
X149330000Y-103205000D01*
%TO.C,R8*%
X143377500Y-101354724D02*
X143377500Y-100845276D01*
X144422500Y-101354724D02*
X144422500Y-100845276D01*
%TO.C,U1*%
X140190000Y-105790000D02*
X140615000Y-105790000D01*
X140190000Y-106215000D02*
X140190000Y-105790000D01*
X140190000Y-111010000D02*
X140190000Y-110585000D01*
X140615000Y-111010000D02*
X140190000Y-111010000D01*
X144985000Y-105790000D02*
X145410000Y-105790000D01*
X145410000Y-105790000D02*
X145410000Y-106215000D01*
X145410000Y-110585000D02*
X145410000Y-111010000D01*
X145410000Y-111010000D02*
X144985000Y-111010000D01*
X139690000Y-106600000D02*
X139360000Y-106840000D01*
X139360000Y-106360000D01*
X139690000Y-106600000D01*
G36*
X139690000Y-106600000D02*
G01*
X139360000Y-106840000D01*
X139360000Y-106360000D01*
X139690000Y-106600000D01*
G37*
%TO.C,R1*%
X136545276Y-116327500D02*
X137054724Y-116327500D01*
X136545276Y-117372500D02*
X137054724Y-117372500D01*
%TO.C,C2*%
X146596208Y-95709517D02*
X146596208Y-96232021D01*
X148066208Y-95709517D02*
X148066208Y-96232021D01*
%TO.C,L1*%
X140890000Y-100653733D02*
X140890000Y-100996267D01*
X141910000Y-100653733D02*
X141910000Y-100996267D01*
%TO.C,C10*%
X136661252Y-108665000D02*
X136138748Y-108665000D01*
X136661252Y-110135000D02*
X136138748Y-110135000D01*
%TO.C,C1*%
X136865000Y-95738748D02*
X136865000Y-96261252D01*
X138335000Y-95738748D02*
X138335000Y-96261252D01*
%TO.C,R2*%
X136545276Y-118327500D02*
X137054724Y-118327500D01*
X136545276Y-119372500D02*
X137054724Y-119372500D01*
%TO.C,Y1*%
X139640000Y-93490000D02*
X139640000Y-98110000D01*
X139640000Y-98110000D02*
X145160000Y-98110000D01*
%TO.C,U2*%
X141540000Y-116165000D02*
X144260000Y-116165000D01*
X144260000Y-118935000D02*
X141540000Y-118935000D01*
X141010000Y-116550000D02*
X140680000Y-116790000D01*
X140680000Y-116310000D01*
X141010000Y-116550000D01*
G36*
X141010000Y-116550000D02*
G01*
X140680000Y-116790000D01*
X140680000Y-116310000D01*
X141010000Y-116550000D01*
G37*
%TO.C,C4*%
X139008767Y-103240000D02*
X138716233Y-103240000D01*
X139008767Y-104260000D02*
X138716233Y-104260000D01*
%TO.C,L2*%
X147540000Y-117678733D02*
X147540000Y-118021267D01*
X148560000Y-117678733D02*
X148560000Y-118021267D01*
%TO.C,C11*%
X136627955Y-110983901D02*
X136105451Y-110983901D01*
X136627955Y-112453901D02*
X136105451Y-112453901D01*
%TO.C,C6*%
X136661252Y-106290000D02*
X136138748Y-106290000D01*
X136661252Y-107760000D02*
X136138748Y-107760000D01*
%TO.C,J1*%
X129414395Y-90444945D02*
X130794395Y-90444945D01*
X129414395Y-91824945D02*
X129414395Y-90444945D01*
X129414395Y-93094945D02*
X129414395Y-126224945D01*
X129414395Y-93094945D02*
X132174395Y-93094945D01*
X129414395Y-126224945D02*
X132174395Y-126224945D01*
X132174395Y-93094945D02*
X132174395Y-126224945D01*
%TD*%
M02*
