M48
; DRILL file KiCad 10.0.2 date 2026-07-13T10:55:15
; FORMAT={-:-/ absolute / metric / decimal}
; #@! TF.CreationDate,2026-07-13T10:55:15+07:00
; #@! TF.GenerationSoftware,Kicad,Pcbnew,10.0.2
; #@! TF.FileFunction,Plated,1,2,PTH
FMAT,2
METRIC
; #@! TA.AperFunction,Plated,PTH,ViaDrill
T1C0.300
; #@! TA.AperFunction,Plated,PTH,ComponentDrill
T2C0.300
; #@! TA.AperFunction,Plated,PTH,ComponentDrill
T3C1.000
%
G90
G05
T1
X134.15Y-114.4
X134.45Y-120.35
X134.7Y-105.6
X135.25Y-111.7
X135.3Y-109.3
X135.4Y-107.1
X135.85Y-116.9
X135.85Y-118.85
X135.9Y-105.65
X137.404Y-111.719
X137.6Y-94.962
X137.9Y-99.0
X138.0Y-103.75
X138.6Y-105.7
X140.642Y-118.048
X140.95Y-94.95
X141.0Y-105.0
X142.15Y-108.75
X142.2Y-105.0
X142.25Y-107.65
X142.591Y-104.448
X142.8Y-108.4
X143.5Y-107.6
X143.5Y-108.8
X143.85Y-96.95
X143.9Y-100.188
X145.1Y-117.55
X146.35Y-110.2
X147.331Y-94.933
X148.15Y-106.179
X148.25Y-103.4
T2
X135.464Y-121.275
X142.55Y-116.8
X142.55Y-117.55
X142.55Y-118.3
X143.25Y-116.8
X143.25Y-117.55
X143.25Y-118.3
T3
X130.794Y-91.825
X130.794Y-94.365
X130.794Y-96.905
X130.794Y-99.445
X130.794Y-101.985
X130.794Y-104.525
X130.794Y-107.065
X130.794Y-109.605
X130.794Y-112.145
X130.794Y-114.685
X130.794Y-117.225
X130.794Y-119.765
X130.794Y-122.305
X130.794Y-124.845
M30
