%TF.GenerationSoftware,KiCad,Pcbnew,10.0.2*%
%TF.CreationDate,2026-07-13T10:55:11+07:00*%
%TF.ProjectId,c61,6336312e-6b69-4636-9164-5f7063625858,rev?*%
%TF.SameCoordinates,Original*%
%TF.FileFunction,Copper,L2,Bot*%
%TF.FilePolarity,Positive*%
%FSLAX46Y46*%
G04 Gerber Fmt 4.6, Leading zero omitted, Abs format (unit mm)*
G04 Created by KiCad (PCBNEW 10.0.2) date 2026-07-13 10:55:11*
%MOMM*%
%LPD*%
G01*
G04 APERTURE LIST*
%TA.AperFunction,ComponentPad*%
%ADD10R,0.900000X0.500000*%
%TD*%
%TA.AperFunction,HeatsinkPad*%
%ADD11C,0.500000*%
%TD*%
%TA.AperFunction,HeatsinkPad*%
%ADD12R,1.200000X2.000000*%
%TD*%
%TA.AperFunction,ComponentPad*%
%ADD13R,1.700000X1.700000*%
%TD*%
%TA.AperFunction,ComponentPad*%
%ADD14C,1.700000*%
%TD*%
%TA.AperFunction,ViaPad*%
%ADD15C,0.500000*%
%TD*%
%TA.AperFunction,Conductor*%
%ADD16C,0.200000*%
%TD*%
G04 APERTURE END LIST*
D10*
%TO.P,2.4GHz,2*%
%TO.N,GND*%
X135463956Y-121275000D03*
%TD*%
D11*
%TO.P,U2,11,GND_11*%
%TO.N,GND*%
X142550000Y-116800000D03*
X142550000Y-117550000D03*
X142550000Y-118300000D03*
D12*
X142900000Y-117550000D03*
D11*
X143250000Y-116800000D03*
X143250000Y-117550000D03*
X143250000Y-118300000D03*
%TD*%
D13*
%TO.P,J1,1,Pin_1_1*%
%TO.N,Net-(J1-Pin_1)*%
X130794395Y-91824945D03*
D14*
%TO.P,J1,2,Pin_2_2*%
%TO.N,Net-(J1-Pin_2)*%
X130794395Y-94364945D03*
%TO.P,J1,3,Pin_3_3*%
%TO.N,Net-(J1-Pin_3)*%
X130794395Y-96904945D03*
%TO.P,J1,4,Pin_4_4*%
%TO.N,Net-(J1-Pin_4)*%
X130794395Y-99444945D03*
%TO.P,J1,5,Pin_5_5*%
%TO.N,GND*%
X130794395Y-101984945D03*
%TO.P,J1,6,Pin_6_6*%
%TO.N,/VBUS*%
X130794395Y-104524945D03*
%TO.P,J1,7,Pin_7_7*%
%TO.N,/3.3V*%
X130794395Y-107064945D03*
%TO.P,J1,8,Pin_8_8*%
%TO.N,/A12*%
X130794395Y-109604945D03*
%TO.P,J1,9,Pin_9_9*%
%TO.N,/A34*%
X130794395Y-112144945D03*
%TO.P,J1,10,Pin_10_10*%
%TO.N,/PST1*%
X130794395Y-114684945D03*
%TO.P,J1,11,Pin_11_11*%
%TO.N,/PST2*%
X130794395Y-117224945D03*
%TO.P,J1,12,Pin_12_12*%
%TO.N,/HLPOW*%
X130794395Y-119764945D03*
%TO.P,J1,13,Pin_13_13*%
%TO.N,unconnected-(J1-Pin_13-Pad13)*%
X130794395Y-122304945D03*
%TO.P,J1,14,Pin_14_14*%
%TO.N,unconnected-(J1-Pin_14-Pad14)*%
X130794395Y-124844945D03*
%TD*%
D15*
%TO.N,Net-(D1-K)*%
X142590813Y-104448087D03*
X148150109Y-106178571D03*
%TO.N,GND*%
X138000000Y-103750000D03*
X142250000Y-107650000D03*
X135300000Y-109300000D03*
X145100000Y-117550000D03*
X135850000Y-118850000D03*
X148250000Y-103400000D03*
X135250000Y-111700000D03*
X140641538Y-118047747D03*
X143500000Y-108800000D03*
X142150000Y-108750000D03*
X147331208Y-94933269D03*
X143850000Y-96950000D03*
X137600000Y-94962500D03*
X135850000Y-116900000D03*
X143500000Y-107600000D03*
X140950000Y-94950000D03*
X135400000Y-107100000D03*
X142800000Y-108400000D03*
%TO.N,Net-(J1-Pin_4)*%
X143900000Y-100187500D03*
X137900000Y-99000000D03*
%TO.N,/ANT*%
X138600000Y-105700000D03*
X134700000Y-105600000D03*
X134450000Y-120350000D03*
X135900000Y-105650000D03*
%TO.N,/PST2*%
X137404203Y-111718901D03*
X146350000Y-110200000D03*
%TO.N,/A12*%
X141000000Y-105000000D03*
X142200000Y-105000000D03*
%TO.N,/VBUS*%
X134150000Y-114400000D03*
%TD*%
%TO.N,Net-(D1-K)*%
D16*
X142590813Y-104448087D02*
X146419625Y-104448087D01*
X146419625Y-104448087D02*
X148150109Y-106178571D01*
%TO.N,GND*%
X140450000Y-118239285D02*
X140641538Y-118047747D01*
X143500000Y-108800000D02*
X143050000Y-109250000D01*
X135850000Y-108750000D02*
X135300000Y-109300000D01*
X140450000Y-118750000D02*
X140450000Y-118239285D01*
X134865055Y-101984945D02*
X130794395Y-101984945D01*
X143850000Y-99000000D02*
X143850000Y-96950000D01*
X145100000Y-118900000D02*
X144500000Y-119500000D01*
X144500000Y-119500000D02*
X141200000Y-119500000D01*
X145100000Y-117550000D02*
X145100000Y-118900000D01*
X135300000Y-109300000D02*
X135300000Y-111650000D01*
X140641538Y-118047747D02*
X139839285Y-118850000D01*
X135850000Y-116900000D02*
X135850000Y-112300000D01*
X143850000Y-96950000D02*
X145314477Y-96950000D01*
X135850000Y-112300000D02*
X135250000Y-111700000D01*
X137700000Y-109250000D02*
X135250000Y-111700000D01*
X139839285Y-118850000D02*
X135850000Y-118850000D01*
X141200000Y-119500000D02*
X140450000Y-118750000D01*
X148250000Y-103400000D02*
X143850000Y-99000000D01*
X135400000Y-101550000D02*
X135300000Y-101550000D01*
X145314477Y-96950000D02*
X147331208Y-94933269D01*
X135463956Y-119236044D02*
X135850000Y-118850000D01*
X135400000Y-109200000D02*
X135300000Y-109300000D01*
X137787500Y-94962500D02*
X137816731Y-94933269D01*
X135463956Y-121275000D02*
X135463956Y-119236044D01*
X138350000Y-103750000D02*
X142250000Y-107650000D01*
X142800000Y-108400000D02*
X136700000Y-108400000D01*
X136700000Y-108400000D02*
X135400000Y-107100000D01*
X137600000Y-94962500D02*
X137787500Y-94962500D01*
X135400000Y-101550000D02*
X135400000Y-107100000D01*
X135400000Y-97162500D02*
X137600000Y-94962500D01*
X135300000Y-111650000D02*
X135250000Y-111700000D01*
X135400000Y-101550000D02*
X135400000Y-97162500D01*
X142150000Y-108750000D02*
X135850000Y-108750000D01*
X138000000Y-103750000D02*
X138350000Y-103750000D01*
X135400000Y-107100000D02*
X135400000Y-109200000D01*
X137816731Y-94933269D02*
X147331208Y-94933269D01*
X143050000Y-109250000D02*
X137700000Y-109250000D01*
X135300000Y-101550000D02*
X134865055Y-101984945D01*
X135850000Y-118850000D02*
X135850000Y-116900000D01*
%TO.N,Net-(J1-Pin_4)*%
X137900000Y-99350000D02*
X138737500Y-100187500D01*
X138737500Y-100187500D02*
X143900000Y-100187500D01*
X137900000Y-99000000D02*
X137900000Y-99350000D01*
%TO.N,/ANT*%
X138550000Y-105650000D02*
X138600000Y-105700000D01*
X135850000Y-105650000D02*
X138550000Y-105650000D01*
X134450000Y-119900000D02*
X134450000Y-120350000D01*
X134700000Y-112200000D02*
X135250000Y-112750000D01*
X134750000Y-119600000D02*
X134450000Y-119900000D01*
X135250000Y-112750000D02*
X135250000Y-118550000D01*
X134700000Y-105600000D02*
X134700000Y-112200000D01*
X135250000Y-118550000D02*
X134750000Y-119050000D01*
X134750000Y-119050000D02*
X134750000Y-119600000D01*
%TO.N,/PST2*%
X146350000Y-110200000D02*
X144831099Y-111718901D01*
X144831099Y-111718901D02*
X137404203Y-111718901D01*
%TO.N,/A12*%
X142200000Y-105000000D02*
X141000000Y-105000000D01*
%TO.N,/VBUS*%
X134150000Y-107880550D02*
X130794395Y-104524945D01*
X134150000Y-114400000D02*
X134150000Y-107880550D01*
%TD*%
%TA.AperFunction,Conductor*%
%TO.N,GND*%
G36*
X144363117Y-106704051D02*
G01*
X144430093Y-106723945D01*
X144475682Y-106776892D01*
X144486719Y-106829442D01*
X144451377Y-109977392D01*
X144430941Y-110044206D01*
X144377627Y-110089366D01*
X144327385Y-110100000D01*
X141224388Y-110100000D01*
X141157349Y-110080315D01*
X141111594Y-110027511D01*
X141100389Y-109975612D01*
X141110270Y-106817869D01*
X141130164Y-106750895D01*
X141183111Y-106705306D01*
X141234656Y-106694262D01*
X144363117Y-106704051D01*
G37*
%TD.AperFunction*%
%TD*%
M02*
