%TF.GenerationSoftware,KiCad,Pcbnew,10.0.2*%
%TF.CreationDate,2026-06-23T12:03:58+07:00*%
%TF.ProjectId,c61,6336312e-6b69-4636-9164-5f7063625858,rev?*%
%TF.SameCoordinates,Original*%
%TF.FileFunction,Legend,Top*%
%TF.FilePolarity,Positive*%
%FSLAX46Y46*%
G04 Gerber Fmt 4.6, Leading zero omitted, Abs format (unit mm)*
G04 Created by KiCad (PCBNEW 10.0.2) date 2026-06-23 12:03:58*
%MOMM*%
%LPD*%
G01*
G04 APERTURE LIST*
%ADD10C,0.100000*%
%ADD11C,0.254000*%
%ADD12C,0.125000*%
%ADD13C,0.150000*%
%ADD14C,0.075000*%
%ADD15C,0.200000*%
%ADD16C,0.120000*%
G04 APERTURE END LIST*
D10*
X137757363Y-90559616D02*
X137924030Y-90559616D01*
X137995458Y-90821521D02*
X137757363Y-90821521D01*
X137757363Y-90821521D02*
X137757363Y-90321521D01*
X137757363Y-90321521D02*
X137995458Y-90321521D01*
X138185935Y-90797712D02*
X138257363Y-90821521D01*
X138257363Y-90821521D02*
X138376411Y-90821521D01*
X138376411Y-90821521D02*
X138424030Y-90797712D01*
X138424030Y-90797712D02*
X138447839Y-90773902D01*
X138447839Y-90773902D02*
X138471649Y-90726283D01*
X138471649Y-90726283D02*
X138471649Y-90678664D01*
X138471649Y-90678664D02*
X138447839Y-90631045D01*
X138447839Y-90631045D02*
X138424030Y-90607235D01*
X138424030Y-90607235D02*
X138376411Y-90583426D01*
X138376411Y-90583426D02*
X138281173Y-90559616D01*
X138281173Y-90559616D02*
X138233554Y-90535807D01*
X138233554Y-90535807D02*
X138209744Y-90511997D01*
X138209744Y-90511997D02*
X138185935Y-90464378D01*
X138185935Y-90464378D02*
X138185935Y-90416759D01*
X138185935Y-90416759D02*
X138209744Y-90369140D01*
X138209744Y-90369140D02*
X138233554Y-90345331D01*
X138233554Y-90345331D02*
X138281173Y-90321521D01*
X138281173Y-90321521D02*
X138400220Y-90321521D01*
X138400220Y-90321521D02*
X138471649Y-90345331D01*
X138685934Y-90821521D02*
X138685934Y-90321521D01*
X138685934Y-90321521D02*
X138876410Y-90321521D01*
X138876410Y-90321521D02*
X138924029Y-90345331D01*
X138924029Y-90345331D02*
X138947839Y-90369140D01*
X138947839Y-90369140D02*
X138971648Y-90416759D01*
X138971648Y-90416759D02*
X138971648Y-90488188D01*
X138971648Y-90488188D02*
X138947839Y-90535807D01*
X138947839Y-90535807D02*
X138924029Y-90559616D01*
X138924029Y-90559616D02*
X138876410Y-90583426D01*
X138876410Y-90583426D02*
X138685934Y-90583426D01*
X139138315Y-90321521D02*
X139447839Y-90321521D01*
X139447839Y-90321521D02*
X139281172Y-90511997D01*
X139281172Y-90511997D02*
X139352601Y-90511997D01*
X139352601Y-90511997D02*
X139400220Y-90535807D01*
X139400220Y-90535807D02*
X139424029Y-90559616D01*
X139424029Y-90559616D02*
X139447839Y-90607235D01*
X139447839Y-90607235D02*
X139447839Y-90726283D01*
X139447839Y-90726283D02*
X139424029Y-90773902D01*
X139424029Y-90773902D02*
X139400220Y-90797712D01*
X139400220Y-90797712D02*
X139352601Y-90821521D01*
X139352601Y-90821521D02*
X139209744Y-90821521D01*
X139209744Y-90821521D02*
X139162125Y-90797712D01*
X139162125Y-90797712D02*
X139138315Y-90773902D01*
X139638315Y-90369140D02*
X139662124Y-90345331D01*
X139662124Y-90345331D02*
X139709743Y-90321521D01*
X139709743Y-90321521D02*
X139828791Y-90321521D01*
X139828791Y-90321521D02*
X139876410Y-90345331D01*
X139876410Y-90345331D02*
X139900219Y-90369140D01*
X139900219Y-90369140D02*
X139924029Y-90416759D01*
X139924029Y-90416759D02*
X139924029Y-90464378D01*
X139924029Y-90464378D02*
X139900219Y-90535807D01*
X139900219Y-90535807D02*
X139614505Y-90821521D01*
X139614505Y-90821521D02*
X139924029Y-90821521D01*
X140138314Y-90631045D02*
X140519267Y-90631045D01*
X141043076Y-90773902D02*
X141019267Y-90797712D01*
X141019267Y-90797712D02*
X140947838Y-90821521D01*
X140947838Y-90821521D02*
X140900219Y-90821521D01*
X140900219Y-90821521D02*
X140828791Y-90797712D01*
X140828791Y-90797712D02*
X140781172Y-90750092D01*
X140781172Y-90750092D02*
X140757362Y-90702473D01*
X140757362Y-90702473D02*
X140733553Y-90607235D01*
X140733553Y-90607235D02*
X140733553Y-90535807D01*
X140733553Y-90535807D02*
X140757362Y-90440569D01*
X140757362Y-90440569D02*
X140781172Y-90392950D01*
X140781172Y-90392950D02*
X140828791Y-90345331D01*
X140828791Y-90345331D02*
X140900219Y-90321521D01*
X140900219Y-90321521D02*
X140947838Y-90321521D01*
X140947838Y-90321521D02*
X141019267Y-90345331D01*
X141019267Y-90345331D02*
X141043076Y-90369140D01*
X141471648Y-90321521D02*
X141376410Y-90321521D01*
X141376410Y-90321521D02*
X141328791Y-90345331D01*
X141328791Y-90345331D02*
X141304981Y-90369140D01*
X141304981Y-90369140D02*
X141257362Y-90440569D01*
X141257362Y-90440569D02*
X141233553Y-90535807D01*
X141233553Y-90535807D02*
X141233553Y-90726283D01*
X141233553Y-90726283D02*
X141257362Y-90773902D01*
X141257362Y-90773902D02*
X141281172Y-90797712D01*
X141281172Y-90797712D02*
X141328791Y-90821521D01*
X141328791Y-90821521D02*
X141424029Y-90821521D01*
X141424029Y-90821521D02*
X141471648Y-90797712D01*
X141471648Y-90797712D02*
X141495457Y-90773902D01*
X141495457Y-90773902D02*
X141519267Y-90726283D01*
X141519267Y-90726283D02*
X141519267Y-90607235D01*
X141519267Y-90607235D02*
X141495457Y-90559616D01*
X141495457Y-90559616D02*
X141471648Y-90535807D01*
X141471648Y-90535807D02*
X141424029Y-90511997D01*
X141424029Y-90511997D02*
X141328791Y-90511997D01*
X141328791Y-90511997D02*
X141281172Y-90535807D01*
X141281172Y-90535807D02*
X141257362Y-90559616D01*
X141257362Y-90559616D02*
X141233553Y-90607235D01*
X141995457Y-90821521D02*
X141709743Y-90821521D01*
X141852600Y-90821521D02*
X141852600Y-90321521D01*
X141852600Y-90321521D02*
X141804981Y-90392950D01*
X141804981Y-90392950D02*
X141757362Y-90440569D01*
X141757362Y-90440569D02*
X141709743Y-90464378D01*
X142566885Y-90797712D02*
X142638313Y-90821521D01*
X142638313Y-90821521D02*
X142757361Y-90821521D01*
X142757361Y-90821521D02*
X142804980Y-90797712D01*
X142804980Y-90797712D02*
X142828789Y-90773902D01*
X142828789Y-90773902D02*
X142852599Y-90726283D01*
X142852599Y-90726283D02*
X142852599Y-90678664D01*
X142852599Y-90678664D02*
X142828789Y-90631045D01*
X142828789Y-90631045D02*
X142804980Y-90607235D01*
X142804980Y-90607235D02*
X142757361Y-90583426D01*
X142757361Y-90583426D02*
X142662123Y-90559616D01*
X142662123Y-90559616D02*
X142614504Y-90535807D01*
X142614504Y-90535807D02*
X142590694Y-90511997D01*
X142590694Y-90511997D02*
X142566885Y-90464378D01*
X142566885Y-90464378D02*
X142566885Y-90416759D01*
X142566885Y-90416759D02*
X142590694Y-90369140D01*
X142590694Y-90369140D02*
X142614504Y-90345331D01*
X142614504Y-90345331D02*
X142662123Y-90321521D01*
X142662123Y-90321521D02*
X142781170Y-90321521D01*
X142781170Y-90321521D02*
X142852599Y-90345331D01*
X143066884Y-90821521D02*
X143066884Y-90321521D01*
X143304979Y-90821521D02*
X143304979Y-90321521D01*
X143304979Y-90321521D02*
X143424027Y-90321521D01*
X143424027Y-90321521D02*
X143495455Y-90345331D01*
X143495455Y-90345331D02*
X143543074Y-90392950D01*
X143543074Y-90392950D02*
X143566884Y-90440569D01*
X143566884Y-90440569D02*
X143590693Y-90535807D01*
X143590693Y-90535807D02*
X143590693Y-90607235D01*
X143590693Y-90607235D02*
X143566884Y-90702473D01*
X143566884Y-90702473D02*
X143543074Y-90750092D01*
X143543074Y-90750092D02*
X143495455Y-90797712D01*
X143495455Y-90797712D02*
X143424027Y-90821521D01*
X143424027Y-90821521D02*
X143304979Y-90821521D01*
X143804979Y-90559616D02*
X143971646Y-90559616D01*
X144043074Y-90821521D02*
X143804979Y-90821521D01*
X143804979Y-90821521D02*
X143804979Y-90321521D01*
X143804979Y-90321521D02*
X144043074Y-90321521D01*
X144543074Y-90773902D02*
X144519265Y-90797712D01*
X144519265Y-90797712D02*
X144447836Y-90821521D01*
X144447836Y-90821521D02*
X144400217Y-90821521D01*
X144400217Y-90821521D02*
X144328789Y-90797712D01*
X144328789Y-90797712D02*
X144281170Y-90750092D01*
X144281170Y-90750092D02*
X144257360Y-90702473D01*
X144257360Y-90702473D02*
X144233551Y-90607235D01*
X144233551Y-90607235D02*
X144233551Y-90535807D01*
X144233551Y-90535807D02*
X144257360Y-90440569D01*
X144257360Y-90440569D02*
X144281170Y-90392950D01*
X144281170Y-90392950D02*
X144328789Y-90345331D01*
X144328789Y-90345331D02*
X144400217Y-90321521D01*
X144400217Y-90321521D02*
X144447836Y-90321521D01*
X144447836Y-90321521D02*
X144519265Y-90345331D01*
X144519265Y-90345331D02*
X144543074Y-90369140D01*
X144733551Y-90678664D02*
X144971646Y-90678664D01*
X144685932Y-90821521D02*
X144852598Y-90321521D01*
X144852598Y-90321521D02*
X145019265Y-90821521D01*
X145471645Y-90821521D02*
X145304979Y-90583426D01*
X145185931Y-90821521D02*
X145185931Y-90321521D01*
X145185931Y-90321521D02*
X145376407Y-90321521D01*
X145376407Y-90321521D02*
X145424026Y-90345331D01*
X145424026Y-90345331D02*
X145447836Y-90369140D01*
X145447836Y-90369140D02*
X145471645Y-90416759D01*
X145471645Y-90416759D02*
X145471645Y-90488188D01*
X145471645Y-90488188D02*
X145447836Y-90535807D01*
X145447836Y-90535807D02*
X145424026Y-90559616D01*
X145424026Y-90559616D02*
X145376407Y-90583426D01*
X145376407Y-90583426D02*
X145185931Y-90583426D01*
X146043074Y-90369140D02*
X146066883Y-90345331D01*
X146066883Y-90345331D02*
X146114502Y-90321521D01*
X146114502Y-90321521D02*
X146233550Y-90321521D01*
X146233550Y-90321521D02*
X146281169Y-90345331D01*
X146281169Y-90345331D02*
X146304978Y-90369140D01*
X146304978Y-90369140D02*
X146328788Y-90416759D01*
X146328788Y-90416759D02*
X146328788Y-90464378D01*
X146328788Y-90464378D02*
X146304978Y-90535807D01*
X146304978Y-90535807D02*
X146019264Y-90821521D01*
X146019264Y-90821521D02*
X146328788Y-90821521D01*
X146638311Y-90321521D02*
X146685930Y-90321521D01*
X146685930Y-90321521D02*
X146733549Y-90345331D01*
X146733549Y-90345331D02*
X146757359Y-90369140D01*
X146757359Y-90369140D02*
X146781168Y-90416759D01*
X146781168Y-90416759D02*
X146804978Y-90511997D01*
X146804978Y-90511997D02*
X146804978Y-90631045D01*
X146804978Y-90631045D02*
X146781168Y-90726283D01*
X146781168Y-90726283D02*
X146757359Y-90773902D01*
X146757359Y-90773902D02*
X146733549Y-90797712D01*
X146733549Y-90797712D02*
X146685930Y-90821521D01*
X146685930Y-90821521D02*
X146638311Y-90821521D01*
X146638311Y-90821521D02*
X146590692Y-90797712D01*
X146590692Y-90797712D02*
X146566883Y-90773902D01*
X146566883Y-90773902D02*
X146543073Y-90726283D01*
X146543073Y-90726283D02*
X146519264Y-90631045D01*
X146519264Y-90631045D02*
X146519264Y-90511997D01*
X146519264Y-90511997D02*
X146543073Y-90416759D01*
X146543073Y-90416759D02*
X146566883Y-90369140D01*
X146566883Y-90369140D02*
X146590692Y-90345331D01*
X146590692Y-90345331D02*
X146638311Y-90321521D01*
X146995454Y-90369140D02*
X147019263Y-90345331D01*
X147019263Y-90345331D02*
X147066882Y-90321521D01*
X147066882Y-90321521D02*
X147185930Y-90321521D01*
X147185930Y-90321521D02*
X147233549Y-90345331D01*
X147233549Y-90345331D02*
X147257358Y-90369140D01*
X147257358Y-90369140D02*
X147281168Y-90416759D01*
X147281168Y-90416759D02*
X147281168Y-90464378D01*
X147281168Y-90464378D02*
X147257358Y-90535807D01*
X147257358Y-90535807D02*
X146971644Y-90821521D01*
X146971644Y-90821521D02*
X147281168Y-90821521D01*
X147709739Y-90321521D02*
X147614501Y-90321521D01*
X147614501Y-90321521D02*
X147566882Y-90345331D01*
X147566882Y-90345331D02*
X147543072Y-90369140D01*
X147543072Y-90369140D02*
X147495453Y-90440569D01*
X147495453Y-90440569D02*
X147471644Y-90535807D01*
X147471644Y-90535807D02*
X147471644Y-90726283D01*
X147471644Y-90726283D02*
X147495453Y-90773902D01*
X147495453Y-90773902D02*
X147519263Y-90797712D01*
X147519263Y-90797712D02*
X147566882Y-90821521D01*
X147566882Y-90821521D02*
X147662120Y-90821521D01*
X147662120Y-90821521D02*
X147709739Y-90797712D01*
X147709739Y-90797712D02*
X147733548Y-90773902D01*
X147733548Y-90773902D02*
X147757358Y-90726283D01*
X147757358Y-90726283D02*
X147757358Y-90607235D01*
X147757358Y-90607235D02*
X147733548Y-90559616D01*
X147733548Y-90559616D02*
X147709739Y-90535807D01*
X147709739Y-90535807D02*
X147662120Y-90511997D01*
X147662120Y-90511997D02*
X147566882Y-90511997D01*
X147566882Y-90511997D02*
X147519263Y-90535807D01*
X147519263Y-90535807D02*
X147495453Y-90559616D01*
X147495453Y-90559616D02*
X147471644Y-90607235D01*
X147971643Y-90631045D02*
X148352596Y-90631045D01*
X148733548Y-90321521D02*
X148733548Y-90678664D01*
X148733548Y-90678664D02*
X148709739Y-90750092D01*
X148709739Y-90750092D02*
X148662120Y-90797712D01*
X148662120Y-90797712D02*
X148590691Y-90821521D01*
X148590691Y-90821521D02*
X148543072Y-90821521D01*
X149185929Y-90488188D02*
X149185929Y-90821521D01*
X148971643Y-90488188D02*
X148971643Y-90750092D01*
X148971643Y-90750092D02*
X148995453Y-90797712D01*
X148995453Y-90797712D02*
X149043072Y-90821521D01*
X149043072Y-90821521D02*
X149114500Y-90821521D01*
X149114500Y-90821521D02*
X149162119Y-90797712D01*
X149162119Y-90797712D02*
X149185929Y-90773902D01*
X149424024Y-90488188D02*
X149424024Y-90821521D01*
X149424024Y-90535807D02*
X149447834Y-90511997D01*
X149447834Y-90511997D02*
X149495453Y-90488188D01*
X149495453Y-90488188D02*
X149566881Y-90488188D01*
X149566881Y-90488188D02*
X149614500Y-90511997D01*
X149614500Y-90511997D02*
X149638310Y-90559616D01*
X149638310Y-90559616D02*
X149638310Y-90821521D01*
X129743232Y-93140878D02*
X129457518Y-93140878D01*
X129600375Y-93140878D02*
X129600375Y-92640878D01*
X129600375Y-92640878D02*
X129552756Y-92712307D01*
X129552756Y-92712307D02*
X129505137Y-92759926D01*
X129505137Y-92759926D02*
X129457518Y-92783735D01*
X132446741Y-92857419D02*
X132399122Y-92833609D01*
X132399122Y-92833609D02*
X132327693Y-92833609D01*
X132327693Y-92833609D02*
X132256265Y-92857419D01*
X132256265Y-92857419D02*
X132208646Y-92905038D01*
X132208646Y-92905038D02*
X132184836Y-92952657D01*
X132184836Y-92952657D02*
X132161027Y-93047895D01*
X132161027Y-93047895D02*
X132161027Y-93119323D01*
X132161027Y-93119323D02*
X132184836Y-93214561D01*
X132184836Y-93214561D02*
X132208646Y-93262180D01*
X132208646Y-93262180D02*
X132256265Y-93309800D01*
X132256265Y-93309800D02*
X132327693Y-93333609D01*
X132327693Y-93333609D02*
X132375312Y-93333609D01*
X132375312Y-93333609D02*
X132446741Y-93309800D01*
X132446741Y-93309800D02*
X132470550Y-93285990D01*
X132470550Y-93285990D02*
X132470550Y-93119323D01*
X132470550Y-93119323D02*
X132375312Y-93119323D01*
X132756265Y-93047895D02*
X132708646Y-93024085D01*
X132708646Y-93024085D02*
X132684836Y-93000276D01*
X132684836Y-93000276D02*
X132661027Y-92952657D01*
X132661027Y-92952657D02*
X132661027Y-92928847D01*
X132661027Y-92928847D02*
X132684836Y-92881228D01*
X132684836Y-92881228D02*
X132708646Y-92857419D01*
X132708646Y-92857419D02*
X132756265Y-92833609D01*
X132756265Y-92833609D02*
X132851503Y-92833609D01*
X132851503Y-92833609D02*
X132899122Y-92857419D01*
X132899122Y-92857419D02*
X132922931Y-92881228D01*
X132922931Y-92881228D02*
X132946741Y-92928847D01*
X132946741Y-92928847D02*
X132946741Y-92952657D01*
X132946741Y-92952657D02*
X132922931Y-93000276D01*
X132922931Y-93000276D02*
X132899122Y-93024085D01*
X132899122Y-93024085D02*
X132851503Y-93047895D01*
X132851503Y-93047895D02*
X132756265Y-93047895D01*
X132756265Y-93047895D02*
X132708646Y-93071704D01*
X132708646Y-93071704D02*
X132684836Y-93095514D01*
X132684836Y-93095514D02*
X132661027Y-93143133D01*
X132661027Y-93143133D02*
X132661027Y-93238371D01*
X132661027Y-93238371D02*
X132684836Y-93285990D01*
X132684836Y-93285990D02*
X132708646Y-93309800D01*
X132708646Y-93309800D02*
X132756265Y-93333609D01*
X132756265Y-93333609D02*
X132851503Y-93333609D01*
X132851503Y-93333609D02*
X132899122Y-93309800D01*
X132899122Y-93309800D02*
X132922931Y-93285990D01*
X132922931Y-93285990D02*
X132946741Y-93238371D01*
X132946741Y-93238371D02*
X132946741Y-93143133D01*
X132946741Y-93143133D02*
X132922931Y-93095514D01*
X132922931Y-93095514D02*
X132899122Y-93071704D01*
X132899122Y-93071704D02*
X132851503Y-93047895D01*
X132446741Y-93857419D02*
X132399122Y-93833609D01*
X132399122Y-93833609D02*
X132327693Y-93833609D01*
X132327693Y-93833609D02*
X132256265Y-93857419D01*
X132256265Y-93857419D02*
X132208646Y-93905038D01*
X132208646Y-93905038D02*
X132184836Y-93952657D01*
X132184836Y-93952657D02*
X132161027Y-94047895D01*
X132161027Y-94047895D02*
X132161027Y-94119323D01*
X132161027Y-94119323D02*
X132184836Y-94214561D01*
X132184836Y-94214561D02*
X132208646Y-94262180D01*
X132208646Y-94262180D02*
X132256265Y-94309800D01*
X132256265Y-94309800D02*
X132327693Y-94333609D01*
X132327693Y-94333609D02*
X132375312Y-94333609D01*
X132375312Y-94333609D02*
X132446741Y-94309800D01*
X132446741Y-94309800D02*
X132470550Y-94285990D01*
X132470550Y-94285990D02*
X132470550Y-94119323D01*
X132470550Y-94119323D02*
X132375312Y-94119323D01*
X132708646Y-94333609D02*
X132803884Y-94333609D01*
X132803884Y-94333609D02*
X132851503Y-94309800D01*
X132851503Y-94309800D02*
X132875312Y-94285990D01*
X132875312Y-94285990D02*
X132922931Y-94214561D01*
X132922931Y-94214561D02*
X132946741Y-94119323D01*
X132946741Y-94119323D02*
X132946741Y-93928847D01*
X132946741Y-93928847D02*
X132922931Y-93881228D01*
X132922931Y-93881228D02*
X132899122Y-93857419D01*
X132899122Y-93857419D02*
X132851503Y-93833609D01*
X132851503Y-93833609D02*
X132756265Y-93833609D01*
X132756265Y-93833609D02*
X132708646Y-93857419D01*
X132708646Y-93857419D02*
X132684836Y-93881228D01*
X132684836Y-93881228D02*
X132661027Y-93928847D01*
X132661027Y-93928847D02*
X132661027Y-94047895D01*
X132661027Y-94047895D02*
X132684836Y-94095514D01*
X132684836Y-94095514D02*
X132708646Y-94119323D01*
X132708646Y-94119323D02*
X132756265Y-94143133D01*
X132756265Y-94143133D02*
X132851503Y-94143133D01*
X132851503Y-94143133D02*
X132899122Y-94119323D01*
X132899122Y-94119323D02*
X132922931Y-94095514D01*
X132922931Y-94095514D02*
X132946741Y-94047895D01*
X132470550Y-95333609D02*
X132303884Y-95095514D01*
X132184836Y-95333609D02*
X132184836Y-94833609D01*
X132184836Y-94833609D02*
X132375312Y-94833609D01*
X132375312Y-94833609D02*
X132422931Y-94857419D01*
X132422931Y-94857419D02*
X132446741Y-94881228D01*
X132446741Y-94881228D02*
X132470550Y-94928847D01*
X132470550Y-94928847D02*
X132470550Y-95000276D01*
X132470550Y-95000276D02*
X132446741Y-95047895D01*
X132446741Y-95047895D02*
X132422931Y-95071704D01*
X132422931Y-95071704D02*
X132375312Y-95095514D01*
X132375312Y-95095514D02*
X132184836Y-95095514D01*
X132637217Y-94833609D02*
X132970550Y-95333609D01*
X132970550Y-94833609D02*
X132637217Y-95333609D01*
X132184836Y-102183609D02*
X132184836Y-101683609D01*
X132184836Y-101683609D02*
X132375312Y-101683609D01*
X132375312Y-101683609D02*
X132422931Y-101707419D01*
X132422931Y-101707419D02*
X132446741Y-101731228D01*
X132446741Y-101731228D02*
X132470550Y-101778847D01*
X132470550Y-101778847D02*
X132470550Y-101850276D01*
X132470550Y-101850276D02*
X132446741Y-101897895D01*
X132446741Y-101897895D02*
X132422931Y-101921704D01*
X132422931Y-101921704D02*
X132375312Y-101945514D01*
X132375312Y-101945514D02*
X132184836Y-101945514D01*
X132661027Y-102159800D02*
X132732455Y-102183609D01*
X132732455Y-102183609D02*
X132851503Y-102183609D01*
X132851503Y-102183609D02*
X132899122Y-102159800D01*
X132899122Y-102159800D02*
X132922931Y-102135990D01*
X132922931Y-102135990D02*
X132946741Y-102088371D01*
X132946741Y-102088371D02*
X132946741Y-102040752D01*
X132946741Y-102040752D02*
X132922931Y-101993133D01*
X132922931Y-101993133D02*
X132899122Y-101969323D01*
X132899122Y-101969323D02*
X132851503Y-101945514D01*
X132851503Y-101945514D02*
X132756265Y-101921704D01*
X132756265Y-101921704D02*
X132708646Y-101897895D01*
X132708646Y-101897895D02*
X132684836Y-101874085D01*
X132684836Y-101874085D02*
X132661027Y-101826466D01*
X132661027Y-101826466D02*
X132661027Y-101778847D01*
X132661027Y-101778847D02*
X132684836Y-101731228D01*
X132684836Y-101731228D02*
X132708646Y-101707419D01*
X132708646Y-101707419D02*
X132756265Y-101683609D01*
X132756265Y-101683609D02*
X132875312Y-101683609D01*
X132875312Y-101683609D02*
X132946741Y-101707419D01*
X133089598Y-101683609D02*
X133375312Y-101683609D01*
X133232455Y-102183609D02*
X133232455Y-101683609D01*
X133803883Y-102183609D02*
X133518169Y-102183609D01*
X133661026Y-102183609D02*
X133661026Y-101683609D01*
X133661026Y-101683609D02*
X133613407Y-101755038D01*
X133613407Y-101755038D02*
X133565788Y-101802657D01*
X133565788Y-101802657D02*
X133518169Y-101826466D01*
X132184836Y-103233609D02*
X132184836Y-102733609D01*
X132184836Y-102733609D02*
X132375312Y-102733609D01*
X132375312Y-102733609D02*
X132422931Y-102757419D01*
X132422931Y-102757419D02*
X132446741Y-102781228D01*
X132446741Y-102781228D02*
X132470550Y-102828847D01*
X132470550Y-102828847D02*
X132470550Y-102900276D01*
X132470550Y-102900276D02*
X132446741Y-102947895D01*
X132446741Y-102947895D02*
X132422931Y-102971704D01*
X132422931Y-102971704D02*
X132375312Y-102995514D01*
X132375312Y-102995514D02*
X132184836Y-102995514D01*
X132661027Y-103209800D02*
X132732455Y-103233609D01*
X132732455Y-103233609D02*
X132851503Y-103233609D01*
X132851503Y-103233609D02*
X132899122Y-103209800D01*
X132899122Y-103209800D02*
X132922931Y-103185990D01*
X132922931Y-103185990D02*
X132946741Y-103138371D01*
X132946741Y-103138371D02*
X132946741Y-103090752D01*
X132946741Y-103090752D02*
X132922931Y-103043133D01*
X132922931Y-103043133D02*
X132899122Y-103019323D01*
X132899122Y-103019323D02*
X132851503Y-102995514D01*
X132851503Y-102995514D02*
X132756265Y-102971704D01*
X132756265Y-102971704D02*
X132708646Y-102947895D01*
X132708646Y-102947895D02*
X132684836Y-102924085D01*
X132684836Y-102924085D02*
X132661027Y-102876466D01*
X132661027Y-102876466D02*
X132661027Y-102828847D01*
X132661027Y-102828847D02*
X132684836Y-102781228D01*
X132684836Y-102781228D02*
X132708646Y-102757419D01*
X132708646Y-102757419D02*
X132756265Y-102733609D01*
X132756265Y-102733609D02*
X132875312Y-102733609D01*
X132875312Y-102733609D02*
X132946741Y-102757419D01*
X133089598Y-102733609D02*
X133375312Y-102733609D01*
X133232455Y-103233609D02*
X133232455Y-102733609D01*
X133518169Y-102781228D02*
X133541978Y-102757419D01*
X133541978Y-102757419D02*
X133589597Y-102733609D01*
X133589597Y-102733609D02*
X133708645Y-102733609D01*
X133708645Y-102733609D02*
X133756264Y-102757419D01*
X133756264Y-102757419D02*
X133780073Y-102781228D01*
X133780073Y-102781228D02*
X133803883Y-102828847D01*
X133803883Y-102828847D02*
X133803883Y-102876466D01*
X133803883Y-102876466D02*
X133780073Y-102947895D01*
X133780073Y-102947895D02*
X133494359Y-103233609D01*
X133494359Y-103233609D02*
X133803883Y-103233609D01*
X132184836Y-104133609D02*
X132184836Y-103633609D01*
X132184836Y-103871704D02*
X132470550Y-103871704D01*
X132470550Y-104133609D02*
X132470550Y-103633609D01*
X132946741Y-104133609D02*
X132708646Y-104133609D01*
X132708646Y-104133609D02*
X132708646Y-103633609D01*
X133113408Y-104133609D02*
X133113408Y-103633609D01*
X133113408Y-103633609D02*
X133303884Y-103633609D01*
X133303884Y-103633609D02*
X133351503Y-103657419D01*
X133351503Y-103657419D02*
X133375313Y-103681228D01*
X133375313Y-103681228D02*
X133399122Y-103728847D01*
X133399122Y-103728847D02*
X133399122Y-103800276D01*
X133399122Y-103800276D02*
X133375313Y-103847895D01*
X133375313Y-103847895D02*
X133351503Y-103871704D01*
X133351503Y-103871704D02*
X133303884Y-103895514D01*
X133303884Y-103895514D02*
X133113408Y-103895514D01*
X133708646Y-103633609D02*
X133803884Y-103633609D01*
X133803884Y-103633609D02*
X133851503Y-103657419D01*
X133851503Y-103657419D02*
X133899122Y-103705038D01*
X133899122Y-103705038D02*
X133922932Y-103800276D01*
X133922932Y-103800276D02*
X133922932Y-103966942D01*
X133922932Y-103966942D02*
X133899122Y-104062180D01*
X133899122Y-104062180D02*
X133851503Y-104109800D01*
X133851503Y-104109800D02*
X133803884Y-104133609D01*
X133803884Y-104133609D02*
X133708646Y-104133609D01*
X133708646Y-104133609D02*
X133661027Y-104109800D01*
X133661027Y-104109800D02*
X133613408Y-104062180D01*
X133613408Y-104062180D02*
X133589599Y-103966942D01*
X133589599Y-103966942D02*
X133589599Y-103800276D01*
X133589599Y-103800276D02*
X133613408Y-103705038D01*
X133613408Y-103705038D02*
X133661027Y-103657419D01*
X133661027Y-103657419D02*
X133708646Y-103633609D01*
X134089599Y-103633609D02*
X134208647Y-104133609D01*
X134208647Y-104133609D02*
X134303885Y-103776466D01*
X134303885Y-103776466D02*
X134399123Y-104133609D01*
X134399123Y-104133609D02*
X134518171Y-103633609D01*
X132496741Y-96757419D02*
X132449122Y-96733609D01*
X132449122Y-96733609D02*
X132377693Y-96733609D01*
X132377693Y-96733609D02*
X132306265Y-96757419D01*
X132306265Y-96757419D02*
X132258646Y-96805038D01*
X132258646Y-96805038D02*
X132234836Y-96852657D01*
X132234836Y-96852657D02*
X132211027Y-96947895D01*
X132211027Y-96947895D02*
X132211027Y-97019323D01*
X132211027Y-97019323D02*
X132234836Y-97114561D01*
X132234836Y-97114561D02*
X132258646Y-97162180D01*
X132258646Y-97162180D02*
X132306265Y-97209800D01*
X132306265Y-97209800D02*
X132377693Y-97233609D01*
X132377693Y-97233609D02*
X132425312Y-97233609D01*
X132425312Y-97233609D02*
X132496741Y-97209800D01*
X132496741Y-97209800D02*
X132520550Y-97185990D01*
X132520550Y-97185990D02*
X132520550Y-97019323D01*
X132520550Y-97019323D02*
X132425312Y-97019323D01*
X132734836Y-97233609D02*
X132734836Y-96733609D01*
X132734836Y-96733609D02*
X133020550Y-97233609D01*
X133020550Y-97233609D02*
X133020550Y-96733609D01*
X133258646Y-97233609D02*
X133258646Y-96733609D01*
X133258646Y-96733609D02*
X133377694Y-96733609D01*
X133377694Y-96733609D02*
X133449122Y-96757419D01*
X133449122Y-96757419D02*
X133496741Y-96805038D01*
X133496741Y-96805038D02*
X133520551Y-96852657D01*
X133520551Y-96852657D02*
X133544360Y-96947895D01*
X133544360Y-96947895D02*
X133544360Y-97019323D01*
X133544360Y-97019323D02*
X133520551Y-97114561D01*
X133520551Y-97114561D02*
X133496741Y-97162180D01*
X133496741Y-97162180D02*
X133449122Y-97209800D01*
X133449122Y-97209800D02*
X133377694Y-97233609D01*
X133377694Y-97233609D02*
X133258646Y-97233609D01*
X132163408Y-97683609D02*
X132330074Y-98183609D01*
X132330074Y-98183609D02*
X132496741Y-97683609D01*
X132830074Y-97921704D02*
X132901502Y-97945514D01*
X132901502Y-97945514D02*
X132925312Y-97969323D01*
X132925312Y-97969323D02*
X132949121Y-98016942D01*
X132949121Y-98016942D02*
X132949121Y-98088371D01*
X132949121Y-98088371D02*
X132925312Y-98135990D01*
X132925312Y-98135990D02*
X132901502Y-98159800D01*
X132901502Y-98159800D02*
X132853883Y-98183609D01*
X132853883Y-98183609D02*
X132663407Y-98183609D01*
X132663407Y-98183609D02*
X132663407Y-97683609D01*
X132663407Y-97683609D02*
X132830074Y-97683609D01*
X132830074Y-97683609D02*
X132877693Y-97707419D01*
X132877693Y-97707419D02*
X132901502Y-97731228D01*
X132901502Y-97731228D02*
X132925312Y-97778847D01*
X132925312Y-97778847D02*
X132925312Y-97826466D01*
X132925312Y-97826466D02*
X132901502Y-97874085D01*
X132901502Y-97874085D02*
X132877693Y-97897895D01*
X132877693Y-97897895D02*
X132830074Y-97921704D01*
X132830074Y-97921704D02*
X132663407Y-97921704D01*
X133163407Y-97683609D02*
X133163407Y-98088371D01*
X133163407Y-98088371D02*
X133187217Y-98135990D01*
X133187217Y-98135990D02*
X133211026Y-98159800D01*
X133211026Y-98159800D02*
X133258645Y-98183609D01*
X133258645Y-98183609D02*
X133353883Y-98183609D01*
X133353883Y-98183609D02*
X133401502Y-98159800D01*
X133401502Y-98159800D02*
X133425312Y-98135990D01*
X133425312Y-98135990D02*
X133449121Y-98088371D01*
X133449121Y-98088371D02*
X133449121Y-97683609D01*
X133663408Y-98159800D02*
X133734836Y-98183609D01*
X133734836Y-98183609D02*
X133853884Y-98183609D01*
X133853884Y-98183609D02*
X133901503Y-98159800D01*
X133901503Y-98159800D02*
X133925312Y-98135990D01*
X133925312Y-98135990D02*
X133949122Y-98088371D01*
X133949122Y-98088371D02*
X133949122Y-98040752D01*
X133949122Y-98040752D02*
X133925312Y-97993133D01*
X133925312Y-97993133D02*
X133901503Y-97969323D01*
X133901503Y-97969323D02*
X133853884Y-97945514D01*
X133853884Y-97945514D02*
X133758646Y-97921704D01*
X133758646Y-97921704D02*
X133711027Y-97897895D01*
X133711027Y-97897895D02*
X133687217Y-97874085D01*
X133687217Y-97874085D02*
X133663408Y-97826466D01*
X133663408Y-97826466D02*
X133663408Y-97778847D01*
X133663408Y-97778847D02*
X133687217Y-97731228D01*
X133687217Y-97731228D02*
X133711027Y-97707419D01*
X133711027Y-97707419D02*
X133758646Y-97683609D01*
X133758646Y-97683609D02*
X133877693Y-97683609D01*
X133877693Y-97683609D02*
X133949122Y-97707419D01*
X132187217Y-98783609D02*
X132496741Y-98783609D01*
X132496741Y-98783609D02*
X132330074Y-98974085D01*
X132330074Y-98974085D02*
X132401503Y-98974085D01*
X132401503Y-98974085D02*
X132449122Y-98997895D01*
X132449122Y-98997895D02*
X132472931Y-99021704D01*
X132472931Y-99021704D02*
X132496741Y-99069323D01*
X132496741Y-99069323D02*
X132496741Y-99188371D01*
X132496741Y-99188371D02*
X132472931Y-99235990D01*
X132472931Y-99235990D02*
X132449122Y-99259800D01*
X132449122Y-99259800D02*
X132401503Y-99283609D01*
X132401503Y-99283609D02*
X132258646Y-99283609D01*
X132258646Y-99283609D02*
X132211027Y-99259800D01*
X132211027Y-99259800D02*
X132187217Y-99235990D01*
X132711026Y-99235990D02*
X132734836Y-99259800D01*
X132734836Y-99259800D02*
X132711026Y-99283609D01*
X132711026Y-99283609D02*
X132687217Y-99259800D01*
X132687217Y-99259800D02*
X132711026Y-99235990D01*
X132711026Y-99235990D02*
X132711026Y-99283609D01*
X132901502Y-98783609D02*
X133211026Y-98783609D01*
X133211026Y-98783609D02*
X133044359Y-98974085D01*
X133044359Y-98974085D02*
X133115788Y-98974085D01*
X133115788Y-98974085D02*
X133163407Y-98997895D01*
X133163407Y-98997895D02*
X133187216Y-99021704D01*
X133187216Y-99021704D02*
X133211026Y-99069323D01*
X133211026Y-99069323D02*
X133211026Y-99188371D01*
X133211026Y-99188371D02*
X133187216Y-99235990D01*
X133187216Y-99235990D02*
X133163407Y-99259800D01*
X133163407Y-99259800D02*
X133115788Y-99283609D01*
X133115788Y-99283609D02*
X132972931Y-99283609D01*
X132972931Y-99283609D02*
X132925312Y-99259800D01*
X132925312Y-99259800D02*
X132901502Y-99235990D01*
X133353883Y-98783609D02*
X133520549Y-99283609D01*
X133520549Y-99283609D02*
X133687216Y-98783609D01*
X132211027Y-100990752D02*
X132449122Y-100990752D01*
X132163408Y-101133609D02*
X132330074Y-100633609D01*
X132330074Y-100633609D02*
X132496741Y-101133609D01*
X132615788Y-100633609D02*
X132925312Y-100633609D01*
X132925312Y-100633609D02*
X132758645Y-100824085D01*
X132758645Y-100824085D02*
X132830074Y-100824085D01*
X132830074Y-100824085D02*
X132877693Y-100847895D01*
X132877693Y-100847895D02*
X132901502Y-100871704D01*
X132901502Y-100871704D02*
X132925312Y-100919323D01*
X132925312Y-100919323D02*
X132925312Y-101038371D01*
X132925312Y-101038371D02*
X132901502Y-101085990D01*
X132901502Y-101085990D02*
X132877693Y-101109800D01*
X132877693Y-101109800D02*
X132830074Y-101133609D01*
X132830074Y-101133609D02*
X132687217Y-101133609D01*
X132687217Y-101133609D02*
X132639598Y-101109800D01*
X132639598Y-101109800D02*
X132615788Y-101085990D01*
X133353883Y-100800276D02*
X133353883Y-101133609D01*
X133234835Y-100609800D02*
X133115788Y-100966942D01*
X133115788Y-100966942D02*
X133425311Y-100966942D01*
X132213408Y-95733609D02*
X132499122Y-95733609D01*
X132356265Y-96233609D02*
X132356265Y-95733609D01*
X132618169Y-95733609D02*
X132951502Y-96233609D01*
X132951502Y-95733609D02*
X132618169Y-96233609D01*
X132261027Y-99990752D02*
X132499122Y-99990752D01*
X132213408Y-100133609D02*
X132380074Y-99633609D01*
X132380074Y-99633609D02*
X132546741Y-100133609D01*
X132975312Y-100133609D02*
X132689598Y-100133609D01*
X132832455Y-100133609D02*
X132832455Y-99633609D01*
X132832455Y-99633609D02*
X132784836Y-99705038D01*
X132784836Y-99705038D02*
X132737217Y-99752657D01*
X132737217Y-99752657D02*
X132689598Y-99776466D01*
X133165788Y-99681228D02*
X133189597Y-99657419D01*
X133189597Y-99657419D02*
X133237216Y-99633609D01*
X133237216Y-99633609D02*
X133356264Y-99633609D01*
X133356264Y-99633609D02*
X133403883Y-99657419D01*
X133403883Y-99657419D02*
X133427692Y-99681228D01*
X133427692Y-99681228D02*
X133451502Y-99728847D01*
X133451502Y-99728847D02*
X133451502Y-99776466D01*
X133451502Y-99776466D02*
X133427692Y-99847895D01*
X133427692Y-99847895D02*
X133141978Y-100133609D01*
X133141978Y-100133609D02*
X133451502Y-100133609D01*
D11*
X9476667Y-2954318D02*
X9476667Y-3861461D01*
X9476667Y-3861461D02*
X9416190Y-4042889D01*
X9416190Y-4042889D02*
X9295238Y-4163842D01*
X9295238Y-4163842D02*
X9113809Y-4224318D01*
X9113809Y-4224318D02*
X8992857Y-4224318D01*
X10020952Y-3075270D02*
X10081428Y-3014794D01*
X10081428Y-3014794D02*
X10202381Y-2954318D01*
X10202381Y-2954318D02*
X10504762Y-2954318D01*
X10504762Y-2954318D02*
X10625714Y-3014794D01*
X10625714Y-3014794D02*
X10686190Y-3075270D01*
X10686190Y-3075270D02*
X10746667Y-3196222D01*
X10746667Y-3196222D02*
X10746667Y-3317175D01*
X10746667Y-3317175D02*
X10686190Y-3498603D01*
X10686190Y-3498603D02*
X9960476Y-4224318D01*
X9960476Y-4224318D02*
X10746667Y-4224318D01*
D10*
X144049847Y-101166666D02*
X143859371Y-101299999D01*
X144049847Y-101395237D02*
X143649847Y-101395237D01*
X143649847Y-101395237D02*
X143649847Y-101242856D01*
X143649847Y-101242856D02*
X143668895Y-101204761D01*
X143668895Y-101204761D02*
X143687942Y-101185714D01*
X143687942Y-101185714D02*
X143726038Y-101166666D01*
X143726038Y-101166666D02*
X143783180Y-101166666D01*
X143783180Y-101166666D02*
X143821276Y-101185714D01*
X143821276Y-101185714D02*
X143840323Y-101204761D01*
X143840323Y-101204761D02*
X143859371Y-101242856D01*
X143859371Y-101242856D02*
X143859371Y-101395237D01*
X143821276Y-100938095D02*
X143802228Y-100976190D01*
X143802228Y-100976190D02*
X143783180Y-100995237D01*
X143783180Y-100995237D02*
X143745085Y-101014285D01*
X143745085Y-101014285D02*
X143726038Y-101014285D01*
X143726038Y-101014285D02*
X143687942Y-100995237D01*
X143687942Y-100995237D02*
X143668895Y-100976190D01*
X143668895Y-100976190D02*
X143649847Y-100938095D01*
X143649847Y-100938095D02*
X143649847Y-100861904D01*
X143649847Y-100861904D02*
X143668895Y-100823809D01*
X143668895Y-100823809D02*
X143687942Y-100804761D01*
X143687942Y-100804761D02*
X143726038Y-100785714D01*
X143726038Y-100785714D02*
X143745085Y-100785714D01*
X143745085Y-100785714D02*
X143783180Y-100804761D01*
X143783180Y-100804761D02*
X143802228Y-100823809D01*
X143802228Y-100823809D02*
X143821276Y-100861904D01*
X143821276Y-100861904D02*
X143821276Y-100938095D01*
X143821276Y-100938095D02*
X143840323Y-100976190D01*
X143840323Y-100976190D02*
X143859371Y-100995237D01*
X143859371Y-100995237D02*
X143897466Y-101014285D01*
X143897466Y-101014285D02*
X143973657Y-101014285D01*
X143973657Y-101014285D02*
X144011752Y-100995237D01*
X144011752Y-100995237D02*
X144030800Y-100976190D01*
X144030800Y-100976190D02*
X144049847Y-100938095D01*
X144049847Y-100938095D02*
X144049847Y-100861904D01*
X144049847Y-100861904D02*
X144030800Y-100823809D01*
X144030800Y-100823809D02*
X144011752Y-100804761D01*
X144011752Y-100804761D02*
X143973657Y-100785714D01*
X143973657Y-100785714D02*
X143897466Y-100785714D01*
X143897466Y-100785714D02*
X143859371Y-100804761D01*
X143859371Y-100804761D02*
X143840323Y-100823809D01*
X143840323Y-100823809D02*
X143821276Y-100861904D01*
X144922776Y-101730951D02*
X145256109Y-101730951D01*
X144732300Y-101849999D02*
X145089442Y-101969046D01*
X145089442Y-101969046D02*
X145089442Y-101659523D01*
X145256109Y-101445237D02*
X145256109Y-101349999D01*
X145256109Y-101349999D02*
X145232300Y-101302380D01*
X145232300Y-101302380D02*
X145208490Y-101278571D01*
X145208490Y-101278571D02*
X145137061Y-101230952D01*
X145137061Y-101230952D02*
X145041823Y-101207142D01*
X145041823Y-101207142D02*
X144851347Y-101207142D01*
X144851347Y-101207142D02*
X144803728Y-101230952D01*
X144803728Y-101230952D02*
X144779919Y-101254761D01*
X144779919Y-101254761D02*
X144756109Y-101302380D01*
X144756109Y-101302380D02*
X144756109Y-101397618D01*
X144756109Y-101397618D02*
X144779919Y-101445237D01*
X144779919Y-101445237D02*
X144803728Y-101469047D01*
X144803728Y-101469047D02*
X144851347Y-101492856D01*
X144851347Y-101492856D02*
X144970395Y-101492856D01*
X144970395Y-101492856D02*
X145018014Y-101469047D01*
X145018014Y-101469047D02*
X145041823Y-101445237D01*
X145041823Y-101445237D02*
X145065633Y-101397618D01*
X145065633Y-101397618D02*
X145065633Y-101302380D01*
X145065633Y-101302380D02*
X145041823Y-101254761D01*
X145041823Y-101254761D02*
X145018014Y-101230952D01*
X145018014Y-101230952D02*
X144970395Y-101207142D01*
X145256109Y-100969047D02*
X145256109Y-100873809D01*
X145256109Y-100873809D02*
X145232300Y-100826190D01*
X145232300Y-100826190D02*
X145208490Y-100802381D01*
X145208490Y-100802381D02*
X145137061Y-100754762D01*
X145137061Y-100754762D02*
X145041823Y-100730952D01*
X145041823Y-100730952D02*
X144851347Y-100730952D01*
X144851347Y-100730952D02*
X144803728Y-100754762D01*
X144803728Y-100754762D02*
X144779919Y-100778571D01*
X144779919Y-100778571D02*
X144756109Y-100826190D01*
X144756109Y-100826190D02*
X144756109Y-100921428D01*
X144756109Y-100921428D02*
X144779919Y-100969047D01*
X144779919Y-100969047D02*
X144803728Y-100992857D01*
X144803728Y-100992857D02*
X144851347Y-101016666D01*
X144851347Y-101016666D02*
X144970395Y-101016666D01*
X144970395Y-101016666D02*
X145018014Y-100992857D01*
X145018014Y-100992857D02*
X145041823Y-100969047D01*
X145041823Y-100969047D02*
X145065633Y-100921428D01*
X145065633Y-100921428D02*
X145065633Y-100826190D01*
X145065633Y-100826190D02*
X145041823Y-100778571D01*
X145041823Y-100778571D02*
X145018014Y-100754762D01*
X145018014Y-100754762D02*
X144970395Y-100730952D01*
X145256109Y-100230953D02*
X145018014Y-100397619D01*
X145256109Y-100516667D02*
X144756109Y-100516667D01*
X144756109Y-100516667D02*
X144756109Y-100326191D01*
X144756109Y-100326191D02*
X144779919Y-100278572D01*
X144779919Y-100278572D02*
X144803728Y-100254762D01*
X144803728Y-100254762D02*
X144851347Y-100230953D01*
X144851347Y-100230953D02*
X144922776Y-100230953D01*
X144922776Y-100230953D02*
X144970395Y-100254762D01*
X144970395Y-100254762D02*
X144994204Y-100278572D01*
X144994204Y-100278572D02*
X145018014Y-100326191D01*
X145018014Y-100326191D02*
X145018014Y-100516667D01*
X142495238Y-104729847D02*
X142495238Y-105053657D01*
X142495238Y-105053657D02*
X142514285Y-105091752D01*
X142514285Y-105091752D02*
X142533333Y-105110800D01*
X142533333Y-105110800D02*
X142571428Y-105129847D01*
X142571428Y-105129847D02*
X142647619Y-105129847D01*
X142647619Y-105129847D02*
X142685714Y-105110800D01*
X142685714Y-105110800D02*
X142704761Y-105091752D01*
X142704761Y-105091752D02*
X142723809Y-105053657D01*
X142723809Y-105053657D02*
X142723809Y-104729847D01*
X143123809Y-105129847D02*
X142895238Y-105129847D01*
X143009524Y-105129847D02*
X143009524Y-104729847D01*
X143009524Y-104729847D02*
X142971428Y-104786990D01*
X142971428Y-104786990D02*
X142933333Y-104825085D01*
X142933333Y-104825085D02*
X142895238Y-104844133D01*
X139978572Y-111964204D02*
X140145239Y-111964204D01*
X140216667Y-112226109D02*
X139978572Y-112226109D01*
X139978572Y-112226109D02*
X139978572Y-111726109D01*
X139978572Y-111726109D02*
X140216667Y-111726109D01*
X140407144Y-112202300D02*
X140478572Y-112226109D01*
X140478572Y-112226109D02*
X140597620Y-112226109D01*
X140597620Y-112226109D02*
X140645239Y-112202300D01*
X140645239Y-112202300D02*
X140669048Y-112178490D01*
X140669048Y-112178490D02*
X140692858Y-112130871D01*
X140692858Y-112130871D02*
X140692858Y-112083252D01*
X140692858Y-112083252D02*
X140669048Y-112035633D01*
X140669048Y-112035633D02*
X140645239Y-112011823D01*
X140645239Y-112011823D02*
X140597620Y-111988014D01*
X140597620Y-111988014D02*
X140502382Y-111964204D01*
X140502382Y-111964204D02*
X140454763Y-111940395D01*
X140454763Y-111940395D02*
X140430953Y-111916585D01*
X140430953Y-111916585D02*
X140407144Y-111868966D01*
X140407144Y-111868966D02*
X140407144Y-111821347D01*
X140407144Y-111821347D02*
X140430953Y-111773728D01*
X140430953Y-111773728D02*
X140454763Y-111749919D01*
X140454763Y-111749919D02*
X140502382Y-111726109D01*
X140502382Y-111726109D02*
X140621429Y-111726109D01*
X140621429Y-111726109D02*
X140692858Y-111749919D01*
X140907143Y-112226109D02*
X140907143Y-111726109D01*
X140907143Y-111726109D02*
X141097619Y-111726109D01*
X141097619Y-111726109D02*
X141145238Y-111749919D01*
X141145238Y-111749919D02*
X141169048Y-111773728D01*
X141169048Y-111773728D02*
X141192857Y-111821347D01*
X141192857Y-111821347D02*
X141192857Y-111892776D01*
X141192857Y-111892776D02*
X141169048Y-111940395D01*
X141169048Y-111940395D02*
X141145238Y-111964204D01*
X141145238Y-111964204D02*
X141097619Y-111988014D01*
X141097619Y-111988014D02*
X140907143Y-111988014D01*
X141359524Y-111726109D02*
X141669048Y-111726109D01*
X141669048Y-111726109D02*
X141502381Y-111916585D01*
X141502381Y-111916585D02*
X141573810Y-111916585D01*
X141573810Y-111916585D02*
X141621429Y-111940395D01*
X141621429Y-111940395D02*
X141645238Y-111964204D01*
X141645238Y-111964204D02*
X141669048Y-112011823D01*
X141669048Y-112011823D02*
X141669048Y-112130871D01*
X141669048Y-112130871D02*
X141645238Y-112178490D01*
X141645238Y-112178490D02*
X141621429Y-112202300D01*
X141621429Y-112202300D02*
X141573810Y-112226109D01*
X141573810Y-112226109D02*
X141430953Y-112226109D01*
X141430953Y-112226109D02*
X141383334Y-112202300D01*
X141383334Y-112202300D02*
X141359524Y-112178490D01*
X141859524Y-111773728D02*
X141883333Y-111749919D01*
X141883333Y-111749919D02*
X141930952Y-111726109D01*
X141930952Y-111726109D02*
X142050000Y-111726109D01*
X142050000Y-111726109D02*
X142097619Y-111749919D01*
X142097619Y-111749919D02*
X142121428Y-111773728D01*
X142121428Y-111773728D02*
X142145238Y-111821347D01*
X142145238Y-111821347D02*
X142145238Y-111868966D01*
X142145238Y-111868966D02*
X142121428Y-111940395D01*
X142121428Y-111940395D02*
X141835714Y-112226109D01*
X141835714Y-112226109D02*
X142145238Y-112226109D01*
X142359523Y-112035633D02*
X142740476Y-112035633D01*
X143264285Y-112178490D02*
X143240476Y-112202300D01*
X143240476Y-112202300D02*
X143169047Y-112226109D01*
X143169047Y-112226109D02*
X143121428Y-112226109D01*
X143121428Y-112226109D02*
X143050000Y-112202300D01*
X143050000Y-112202300D02*
X143002381Y-112154680D01*
X143002381Y-112154680D02*
X142978571Y-112107061D01*
X142978571Y-112107061D02*
X142954762Y-112011823D01*
X142954762Y-112011823D02*
X142954762Y-111940395D01*
X142954762Y-111940395D02*
X142978571Y-111845157D01*
X142978571Y-111845157D02*
X143002381Y-111797538D01*
X143002381Y-111797538D02*
X143050000Y-111749919D01*
X143050000Y-111749919D02*
X143121428Y-111726109D01*
X143121428Y-111726109D02*
X143169047Y-111726109D01*
X143169047Y-111726109D02*
X143240476Y-111749919D01*
X143240476Y-111749919D02*
X143264285Y-111773728D01*
X143692857Y-111726109D02*
X143597619Y-111726109D01*
X143597619Y-111726109D02*
X143550000Y-111749919D01*
X143550000Y-111749919D02*
X143526190Y-111773728D01*
X143526190Y-111773728D02*
X143478571Y-111845157D01*
X143478571Y-111845157D02*
X143454762Y-111940395D01*
X143454762Y-111940395D02*
X143454762Y-112130871D01*
X143454762Y-112130871D02*
X143478571Y-112178490D01*
X143478571Y-112178490D02*
X143502381Y-112202300D01*
X143502381Y-112202300D02*
X143550000Y-112226109D01*
X143550000Y-112226109D02*
X143645238Y-112226109D01*
X143645238Y-112226109D02*
X143692857Y-112202300D01*
X143692857Y-112202300D02*
X143716666Y-112178490D01*
X143716666Y-112178490D02*
X143740476Y-112130871D01*
X143740476Y-112130871D02*
X143740476Y-112011823D01*
X143740476Y-112011823D02*
X143716666Y-111964204D01*
X143716666Y-111964204D02*
X143692857Y-111940395D01*
X143692857Y-111940395D02*
X143645238Y-111916585D01*
X143645238Y-111916585D02*
X143550000Y-111916585D01*
X143550000Y-111916585D02*
X143502381Y-111940395D01*
X143502381Y-111940395D02*
X143478571Y-111964204D01*
X143478571Y-111964204D02*
X143454762Y-112011823D01*
X144216666Y-112226109D02*
X143930952Y-112226109D01*
X144073809Y-112226109D02*
X144073809Y-111726109D01*
X144073809Y-111726109D02*
X144026190Y-111797538D01*
X144026190Y-111797538D02*
X143978571Y-111845157D01*
X143978571Y-111845157D02*
X143930952Y-111868966D01*
X144430951Y-112226109D02*
X144430951Y-111726109D01*
X144430951Y-111964204D02*
X144716665Y-111964204D01*
X144716665Y-112226109D02*
X144716665Y-111726109D01*
X145121428Y-111964204D02*
X144954761Y-111964204D01*
X144954761Y-112226109D02*
X144954761Y-111726109D01*
X144954761Y-111726109D02*
X145192856Y-111726109D01*
X145597618Y-111892776D02*
X145597618Y-112226109D01*
X145478570Y-111702300D02*
X145359523Y-112059442D01*
X145359523Y-112059442D02*
X145669046Y-112059442D01*
D12*
X134616666Y-117074809D02*
X134450000Y-116836714D01*
X134330952Y-117074809D02*
X134330952Y-116574809D01*
X134330952Y-116574809D02*
X134521428Y-116574809D01*
X134521428Y-116574809D02*
X134569047Y-116598619D01*
X134569047Y-116598619D02*
X134592857Y-116622428D01*
X134592857Y-116622428D02*
X134616666Y-116670047D01*
X134616666Y-116670047D02*
X134616666Y-116741476D01*
X134616666Y-116741476D02*
X134592857Y-116789095D01*
X134592857Y-116789095D02*
X134569047Y-116812904D01*
X134569047Y-116812904D02*
X134521428Y-116836714D01*
X134521428Y-116836714D02*
X134330952Y-116836714D01*
X135092857Y-117074809D02*
X134807143Y-117074809D01*
X134950000Y-117074809D02*
X134950000Y-116574809D01*
X134950000Y-116574809D02*
X134902381Y-116646238D01*
X134902381Y-116646238D02*
X134854762Y-116693857D01*
X134854762Y-116693857D02*
X134807143Y-116717666D01*
D10*
X136192857Y-117806109D02*
X135954762Y-117806109D01*
X135954762Y-117806109D02*
X135930953Y-118044204D01*
X135930953Y-118044204D02*
X135954762Y-118020395D01*
X135954762Y-118020395D02*
X136002381Y-117996585D01*
X136002381Y-117996585D02*
X136121429Y-117996585D01*
X136121429Y-117996585D02*
X136169048Y-118020395D01*
X136169048Y-118020395D02*
X136192857Y-118044204D01*
X136192857Y-118044204D02*
X136216667Y-118091823D01*
X136216667Y-118091823D02*
X136216667Y-118210871D01*
X136216667Y-118210871D02*
X136192857Y-118258490D01*
X136192857Y-118258490D02*
X136169048Y-118282300D01*
X136169048Y-118282300D02*
X136121429Y-118306109D01*
X136121429Y-118306109D02*
X136002381Y-118306109D01*
X136002381Y-118306109D02*
X135954762Y-118282300D01*
X135954762Y-118282300D02*
X135930953Y-118258490D01*
X136692857Y-118306109D02*
X136407143Y-118306109D01*
X136550000Y-118306109D02*
X136550000Y-117806109D01*
X136550000Y-117806109D02*
X136502381Y-117877538D01*
X136502381Y-117877538D02*
X136454762Y-117925157D01*
X136454762Y-117925157D02*
X136407143Y-117948966D01*
X137169047Y-118306109D02*
X136883333Y-118306109D01*
X137026190Y-118306109D02*
X137026190Y-117806109D01*
X137026190Y-117806109D02*
X136978571Y-117877538D01*
X136978571Y-117877538D02*
X136930952Y-117925157D01*
X136930952Y-117925157D02*
X136883333Y-117948966D01*
X137669046Y-118306109D02*
X137502380Y-118068014D01*
X137383332Y-118306109D02*
X137383332Y-117806109D01*
X137383332Y-117806109D02*
X137573808Y-117806109D01*
X137573808Y-117806109D02*
X137621427Y-117829919D01*
X137621427Y-117829919D02*
X137645237Y-117853728D01*
X137645237Y-117853728D02*
X137669046Y-117901347D01*
X137669046Y-117901347D02*
X137669046Y-117972776D01*
X137669046Y-117972776D02*
X137645237Y-118020395D01*
X137645237Y-118020395D02*
X137621427Y-118044204D01*
X137621427Y-118044204D02*
X137573808Y-118068014D01*
X137573808Y-118068014D02*
X137383332Y-118068014D01*
X147564939Y-96046364D02*
X147583987Y-96065412D01*
X147583987Y-96065412D02*
X147603034Y-96122554D01*
X147603034Y-96122554D02*
X147603034Y-96160650D01*
X147603034Y-96160650D02*
X147583987Y-96217793D01*
X147583987Y-96217793D02*
X147545891Y-96255888D01*
X147545891Y-96255888D02*
X147507796Y-96274935D01*
X147507796Y-96274935D02*
X147431606Y-96293983D01*
X147431606Y-96293983D02*
X147374463Y-96293983D01*
X147374463Y-96293983D02*
X147298272Y-96274935D01*
X147298272Y-96274935D02*
X147260177Y-96255888D01*
X147260177Y-96255888D02*
X147222082Y-96217793D01*
X147222082Y-96217793D02*
X147203034Y-96160650D01*
X147203034Y-96160650D02*
X147203034Y-96122554D01*
X147203034Y-96122554D02*
X147222082Y-96065412D01*
X147222082Y-96065412D02*
X147241129Y-96046364D01*
X147241129Y-95893983D02*
X147222082Y-95874935D01*
X147222082Y-95874935D02*
X147203034Y-95836840D01*
X147203034Y-95836840D02*
X147203034Y-95741602D01*
X147203034Y-95741602D02*
X147222082Y-95703507D01*
X147222082Y-95703507D02*
X147241129Y-95684459D01*
X147241129Y-95684459D02*
X147279225Y-95665412D01*
X147279225Y-95665412D02*
X147317320Y-95665412D01*
X147317320Y-95665412D02*
X147374463Y-95684459D01*
X147374463Y-95684459D02*
X147603034Y-95913031D01*
X147603034Y-95913031D02*
X147603034Y-95665412D01*
X145674936Y-96792196D02*
X145651127Y-96768387D01*
X145651127Y-96768387D02*
X145627317Y-96720768D01*
X145627317Y-96720768D02*
X145627317Y-96601720D01*
X145627317Y-96601720D02*
X145651127Y-96554101D01*
X145651127Y-96554101D02*
X145674936Y-96530292D01*
X145674936Y-96530292D02*
X145722555Y-96506482D01*
X145722555Y-96506482D02*
X145770174Y-96506482D01*
X145770174Y-96506482D02*
X145841603Y-96530292D01*
X145841603Y-96530292D02*
X146127317Y-96816006D01*
X146127317Y-96816006D02*
X146127317Y-96506482D01*
X145674936Y-96316006D02*
X145651127Y-96292197D01*
X145651127Y-96292197D02*
X145627317Y-96244578D01*
X145627317Y-96244578D02*
X145627317Y-96125530D01*
X145627317Y-96125530D02*
X145651127Y-96077911D01*
X145651127Y-96077911D02*
X145674936Y-96054102D01*
X145674936Y-96054102D02*
X145722555Y-96030292D01*
X145722555Y-96030292D02*
X145770174Y-96030292D01*
X145770174Y-96030292D02*
X145841603Y-96054102D01*
X145841603Y-96054102D02*
X146127317Y-96339816D01*
X146127317Y-96339816D02*
X146127317Y-96030292D01*
X145793984Y-95816007D02*
X146127317Y-95816007D01*
X145841603Y-95816007D02*
X145817793Y-95792197D01*
X145817793Y-95792197D02*
X145793984Y-95744578D01*
X145793984Y-95744578D02*
X145793984Y-95673150D01*
X145793984Y-95673150D02*
X145817793Y-95625531D01*
X145817793Y-95625531D02*
X145865412Y-95601721D01*
X145865412Y-95601721D02*
X146127317Y-95601721D01*
X145865412Y-95196959D02*
X145865412Y-95363626D01*
X146127317Y-95363626D02*
X145627317Y-95363626D01*
X145627317Y-95363626D02*
X145627317Y-95125531D01*
D13*
X141035385Y-121725057D02*
X141083004Y-121677438D01*
X141083004Y-121677438D02*
X141178242Y-121629819D01*
X141178242Y-121629819D02*
X141416337Y-121629819D01*
X141416337Y-121629819D02*
X141511575Y-121677438D01*
X141511575Y-121677438D02*
X141559194Y-121725057D01*
X141559194Y-121725057D02*
X141606813Y-121820295D01*
X141606813Y-121820295D02*
X141606813Y-121915533D01*
X141606813Y-121915533D02*
X141559194Y-122058390D01*
X141559194Y-122058390D02*
X140987766Y-122629819D01*
X140987766Y-122629819D02*
X141606813Y-122629819D01*
X142035385Y-122534580D02*
X142083004Y-122582200D01*
X142083004Y-122582200D02*
X142035385Y-122629819D01*
X142035385Y-122629819D02*
X141987766Y-122582200D01*
X141987766Y-122582200D02*
X142035385Y-122534580D01*
X142035385Y-122534580D02*
X142035385Y-122629819D01*
X142940146Y-121963152D02*
X142940146Y-122629819D01*
X142702051Y-121582200D02*
X142463956Y-122296485D01*
X142463956Y-122296485D02*
X143083003Y-122296485D01*
X143987765Y-121677438D02*
X143892527Y-121629819D01*
X143892527Y-121629819D02*
X143749670Y-121629819D01*
X143749670Y-121629819D02*
X143606813Y-121677438D01*
X143606813Y-121677438D02*
X143511575Y-121772676D01*
X143511575Y-121772676D02*
X143463956Y-121867914D01*
X143463956Y-121867914D02*
X143416337Y-122058390D01*
X143416337Y-122058390D02*
X143416337Y-122201247D01*
X143416337Y-122201247D02*
X143463956Y-122391723D01*
X143463956Y-122391723D02*
X143511575Y-122486961D01*
X143511575Y-122486961D02*
X143606813Y-122582200D01*
X143606813Y-122582200D02*
X143749670Y-122629819D01*
X143749670Y-122629819D02*
X143844908Y-122629819D01*
X143844908Y-122629819D02*
X143987765Y-122582200D01*
X143987765Y-122582200D02*
X144035384Y-122534580D01*
X144035384Y-122534580D02*
X144035384Y-122201247D01*
X144035384Y-122201247D02*
X143844908Y-122201247D01*
X144463956Y-122629819D02*
X144463956Y-121629819D01*
X144463956Y-122106009D02*
X145035384Y-122106009D01*
X145035384Y-122629819D02*
X145035384Y-121629819D01*
X145416337Y-121963152D02*
X145940146Y-121963152D01*
X145940146Y-121963152D02*
X145416337Y-122629819D01*
X145416337Y-122629819D02*
X145940146Y-122629819D01*
D10*
X141609847Y-100891666D02*
X141609847Y-101082142D01*
X141609847Y-101082142D02*
X141209847Y-101082142D01*
X141609847Y-100548809D02*
X141609847Y-100777380D01*
X141609847Y-100663094D02*
X141209847Y-100663094D01*
X141209847Y-100663094D02*
X141266990Y-100701190D01*
X141266990Y-100701190D02*
X141305085Y-100739285D01*
X141305085Y-100739285D02*
X141324133Y-100777380D01*
X140043728Y-101694046D02*
X140019919Y-101670237D01*
X140019919Y-101670237D02*
X139996109Y-101622618D01*
X139996109Y-101622618D02*
X139996109Y-101503570D01*
X139996109Y-101503570D02*
X140019919Y-101455951D01*
X140019919Y-101455951D02*
X140043728Y-101432142D01*
X140043728Y-101432142D02*
X140091347Y-101408332D01*
X140091347Y-101408332D02*
X140138966Y-101408332D01*
X140138966Y-101408332D02*
X140210395Y-101432142D01*
X140210395Y-101432142D02*
X140496109Y-101717856D01*
X140496109Y-101717856D02*
X140496109Y-101408332D01*
X140162776Y-100979761D02*
X140496109Y-100979761D01*
X139972300Y-101098809D02*
X140329442Y-101217856D01*
X140329442Y-101217856D02*
X140329442Y-100908333D01*
X140162776Y-100717857D02*
X140496109Y-100717857D01*
X140210395Y-100717857D02*
X140186585Y-100694047D01*
X140186585Y-100694047D02*
X140162776Y-100646428D01*
X140162776Y-100646428D02*
X140162776Y-100575000D01*
X140162776Y-100575000D02*
X140186585Y-100527381D01*
X140186585Y-100527381D02*
X140234204Y-100503571D01*
X140234204Y-100503571D02*
X140496109Y-100503571D01*
X140496109Y-100265476D02*
X139996109Y-100265476D01*
X140234204Y-100265476D02*
X140234204Y-99979762D01*
X140496109Y-99979762D02*
X139996109Y-99979762D01*
X136078571Y-109758489D02*
X136054762Y-109782299D01*
X136054762Y-109782299D02*
X135983333Y-109806108D01*
X135983333Y-109806108D02*
X135935714Y-109806108D01*
X135935714Y-109806108D02*
X135864286Y-109782299D01*
X135864286Y-109782299D02*
X135816667Y-109734679D01*
X135816667Y-109734679D02*
X135792857Y-109687060D01*
X135792857Y-109687060D02*
X135769048Y-109591822D01*
X135769048Y-109591822D02*
X135769048Y-109520394D01*
X135769048Y-109520394D02*
X135792857Y-109425156D01*
X135792857Y-109425156D02*
X135816667Y-109377537D01*
X135816667Y-109377537D02*
X135864286Y-109329918D01*
X135864286Y-109329918D02*
X135935714Y-109306108D01*
X135935714Y-109306108D02*
X135983333Y-109306108D01*
X135983333Y-109306108D02*
X136054762Y-109329918D01*
X136054762Y-109329918D02*
X136078571Y-109353727D01*
X136554762Y-109806108D02*
X136269048Y-109806108D01*
X136411905Y-109806108D02*
X136411905Y-109306108D01*
X136411905Y-109306108D02*
X136364286Y-109377537D01*
X136364286Y-109377537D02*
X136316667Y-109425156D01*
X136316667Y-109425156D02*
X136269048Y-109448965D01*
X136864285Y-109306108D02*
X136911904Y-109306108D01*
X136911904Y-109306108D02*
X136959523Y-109329918D01*
X136959523Y-109329918D02*
X136983333Y-109353727D01*
X136983333Y-109353727D02*
X137007142Y-109401346D01*
X137007142Y-109401346D02*
X137030952Y-109496584D01*
X137030952Y-109496584D02*
X137030952Y-109615632D01*
X137030952Y-109615632D02*
X137007142Y-109710870D01*
X137007142Y-109710870D02*
X136983333Y-109758489D01*
X136983333Y-109758489D02*
X136959523Y-109782299D01*
X136959523Y-109782299D02*
X136911904Y-109806108D01*
X136911904Y-109806108D02*
X136864285Y-109806108D01*
X136864285Y-109806108D02*
X136816666Y-109782299D01*
X136816666Y-109782299D02*
X136792857Y-109758489D01*
X136792857Y-109758489D02*
X136769047Y-109710870D01*
X136769047Y-109710870D02*
X136745238Y-109615632D01*
X136745238Y-109615632D02*
X136745238Y-109496584D01*
X136745238Y-109496584D02*
X136769047Y-109401346D01*
X136769047Y-109401346D02*
X136792857Y-109353727D01*
X136792857Y-109353727D02*
X136816666Y-109329918D01*
X136816666Y-109329918D02*
X136864285Y-109306108D01*
X133964462Y-109928021D02*
X133964462Y-109889926D01*
X133964462Y-109889926D02*
X133983510Y-109851830D01*
X133983510Y-109851830D02*
X134002557Y-109832783D01*
X134002557Y-109832783D02*
X134040653Y-109813735D01*
X134040653Y-109813735D02*
X134116843Y-109794688D01*
X134116843Y-109794688D02*
X134212081Y-109794688D01*
X134212081Y-109794688D02*
X134288272Y-109813735D01*
X134288272Y-109813735D02*
X134326367Y-109832783D01*
X134326367Y-109832783D02*
X134345415Y-109851830D01*
X134345415Y-109851830D02*
X134364462Y-109889926D01*
X134364462Y-109889926D02*
X134364462Y-109928021D01*
X134364462Y-109928021D02*
X134345415Y-109966116D01*
X134345415Y-109966116D02*
X134326367Y-109985164D01*
X134326367Y-109985164D02*
X134288272Y-110004211D01*
X134288272Y-110004211D02*
X134212081Y-110023259D01*
X134212081Y-110023259D02*
X134116843Y-110023259D01*
X134116843Y-110023259D02*
X134040653Y-110004211D01*
X134040653Y-110004211D02*
X134002557Y-109985164D01*
X134002557Y-109985164D02*
X133983510Y-109966116D01*
X133983510Y-109966116D02*
X133964462Y-109928021D01*
X134326367Y-109623259D02*
X134345415Y-109604212D01*
X134345415Y-109604212D02*
X134364462Y-109623259D01*
X134364462Y-109623259D02*
X134345415Y-109642307D01*
X134345415Y-109642307D02*
X134326367Y-109623259D01*
X134326367Y-109623259D02*
X134364462Y-109623259D01*
X134364462Y-109223260D02*
X134364462Y-109451831D01*
X134364462Y-109337545D02*
X133964462Y-109337545D01*
X133964462Y-109337545D02*
X134021605Y-109375641D01*
X134021605Y-109375641D02*
X134059700Y-109413736D01*
X134059700Y-109413736D02*
X134078748Y-109451831D01*
X134097795Y-108880403D02*
X134364462Y-108880403D01*
X134097795Y-109051831D02*
X134307319Y-109051831D01*
X134307319Y-109051831D02*
X134345415Y-109032784D01*
X134345415Y-109032784D02*
X134364462Y-108994689D01*
X134364462Y-108994689D02*
X134364462Y-108937546D01*
X134364462Y-108937546D02*
X134345415Y-108899450D01*
X134345415Y-108899450D02*
X134326367Y-108880403D01*
X134154938Y-108556593D02*
X134154938Y-108689926D01*
X134364462Y-108689926D02*
X133964462Y-108689926D01*
X133964462Y-108689926D02*
X133964462Y-108499450D01*
X137820543Y-96066666D02*
X137839591Y-96085714D01*
X137839591Y-96085714D02*
X137858638Y-96142856D01*
X137858638Y-96142856D02*
X137858638Y-96180952D01*
X137858638Y-96180952D02*
X137839591Y-96238095D01*
X137839591Y-96238095D02*
X137801495Y-96276190D01*
X137801495Y-96276190D02*
X137763400Y-96295237D01*
X137763400Y-96295237D02*
X137687210Y-96314285D01*
X137687210Y-96314285D02*
X137630067Y-96314285D01*
X137630067Y-96314285D02*
X137553876Y-96295237D01*
X137553876Y-96295237D02*
X137515781Y-96276190D01*
X137515781Y-96276190D02*
X137477686Y-96238095D01*
X137477686Y-96238095D02*
X137458638Y-96180952D01*
X137458638Y-96180952D02*
X137458638Y-96142856D01*
X137458638Y-96142856D02*
X137477686Y-96085714D01*
X137477686Y-96085714D02*
X137496733Y-96066666D01*
X137858638Y-95685714D02*
X137858638Y-95914285D01*
X137858638Y-95799999D02*
X137458638Y-95799999D01*
X137458638Y-95799999D02*
X137515781Y-95838095D01*
X137515781Y-95838095D02*
X137553876Y-95876190D01*
X137553876Y-95876190D02*
X137572924Y-95914285D01*
X135943728Y-96821427D02*
X135919919Y-96797618D01*
X135919919Y-96797618D02*
X135896109Y-96749999D01*
X135896109Y-96749999D02*
X135896109Y-96630951D01*
X135896109Y-96630951D02*
X135919919Y-96583332D01*
X135919919Y-96583332D02*
X135943728Y-96559523D01*
X135943728Y-96559523D02*
X135991347Y-96535713D01*
X135991347Y-96535713D02*
X136038966Y-96535713D01*
X136038966Y-96535713D02*
X136110395Y-96559523D01*
X136110395Y-96559523D02*
X136396109Y-96845237D01*
X136396109Y-96845237D02*
X136396109Y-96535713D01*
X135943728Y-96345237D02*
X135919919Y-96321428D01*
X135919919Y-96321428D02*
X135896109Y-96273809D01*
X135896109Y-96273809D02*
X135896109Y-96154761D01*
X135896109Y-96154761D02*
X135919919Y-96107142D01*
X135919919Y-96107142D02*
X135943728Y-96083333D01*
X135943728Y-96083333D02*
X135991347Y-96059523D01*
X135991347Y-96059523D02*
X136038966Y-96059523D01*
X136038966Y-96059523D02*
X136110395Y-96083333D01*
X136110395Y-96083333D02*
X136396109Y-96369047D01*
X136396109Y-96369047D02*
X136396109Y-96059523D01*
X136062776Y-95845238D02*
X136396109Y-95845238D01*
X136110395Y-95845238D02*
X136086585Y-95821428D01*
X136086585Y-95821428D02*
X136062776Y-95773809D01*
X136062776Y-95773809D02*
X136062776Y-95702381D01*
X136062776Y-95702381D02*
X136086585Y-95654762D01*
X136086585Y-95654762D02*
X136134204Y-95630952D01*
X136134204Y-95630952D02*
X136396109Y-95630952D01*
X136134204Y-95226190D02*
X136134204Y-95392857D01*
X136396109Y-95392857D02*
X135896109Y-95392857D01*
X135896109Y-95392857D02*
X135896109Y-95154762D01*
D12*
X134516666Y-119174809D02*
X134350000Y-118936714D01*
X134230952Y-119174809D02*
X134230952Y-118674809D01*
X134230952Y-118674809D02*
X134421428Y-118674809D01*
X134421428Y-118674809D02*
X134469047Y-118698619D01*
X134469047Y-118698619D02*
X134492857Y-118722428D01*
X134492857Y-118722428D02*
X134516666Y-118770047D01*
X134516666Y-118770047D02*
X134516666Y-118841476D01*
X134516666Y-118841476D02*
X134492857Y-118889095D01*
X134492857Y-118889095D02*
X134469047Y-118912904D01*
X134469047Y-118912904D02*
X134421428Y-118936714D01*
X134421428Y-118936714D02*
X134230952Y-118936714D01*
X134707143Y-118722428D02*
X134730952Y-118698619D01*
X134730952Y-118698619D02*
X134778571Y-118674809D01*
X134778571Y-118674809D02*
X134897619Y-118674809D01*
X134897619Y-118674809D02*
X134945238Y-118698619D01*
X134945238Y-118698619D02*
X134969047Y-118722428D01*
X134969047Y-118722428D02*
X134992857Y-118770047D01*
X134992857Y-118770047D02*
X134992857Y-118817666D01*
X134992857Y-118817666D02*
X134969047Y-118889095D01*
X134969047Y-118889095D02*
X134683333Y-119174809D01*
X134683333Y-119174809D02*
X134992857Y-119174809D01*
D10*
X136238095Y-120109847D02*
X136009524Y-120109847D01*
X136123810Y-120109847D02*
X136123810Y-119709847D01*
X136123810Y-119709847D02*
X136085714Y-119766990D01*
X136085714Y-119766990D02*
X136047619Y-119805085D01*
X136047619Y-119805085D02*
X136009524Y-119824133D01*
X136580952Y-119709847D02*
X136504762Y-119709847D01*
X136504762Y-119709847D02*
X136466666Y-119728895D01*
X136466666Y-119728895D02*
X136447619Y-119747942D01*
X136447619Y-119747942D02*
X136409524Y-119805085D01*
X136409524Y-119805085D02*
X136390476Y-119881276D01*
X136390476Y-119881276D02*
X136390476Y-120033657D01*
X136390476Y-120033657D02*
X136409524Y-120071752D01*
X136409524Y-120071752D02*
X136428571Y-120090800D01*
X136428571Y-120090800D02*
X136466666Y-120109847D01*
X136466666Y-120109847D02*
X136542857Y-120109847D01*
X136542857Y-120109847D02*
X136580952Y-120090800D01*
X136580952Y-120090800D02*
X136600000Y-120071752D01*
X136600000Y-120071752D02*
X136619047Y-120033657D01*
X136619047Y-120033657D02*
X136619047Y-119938419D01*
X136619047Y-119938419D02*
X136600000Y-119900323D01*
X136600000Y-119900323D02*
X136580952Y-119881276D01*
X136580952Y-119881276D02*
X136542857Y-119862228D01*
X136542857Y-119862228D02*
X136466666Y-119862228D01*
X136466666Y-119862228D02*
X136428571Y-119881276D01*
X136428571Y-119881276D02*
X136409524Y-119900323D01*
X136409524Y-119900323D02*
X136390476Y-119938419D01*
X136790476Y-120071752D02*
X136809523Y-120090800D01*
X136809523Y-120090800D02*
X136790476Y-120109847D01*
X136790476Y-120109847D02*
X136771428Y-120090800D01*
X136771428Y-120090800D02*
X136790476Y-120071752D01*
X136790476Y-120071752D02*
X136790476Y-120109847D01*
X136961904Y-119747942D02*
X136980952Y-119728895D01*
X136980952Y-119728895D02*
X137019047Y-119709847D01*
X137019047Y-119709847D02*
X137114285Y-119709847D01*
X137114285Y-119709847D02*
X137152380Y-119728895D01*
X137152380Y-119728895D02*
X137171428Y-119747942D01*
X137171428Y-119747942D02*
X137190475Y-119786038D01*
X137190475Y-119786038D02*
X137190475Y-119824133D01*
X137190475Y-119824133D02*
X137171428Y-119881276D01*
X137171428Y-119881276D02*
X136942856Y-120109847D01*
X136942856Y-120109847D02*
X137190475Y-120109847D01*
X137361904Y-120109847D02*
X137361904Y-119709847D01*
X137590475Y-120109847D02*
X137419046Y-119881276D01*
X137590475Y-119709847D02*
X137361904Y-119938419D01*
X142209524Y-92789371D02*
X142209524Y-92979847D01*
X142076191Y-92579847D02*
X142209524Y-92789371D01*
X142209524Y-92789371D02*
X142342857Y-92579847D01*
X142685714Y-92979847D02*
X142457143Y-92979847D01*
X142571429Y-92979847D02*
X142571429Y-92579847D01*
X142571429Y-92579847D02*
X142533333Y-92636990D01*
X142533333Y-92636990D02*
X142495238Y-92675085D01*
X142495238Y-92675085D02*
X142457143Y-92694133D01*
X140552380Y-98641752D02*
X140533332Y-98660800D01*
X140533332Y-98660800D02*
X140476190Y-98679847D01*
X140476190Y-98679847D02*
X140438094Y-98679847D01*
X140438094Y-98679847D02*
X140380951Y-98660800D01*
X140380951Y-98660800D02*
X140342856Y-98622704D01*
X140342856Y-98622704D02*
X140323809Y-98584609D01*
X140323809Y-98584609D02*
X140304761Y-98508419D01*
X140304761Y-98508419D02*
X140304761Y-98451276D01*
X140304761Y-98451276D02*
X140323809Y-98375085D01*
X140323809Y-98375085D02*
X140342856Y-98336990D01*
X140342856Y-98336990D02*
X140380951Y-98298895D01*
X140380951Y-98298895D02*
X140438094Y-98279847D01*
X140438094Y-98279847D02*
X140476190Y-98279847D01*
X140476190Y-98279847D02*
X140533332Y-98298895D01*
X140533332Y-98298895D02*
X140552380Y-98317942D01*
X140723809Y-98679847D02*
X140723809Y-98413180D01*
X140723809Y-98489371D02*
X140742856Y-98451276D01*
X140742856Y-98451276D02*
X140761904Y-98432228D01*
X140761904Y-98432228D02*
X140799999Y-98413180D01*
X140799999Y-98413180D02*
X140838094Y-98413180D01*
X140933332Y-98413180D02*
X141028570Y-98679847D01*
X141123809Y-98413180D02*
X141028570Y-98679847D01*
X141028570Y-98679847D02*
X140990475Y-98775085D01*
X140990475Y-98775085D02*
X140971428Y-98794133D01*
X140971428Y-98794133D02*
X140933332Y-98813180D01*
X141257142Y-98660800D02*
X141295237Y-98679847D01*
X141295237Y-98679847D02*
X141371428Y-98679847D01*
X141371428Y-98679847D02*
X141409523Y-98660800D01*
X141409523Y-98660800D02*
X141428571Y-98622704D01*
X141428571Y-98622704D02*
X141428571Y-98603657D01*
X141428571Y-98603657D02*
X141409523Y-98565561D01*
X141409523Y-98565561D02*
X141371428Y-98546514D01*
X141371428Y-98546514D02*
X141314285Y-98546514D01*
X141314285Y-98546514D02*
X141276190Y-98527466D01*
X141276190Y-98527466D02*
X141257142Y-98489371D01*
X141257142Y-98489371D02*
X141257142Y-98470323D01*
X141257142Y-98470323D02*
X141276190Y-98432228D01*
X141276190Y-98432228D02*
X141314285Y-98413180D01*
X141314285Y-98413180D02*
X141371428Y-98413180D01*
X141371428Y-98413180D02*
X141409523Y-98432228D01*
X141542857Y-98413180D02*
X141695238Y-98413180D01*
X141600000Y-98279847D02*
X141600000Y-98622704D01*
X141600000Y-98622704D02*
X141619047Y-98660800D01*
X141619047Y-98660800D02*
X141657142Y-98679847D01*
X141657142Y-98679847D02*
X141695238Y-98679847D01*
X141999999Y-98679847D02*
X141999999Y-98470323D01*
X141999999Y-98470323D02*
X141980952Y-98432228D01*
X141980952Y-98432228D02*
X141942856Y-98413180D01*
X141942856Y-98413180D02*
X141866666Y-98413180D01*
X141866666Y-98413180D02*
X141828571Y-98432228D01*
X141999999Y-98660800D02*
X141961904Y-98679847D01*
X141961904Y-98679847D02*
X141866666Y-98679847D01*
X141866666Y-98679847D02*
X141828571Y-98660800D01*
X141828571Y-98660800D02*
X141809523Y-98622704D01*
X141809523Y-98622704D02*
X141809523Y-98584609D01*
X141809523Y-98584609D02*
X141828571Y-98546514D01*
X141828571Y-98546514D02*
X141866666Y-98527466D01*
X141866666Y-98527466D02*
X141961904Y-98527466D01*
X141961904Y-98527466D02*
X141999999Y-98508419D01*
X142247618Y-98679847D02*
X142209523Y-98660800D01*
X142209523Y-98660800D02*
X142190476Y-98622704D01*
X142190476Y-98622704D02*
X142190476Y-98279847D01*
X142876190Y-98413180D02*
X142876190Y-98679847D01*
X142780952Y-98260800D02*
X142685714Y-98546514D01*
X142685714Y-98546514D02*
X142933333Y-98546514D01*
X143161904Y-98279847D02*
X143199999Y-98279847D01*
X143199999Y-98279847D02*
X143238095Y-98298895D01*
X143238095Y-98298895D02*
X143257142Y-98317942D01*
X143257142Y-98317942D02*
X143276190Y-98356038D01*
X143276190Y-98356038D02*
X143295237Y-98432228D01*
X143295237Y-98432228D02*
X143295237Y-98527466D01*
X143295237Y-98527466D02*
X143276190Y-98603657D01*
X143276190Y-98603657D02*
X143257142Y-98641752D01*
X143257142Y-98641752D02*
X143238095Y-98660800D01*
X143238095Y-98660800D02*
X143199999Y-98679847D01*
X143199999Y-98679847D02*
X143161904Y-98679847D01*
X143161904Y-98679847D02*
X143123809Y-98660800D01*
X143123809Y-98660800D02*
X143104761Y-98641752D01*
X143104761Y-98641752D02*
X143085714Y-98603657D01*
X143085714Y-98603657D02*
X143066666Y-98527466D01*
X143066666Y-98527466D02*
X143066666Y-98432228D01*
X143066666Y-98432228D02*
X143085714Y-98356038D01*
X143085714Y-98356038D02*
X143104761Y-98317942D01*
X143104761Y-98317942D02*
X143123809Y-98298895D01*
X143123809Y-98298895D02*
X143161904Y-98279847D01*
X143466666Y-98679847D02*
X143466666Y-98279847D01*
X143466666Y-98279847D02*
X143599999Y-98565561D01*
X143599999Y-98565561D02*
X143733332Y-98279847D01*
X143733332Y-98279847D02*
X143733332Y-98679847D01*
X143923809Y-98679847D02*
X143923809Y-98279847D01*
X143923809Y-98470323D02*
X144152380Y-98470323D01*
X144152380Y-98679847D02*
X144152380Y-98279847D01*
X144304761Y-98413180D02*
X144514285Y-98413180D01*
X144514285Y-98413180D02*
X144304761Y-98679847D01*
X144304761Y-98679847D02*
X144514285Y-98679847D01*
X142519047Y-115426109D02*
X142519047Y-115830871D01*
X142519047Y-115830871D02*
X142542857Y-115878490D01*
X142542857Y-115878490D02*
X142566666Y-115902300D01*
X142566666Y-115902300D02*
X142614285Y-115926109D01*
X142614285Y-115926109D02*
X142709523Y-115926109D01*
X142709523Y-115926109D02*
X142757142Y-115902300D01*
X142757142Y-115902300D02*
X142780952Y-115878490D01*
X142780952Y-115878490D02*
X142804761Y-115830871D01*
X142804761Y-115830871D02*
X142804761Y-115426109D01*
X143019048Y-115473728D02*
X143042857Y-115449919D01*
X143042857Y-115449919D02*
X143090476Y-115426109D01*
X143090476Y-115426109D02*
X143209524Y-115426109D01*
X143209524Y-115426109D02*
X143257143Y-115449919D01*
X143257143Y-115449919D02*
X143280952Y-115473728D01*
X143280952Y-115473728D02*
X143304762Y-115521347D01*
X143304762Y-115521347D02*
X143304762Y-115568966D01*
X143304762Y-115568966D02*
X143280952Y-115640395D01*
X143280952Y-115640395D02*
X142995238Y-115926109D01*
X142995238Y-115926109D02*
X143304762Y-115926109D01*
X140652382Y-119229847D02*
X140880953Y-119229847D01*
X140766667Y-119629847D02*
X140766667Y-119229847D01*
X141014287Y-119629847D02*
X141014287Y-119229847D01*
X141014287Y-119229847D02*
X141166668Y-119229847D01*
X141166668Y-119229847D02*
X141204763Y-119248895D01*
X141204763Y-119248895D02*
X141223810Y-119267942D01*
X141223810Y-119267942D02*
X141242858Y-119306038D01*
X141242858Y-119306038D02*
X141242858Y-119363180D01*
X141242858Y-119363180D02*
X141223810Y-119401276D01*
X141223810Y-119401276D02*
X141204763Y-119420323D01*
X141204763Y-119420323D02*
X141166668Y-119439371D01*
X141166668Y-119439371D02*
X141014287Y-119439371D01*
X141395239Y-119610800D02*
X141452382Y-119629847D01*
X141452382Y-119629847D02*
X141547620Y-119629847D01*
X141547620Y-119629847D02*
X141585715Y-119610800D01*
X141585715Y-119610800D02*
X141604763Y-119591752D01*
X141604763Y-119591752D02*
X141623810Y-119553657D01*
X141623810Y-119553657D02*
X141623810Y-119515561D01*
X141623810Y-119515561D02*
X141604763Y-119477466D01*
X141604763Y-119477466D02*
X141585715Y-119458419D01*
X141585715Y-119458419D02*
X141547620Y-119439371D01*
X141547620Y-119439371D02*
X141471429Y-119420323D01*
X141471429Y-119420323D02*
X141433334Y-119401276D01*
X141433334Y-119401276D02*
X141414287Y-119382228D01*
X141414287Y-119382228D02*
X141395239Y-119344133D01*
X141395239Y-119344133D02*
X141395239Y-119306038D01*
X141395239Y-119306038D02*
X141414287Y-119267942D01*
X141414287Y-119267942D02*
X141433334Y-119248895D01*
X141433334Y-119248895D02*
X141471429Y-119229847D01*
X141471429Y-119229847D02*
X141566668Y-119229847D01*
X141566668Y-119229847D02*
X141623810Y-119248895D01*
X141966667Y-119229847D02*
X141890477Y-119229847D01*
X141890477Y-119229847D02*
X141852381Y-119248895D01*
X141852381Y-119248895D02*
X141833334Y-119267942D01*
X141833334Y-119267942D02*
X141795239Y-119325085D01*
X141795239Y-119325085D02*
X141776191Y-119401276D01*
X141776191Y-119401276D02*
X141776191Y-119553657D01*
X141776191Y-119553657D02*
X141795239Y-119591752D01*
X141795239Y-119591752D02*
X141814286Y-119610800D01*
X141814286Y-119610800D02*
X141852381Y-119629847D01*
X141852381Y-119629847D02*
X141928572Y-119629847D01*
X141928572Y-119629847D02*
X141966667Y-119610800D01*
X141966667Y-119610800D02*
X141985715Y-119591752D01*
X141985715Y-119591752D02*
X142004762Y-119553657D01*
X142004762Y-119553657D02*
X142004762Y-119458419D01*
X142004762Y-119458419D02*
X141985715Y-119420323D01*
X141985715Y-119420323D02*
X141966667Y-119401276D01*
X141966667Y-119401276D02*
X141928572Y-119382228D01*
X141928572Y-119382228D02*
X141852381Y-119382228D01*
X141852381Y-119382228D02*
X141814286Y-119401276D01*
X141814286Y-119401276D02*
X141795239Y-119420323D01*
X141795239Y-119420323D02*
X141776191Y-119458419D01*
X142138095Y-119229847D02*
X142385714Y-119229847D01*
X142385714Y-119229847D02*
X142252381Y-119382228D01*
X142252381Y-119382228D02*
X142309524Y-119382228D01*
X142309524Y-119382228D02*
X142347619Y-119401276D01*
X142347619Y-119401276D02*
X142366667Y-119420323D01*
X142366667Y-119420323D02*
X142385714Y-119458419D01*
X142385714Y-119458419D02*
X142385714Y-119553657D01*
X142385714Y-119553657D02*
X142366667Y-119591752D01*
X142366667Y-119591752D02*
X142347619Y-119610800D01*
X142347619Y-119610800D02*
X142309524Y-119629847D01*
X142309524Y-119629847D02*
X142195238Y-119629847D01*
X142195238Y-119629847D02*
X142157143Y-119610800D01*
X142157143Y-119610800D02*
X142138095Y-119591752D01*
X142576190Y-119629847D02*
X142652381Y-119629847D01*
X142652381Y-119629847D02*
X142690476Y-119610800D01*
X142690476Y-119610800D02*
X142709524Y-119591752D01*
X142709524Y-119591752D02*
X142747619Y-119534609D01*
X142747619Y-119534609D02*
X142766666Y-119458419D01*
X142766666Y-119458419D02*
X142766666Y-119306038D01*
X142766666Y-119306038D02*
X142747619Y-119267942D01*
X142747619Y-119267942D02*
X142728571Y-119248895D01*
X142728571Y-119248895D02*
X142690476Y-119229847D01*
X142690476Y-119229847D02*
X142614285Y-119229847D01*
X142614285Y-119229847D02*
X142576190Y-119248895D01*
X142576190Y-119248895D02*
X142557143Y-119267942D01*
X142557143Y-119267942D02*
X142538095Y-119306038D01*
X142538095Y-119306038D02*
X142538095Y-119401276D01*
X142538095Y-119401276D02*
X142557143Y-119439371D01*
X142557143Y-119439371D02*
X142576190Y-119458419D01*
X142576190Y-119458419D02*
X142614285Y-119477466D01*
X142614285Y-119477466D02*
X142690476Y-119477466D01*
X142690476Y-119477466D02*
X142728571Y-119458419D01*
X142728571Y-119458419D02*
X142747619Y-119439371D01*
X142747619Y-119439371D02*
X142766666Y-119401276D01*
X143014285Y-119229847D02*
X143052380Y-119229847D01*
X143052380Y-119229847D02*
X143090476Y-119248895D01*
X143090476Y-119248895D02*
X143109523Y-119267942D01*
X143109523Y-119267942D02*
X143128571Y-119306038D01*
X143128571Y-119306038D02*
X143147618Y-119382228D01*
X143147618Y-119382228D02*
X143147618Y-119477466D01*
X143147618Y-119477466D02*
X143128571Y-119553657D01*
X143128571Y-119553657D02*
X143109523Y-119591752D01*
X143109523Y-119591752D02*
X143090476Y-119610800D01*
X143090476Y-119610800D02*
X143052380Y-119629847D01*
X143052380Y-119629847D02*
X143014285Y-119629847D01*
X143014285Y-119629847D02*
X142976190Y-119610800D01*
X142976190Y-119610800D02*
X142957142Y-119591752D01*
X142957142Y-119591752D02*
X142938095Y-119553657D01*
X142938095Y-119553657D02*
X142919047Y-119477466D01*
X142919047Y-119477466D02*
X142919047Y-119382228D01*
X142919047Y-119382228D02*
X142938095Y-119306038D01*
X142938095Y-119306038D02*
X142957142Y-119267942D01*
X142957142Y-119267942D02*
X142976190Y-119248895D01*
X142976190Y-119248895D02*
X143014285Y-119229847D01*
X143395237Y-119229847D02*
X143433332Y-119229847D01*
X143433332Y-119229847D02*
X143471428Y-119248895D01*
X143471428Y-119248895D02*
X143490475Y-119267942D01*
X143490475Y-119267942D02*
X143509523Y-119306038D01*
X143509523Y-119306038D02*
X143528570Y-119382228D01*
X143528570Y-119382228D02*
X143528570Y-119477466D01*
X143528570Y-119477466D02*
X143509523Y-119553657D01*
X143509523Y-119553657D02*
X143490475Y-119591752D01*
X143490475Y-119591752D02*
X143471428Y-119610800D01*
X143471428Y-119610800D02*
X143433332Y-119629847D01*
X143433332Y-119629847D02*
X143395237Y-119629847D01*
X143395237Y-119629847D02*
X143357142Y-119610800D01*
X143357142Y-119610800D02*
X143338094Y-119591752D01*
X143338094Y-119591752D02*
X143319047Y-119553657D01*
X143319047Y-119553657D02*
X143299999Y-119477466D01*
X143299999Y-119477466D02*
X143299999Y-119382228D01*
X143299999Y-119382228D02*
X143319047Y-119306038D01*
X143319047Y-119306038D02*
X143338094Y-119267942D01*
X143338094Y-119267942D02*
X143357142Y-119248895D01*
X143357142Y-119248895D02*
X143395237Y-119229847D01*
X143699999Y-119629847D02*
X143699999Y-119229847D01*
X143699999Y-119229847D02*
X143795237Y-119229847D01*
X143795237Y-119229847D02*
X143852380Y-119248895D01*
X143852380Y-119248895D02*
X143890475Y-119286990D01*
X143890475Y-119286990D02*
X143909522Y-119325085D01*
X143909522Y-119325085D02*
X143928570Y-119401276D01*
X143928570Y-119401276D02*
X143928570Y-119458419D01*
X143928570Y-119458419D02*
X143909522Y-119534609D01*
X143909522Y-119534609D02*
X143890475Y-119572704D01*
X143890475Y-119572704D02*
X143852380Y-119610800D01*
X143852380Y-119610800D02*
X143795237Y-119629847D01*
X143795237Y-119629847D02*
X143699999Y-119629847D01*
X144080951Y-119610800D02*
X144138094Y-119629847D01*
X144138094Y-119629847D02*
X144233332Y-119629847D01*
X144233332Y-119629847D02*
X144271427Y-119610800D01*
X144271427Y-119610800D02*
X144290475Y-119591752D01*
X144290475Y-119591752D02*
X144309522Y-119553657D01*
X144309522Y-119553657D02*
X144309522Y-119515561D01*
X144309522Y-119515561D02*
X144290475Y-119477466D01*
X144290475Y-119477466D02*
X144271427Y-119458419D01*
X144271427Y-119458419D02*
X144233332Y-119439371D01*
X144233332Y-119439371D02*
X144157141Y-119420323D01*
X144157141Y-119420323D02*
X144119046Y-119401276D01*
X144119046Y-119401276D02*
X144099999Y-119382228D01*
X144099999Y-119382228D02*
X144080951Y-119344133D01*
X144080951Y-119344133D02*
X144080951Y-119306038D01*
X144080951Y-119306038D02*
X144099999Y-119267942D01*
X144099999Y-119267942D02*
X144119046Y-119248895D01*
X144119046Y-119248895D02*
X144157141Y-119229847D01*
X144157141Y-119229847D02*
X144252380Y-119229847D01*
X144252380Y-119229847D02*
X144309522Y-119248895D01*
X144480951Y-119629847D02*
X144480951Y-119229847D01*
X144709522Y-119629847D02*
X144538093Y-119401276D01*
X144709522Y-119229847D02*
X144480951Y-119458419D01*
X145109522Y-119629847D02*
X144976189Y-119439371D01*
X144880951Y-119629847D02*
X144880951Y-119229847D01*
X144880951Y-119229847D02*
X145033332Y-119229847D01*
X145033332Y-119229847D02*
X145071427Y-119248895D01*
X145071427Y-119248895D02*
X145090474Y-119267942D01*
X145090474Y-119267942D02*
X145109522Y-119306038D01*
X145109522Y-119306038D02*
X145109522Y-119363180D01*
X145109522Y-119363180D02*
X145090474Y-119401276D01*
X145090474Y-119401276D02*
X145071427Y-119420323D01*
X145071427Y-119420323D02*
X145033332Y-119439371D01*
X145033332Y-119439371D02*
X144880951Y-119439371D01*
X138779166Y-104058490D02*
X138755357Y-104082300D01*
X138755357Y-104082300D02*
X138683928Y-104106109D01*
X138683928Y-104106109D02*
X138636309Y-104106109D01*
X138636309Y-104106109D02*
X138564881Y-104082300D01*
X138564881Y-104082300D02*
X138517262Y-104034680D01*
X138517262Y-104034680D02*
X138493452Y-103987061D01*
X138493452Y-103987061D02*
X138469643Y-103891823D01*
X138469643Y-103891823D02*
X138469643Y-103820395D01*
X138469643Y-103820395D02*
X138493452Y-103725157D01*
X138493452Y-103725157D02*
X138517262Y-103677538D01*
X138517262Y-103677538D02*
X138564881Y-103629919D01*
X138564881Y-103629919D02*
X138636309Y-103606109D01*
X138636309Y-103606109D02*
X138683928Y-103606109D01*
X138683928Y-103606109D02*
X138755357Y-103629919D01*
X138755357Y-103629919D02*
X138779166Y-103653728D01*
X139207738Y-103772776D02*
X139207738Y-104106109D01*
X139088690Y-103582300D02*
X138969643Y-103939442D01*
X138969643Y-103939442D02*
X139279166Y-103939442D01*
X138433928Y-102899847D02*
X138205357Y-102899847D01*
X138319643Y-102899847D02*
X138319643Y-102499847D01*
X138319643Y-102499847D02*
X138281547Y-102556990D01*
X138281547Y-102556990D02*
X138243452Y-102595085D01*
X138243452Y-102595085D02*
X138205357Y-102614133D01*
X138681547Y-102499847D02*
X138719642Y-102499847D01*
X138719642Y-102499847D02*
X138757738Y-102518895D01*
X138757738Y-102518895D02*
X138776785Y-102537942D01*
X138776785Y-102537942D02*
X138795833Y-102576038D01*
X138795833Y-102576038D02*
X138814880Y-102652228D01*
X138814880Y-102652228D02*
X138814880Y-102747466D01*
X138814880Y-102747466D02*
X138795833Y-102823657D01*
X138795833Y-102823657D02*
X138776785Y-102861752D01*
X138776785Y-102861752D02*
X138757738Y-102880800D01*
X138757738Y-102880800D02*
X138719642Y-102899847D01*
X138719642Y-102899847D02*
X138681547Y-102899847D01*
X138681547Y-102899847D02*
X138643452Y-102880800D01*
X138643452Y-102880800D02*
X138624404Y-102861752D01*
X138624404Y-102861752D02*
X138605357Y-102823657D01*
X138605357Y-102823657D02*
X138586309Y-102747466D01*
X138586309Y-102747466D02*
X138586309Y-102652228D01*
X138586309Y-102652228D02*
X138605357Y-102576038D01*
X138605357Y-102576038D02*
X138624404Y-102537942D01*
X138624404Y-102537942D02*
X138643452Y-102518895D01*
X138643452Y-102518895D02*
X138681547Y-102499847D01*
X138986309Y-102633180D02*
X138986309Y-102899847D01*
X138986309Y-102671276D02*
X139005356Y-102652228D01*
X139005356Y-102652228D02*
X139043451Y-102633180D01*
X139043451Y-102633180D02*
X139100594Y-102633180D01*
X139100594Y-102633180D02*
X139138690Y-102652228D01*
X139138690Y-102652228D02*
X139157737Y-102690323D01*
X139157737Y-102690323D02*
X139157737Y-102899847D01*
X139481547Y-102690323D02*
X139348214Y-102690323D01*
X139348214Y-102899847D02*
X139348214Y-102499847D01*
X139348214Y-102499847D02*
X139538690Y-102499847D01*
X148259847Y-117916666D02*
X148259847Y-118107142D01*
X148259847Y-118107142D02*
X147859847Y-118107142D01*
X147897942Y-117802380D02*
X147878895Y-117783332D01*
X147878895Y-117783332D02*
X147859847Y-117745237D01*
X147859847Y-117745237D02*
X147859847Y-117649999D01*
X147859847Y-117649999D02*
X147878895Y-117611904D01*
X147878895Y-117611904D02*
X147897942Y-117592856D01*
X147897942Y-117592856D02*
X147936038Y-117573809D01*
X147936038Y-117573809D02*
X147974133Y-117573809D01*
X147974133Y-117573809D02*
X148031276Y-117592856D01*
X148031276Y-117592856D02*
X148259847Y-117821428D01*
X148259847Y-117821428D02*
X148259847Y-117573809D01*
X148921018Y-118640475D02*
X148901971Y-118621427D01*
X148901971Y-118621427D02*
X148882923Y-118583332D01*
X148882923Y-118583332D02*
X148882923Y-118488094D01*
X148882923Y-118488094D02*
X148901971Y-118449999D01*
X148901971Y-118449999D02*
X148921018Y-118430951D01*
X148921018Y-118430951D02*
X148959114Y-118411904D01*
X148959114Y-118411904D02*
X148997209Y-118411904D01*
X148997209Y-118411904D02*
X149054352Y-118430951D01*
X149054352Y-118430951D02*
X149282923Y-118659523D01*
X149282923Y-118659523D02*
X149282923Y-118411904D01*
X149244828Y-118240475D02*
X149263876Y-118221428D01*
X149263876Y-118221428D02*
X149282923Y-118240475D01*
X149282923Y-118240475D02*
X149263876Y-118259523D01*
X149263876Y-118259523D02*
X149244828Y-118240475D01*
X149244828Y-118240475D02*
X149282923Y-118240475D01*
X148921018Y-118069047D02*
X148901971Y-118049999D01*
X148901971Y-118049999D02*
X148882923Y-118011904D01*
X148882923Y-118011904D02*
X148882923Y-117916666D01*
X148882923Y-117916666D02*
X148901971Y-117878571D01*
X148901971Y-117878571D02*
X148921018Y-117859523D01*
X148921018Y-117859523D02*
X148959114Y-117840476D01*
X148959114Y-117840476D02*
X148997209Y-117840476D01*
X148997209Y-117840476D02*
X149054352Y-117859523D01*
X149054352Y-117859523D02*
X149282923Y-118088095D01*
X149282923Y-118088095D02*
X149282923Y-117840476D01*
X149016256Y-117497619D02*
X149282923Y-117497619D01*
X149016256Y-117669047D02*
X149225780Y-117669047D01*
X149225780Y-117669047D02*
X149263876Y-117650000D01*
X149263876Y-117650000D02*
X149282923Y-117611905D01*
X149282923Y-117611905D02*
X149282923Y-117554762D01*
X149282923Y-117554762D02*
X149263876Y-117516666D01*
X149263876Y-117516666D02*
X149244828Y-117497619D01*
X149282923Y-117307142D02*
X148882923Y-117307142D01*
X149073399Y-117307142D02*
X149073399Y-117078571D01*
X149282923Y-117078571D02*
X148882923Y-117078571D01*
X136109560Y-111840653D02*
X136090512Y-111859701D01*
X136090512Y-111859701D02*
X136033370Y-111878748D01*
X136033370Y-111878748D02*
X135995274Y-111878748D01*
X135995274Y-111878748D02*
X135938131Y-111859701D01*
X135938131Y-111859701D02*
X135900036Y-111821605D01*
X135900036Y-111821605D02*
X135880989Y-111783510D01*
X135880989Y-111783510D02*
X135861941Y-111707320D01*
X135861941Y-111707320D02*
X135861941Y-111650177D01*
X135861941Y-111650177D02*
X135880989Y-111573986D01*
X135880989Y-111573986D02*
X135900036Y-111535891D01*
X135900036Y-111535891D02*
X135938131Y-111497796D01*
X135938131Y-111497796D02*
X135995274Y-111478748D01*
X135995274Y-111478748D02*
X136033370Y-111478748D01*
X136033370Y-111478748D02*
X136090512Y-111497796D01*
X136090512Y-111497796D02*
X136109560Y-111516843D01*
X136490512Y-111878748D02*
X136261941Y-111878748D01*
X136376227Y-111878748D02*
X136376227Y-111478748D01*
X136376227Y-111478748D02*
X136338131Y-111535891D01*
X136338131Y-111535891D02*
X136300036Y-111573986D01*
X136300036Y-111573986D02*
X136261941Y-111593034D01*
X136871464Y-111878748D02*
X136642893Y-111878748D01*
X136757179Y-111878748D02*
X136757179Y-111478748D01*
X136757179Y-111478748D02*
X136719083Y-111535891D01*
X136719083Y-111535891D02*
X136680988Y-111573986D01*
X136680988Y-111573986D02*
X136642893Y-111593034D01*
X133796550Y-112326043D02*
X133796550Y-112287948D01*
X133796550Y-112287948D02*
X133815598Y-112249852D01*
X133815598Y-112249852D02*
X133834645Y-112230805D01*
X133834645Y-112230805D02*
X133872741Y-112211757D01*
X133872741Y-112211757D02*
X133948931Y-112192710D01*
X133948931Y-112192710D02*
X134044169Y-112192710D01*
X134044169Y-112192710D02*
X134120360Y-112211757D01*
X134120360Y-112211757D02*
X134158455Y-112230805D01*
X134158455Y-112230805D02*
X134177503Y-112249852D01*
X134177503Y-112249852D02*
X134196550Y-112287948D01*
X134196550Y-112287948D02*
X134196550Y-112326043D01*
X134196550Y-112326043D02*
X134177503Y-112364138D01*
X134177503Y-112364138D02*
X134158455Y-112383186D01*
X134158455Y-112383186D02*
X134120360Y-112402233D01*
X134120360Y-112402233D02*
X134044169Y-112421281D01*
X134044169Y-112421281D02*
X133948931Y-112421281D01*
X133948931Y-112421281D02*
X133872741Y-112402233D01*
X133872741Y-112402233D02*
X133834645Y-112383186D01*
X133834645Y-112383186D02*
X133815598Y-112364138D01*
X133815598Y-112364138D02*
X133796550Y-112326043D01*
X134158455Y-112021281D02*
X134177503Y-112002234D01*
X134177503Y-112002234D02*
X134196550Y-112021281D01*
X134196550Y-112021281D02*
X134177503Y-112040329D01*
X134177503Y-112040329D02*
X134158455Y-112021281D01*
X134158455Y-112021281D02*
X134196550Y-112021281D01*
X134196550Y-111621282D02*
X134196550Y-111849853D01*
X134196550Y-111735567D02*
X133796550Y-111735567D01*
X133796550Y-111735567D02*
X133853693Y-111773663D01*
X133853693Y-111773663D02*
X133891788Y-111811758D01*
X133891788Y-111811758D02*
X133910836Y-111849853D01*
X133929883Y-111278425D02*
X134196550Y-111278425D01*
X133929883Y-111449853D02*
X134139407Y-111449853D01*
X134139407Y-111449853D02*
X134177503Y-111430806D01*
X134177503Y-111430806D02*
X134196550Y-111392711D01*
X134196550Y-111392711D02*
X134196550Y-111335568D01*
X134196550Y-111335568D02*
X134177503Y-111297472D01*
X134177503Y-111297472D02*
X134158455Y-111278425D01*
X133987026Y-110954615D02*
X133987026Y-111087948D01*
X134196550Y-111087948D02*
X133796550Y-111087948D01*
X133796550Y-111087948D02*
X133796550Y-110897472D01*
X136316666Y-107283490D02*
X136292857Y-107307300D01*
X136292857Y-107307300D02*
X136221428Y-107331109D01*
X136221428Y-107331109D02*
X136173809Y-107331109D01*
X136173809Y-107331109D02*
X136102381Y-107307300D01*
X136102381Y-107307300D02*
X136054762Y-107259680D01*
X136054762Y-107259680D02*
X136030952Y-107212061D01*
X136030952Y-107212061D02*
X136007143Y-107116823D01*
X136007143Y-107116823D02*
X136007143Y-107045395D01*
X136007143Y-107045395D02*
X136030952Y-106950157D01*
X136030952Y-106950157D02*
X136054762Y-106902538D01*
X136054762Y-106902538D02*
X136102381Y-106854919D01*
X136102381Y-106854919D02*
X136173809Y-106831109D01*
X136173809Y-106831109D02*
X136221428Y-106831109D01*
X136221428Y-106831109D02*
X136292857Y-106854919D01*
X136292857Y-106854919D02*
X136316666Y-106878728D01*
X136745238Y-106831109D02*
X136650000Y-106831109D01*
X136650000Y-106831109D02*
X136602381Y-106854919D01*
X136602381Y-106854919D02*
X136578571Y-106878728D01*
X136578571Y-106878728D02*
X136530952Y-106950157D01*
X136530952Y-106950157D02*
X136507143Y-107045395D01*
X136507143Y-107045395D02*
X136507143Y-107235871D01*
X136507143Y-107235871D02*
X136530952Y-107283490D01*
X136530952Y-107283490D02*
X136554762Y-107307300D01*
X136554762Y-107307300D02*
X136602381Y-107331109D01*
X136602381Y-107331109D02*
X136697619Y-107331109D01*
X136697619Y-107331109D02*
X136745238Y-107307300D01*
X136745238Y-107307300D02*
X136769047Y-107283490D01*
X136769047Y-107283490D02*
X136792857Y-107235871D01*
X136792857Y-107235871D02*
X136792857Y-107116823D01*
X136792857Y-107116823D02*
X136769047Y-107069204D01*
X136769047Y-107069204D02*
X136745238Y-107045395D01*
X136745238Y-107045395D02*
X136697619Y-107021585D01*
X136697619Y-107021585D02*
X136602381Y-107021585D01*
X136602381Y-107021585D02*
X136554762Y-107045395D01*
X136554762Y-107045395D02*
X136530952Y-107069204D01*
X136530952Y-107069204D02*
X136507143Y-107116823D01*
X133972594Y-107715823D02*
X133972594Y-107677728D01*
X133972594Y-107677728D02*
X133991642Y-107639632D01*
X133991642Y-107639632D02*
X134010689Y-107620585D01*
X134010689Y-107620585D02*
X134048785Y-107601537D01*
X134048785Y-107601537D02*
X134124975Y-107582490D01*
X134124975Y-107582490D02*
X134220213Y-107582490D01*
X134220213Y-107582490D02*
X134296404Y-107601537D01*
X134296404Y-107601537D02*
X134334499Y-107620585D01*
X134334499Y-107620585D02*
X134353547Y-107639632D01*
X134353547Y-107639632D02*
X134372594Y-107677728D01*
X134372594Y-107677728D02*
X134372594Y-107715823D01*
X134372594Y-107715823D02*
X134353547Y-107753918D01*
X134353547Y-107753918D02*
X134334499Y-107772966D01*
X134334499Y-107772966D02*
X134296404Y-107792013D01*
X134296404Y-107792013D02*
X134220213Y-107811061D01*
X134220213Y-107811061D02*
X134124975Y-107811061D01*
X134124975Y-107811061D02*
X134048785Y-107792013D01*
X134048785Y-107792013D02*
X134010689Y-107772966D01*
X134010689Y-107772966D02*
X133991642Y-107753918D01*
X133991642Y-107753918D02*
X133972594Y-107715823D01*
X134334499Y-107411061D02*
X134353547Y-107392014D01*
X134353547Y-107392014D02*
X134372594Y-107411061D01*
X134372594Y-107411061D02*
X134353547Y-107430109D01*
X134353547Y-107430109D02*
X134334499Y-107411061D01*
X134334499Y-107411061D02*
X134372594Y-107411061D01*
X134372594Y-107011062D02*
X134372594Y-107239633D01*
X134372594Y-107125347D02*
X133972594Y-107125347D01*
X133972594Y-107125347D02*
X134029737Y-107163443D01*
X134029737Y-107163443D02*
X134067832Y-107201538D01*
X134067832Y-107201538D02*
X134086880Y-107239633D01*
X134105927Y-106668205D02*
X134372594Y-106668205D01*
X134105927Y-106839633D02*
X134315451Y-106839633D01*
X134315451Y-106839633D02*
X134353547Y-106820586D01*
X134353547Y-106820586D02*
X134372594Y-106782491D01*
X134372594Y-106782491D02*
X134372594Y-106725348D01*
X134372594Y-106725348D02*
X134353547Y-106687252D01*
X134353547Y-106687252D02*
X134334499Y-106668205D01*
X134163070Y-106344395D02*
X134163070Y-106477728D01*
X134372594Y-106477728D02*
X133972594Y-106477728D01*
X133972594Y-106477728D02*
X133972594Y-106287252D01*
D14*
X130309938Y-91597493D02*
X130309938Y-91811779D01*
X130309938Y-91811779D02*
X130295653Y-91854636D01*
X130295653Y-91854636D02*
X130267081Y-91883208D01*
X130267081Y-91883208D02*
X130224224Y-91897493D01*
X130224224Y-91897493D02*
X130195653Y-91897493D01*
X130609938Y-91897493D02*
X130438509Y-91897493D01*
X130524224Y-91897493D02*
X130524224Y-91597493D01*
X130524224Y-91597493D02*
X130495652Y-91640350D01*
X130495652Y-91640350D02*
X130467081Y-91668922D01*
X130467081Y-91668922D02*
X130438509Y-91683208D01*
%TO.C,J2*%
D15*
X1150000Y-4850000D02*
X1950000Y-4850000D01*
X1150000Y-6250000D02*
X1150000Y-4850000D01*
D10*
X4150000Y-500000D02*
X4150000Y-500000D01*
X4150000Y-600000D02*
X4150000Y-600000D01*
D15*
X17850000Y-4850000D02*
X18650000Y-4850000D01*
X18650000Y-4850000D02*
X18650000Y-6250000D01*
X18650000Y-6250000D02*
X1150000Y-6250000D01*
D10*
X4150000Y-500000D02*
G75*
G02*
X4150000Y-600000I0J-50000D01*
G01*
X4150000Y-600000D02*
G75*
G02*
X4150000Y-500000I0J50000D01*
G01*
%TO.C,R8*%
D16*
X143377500Y-101354724D02*
X143377500Y-100845276D01*
X144422500Y-101354724D02*
X144422500Y-100845276D01*
%TO.C,U1*%
X140190000Y-105790000D02*
X140615000Y-105790000D01*
X140190000Y-106215000D02*
X140190000Y-105790000D01*
X140190000Y-111010000D02*
X140190000Y-110585000D01*
X140615000Y-111010000D02*
X140190000Y-111010000D01*
X144985000Y-105790000D02*
X145410000Y-105790000D01*
X145410000Y-105790000D02*
X145410000Y-106215000D01*
X145410000Y-110585000D02*
X145410000Y-111010000D01*
X145410000Y-111010000D02*
X144985000Y-111010000D01*
X139690000Y-106600000D02*
X139360000Y-106840000D01*
X139360000Y-106360000D01*
X139690000Y-106600000D01*
G36*
X139690000Y-106600000D02*
G01*
X139360000Y-106840000D01*
X139360000Y-106360000D01*
X139690000Y-106600000D01*
G37*
%TO.C,R1*%
X136545276Y-116327500D02*
X137054724Y-116327500D01*
X136545276Y-117372500D02*
X137054724Y-117372500D01*
%TO.C,C2*%
X146596208Y-95709517D02*
X146596208Y-96232021D01*
X148066208Y-95709517D02*
X148066208Y-96232021D01*
%TO.C,L1*%
X140890000Y-100653733D02*
X140890000Y-100996267D01*
X141910000Y-100653733D02*
X141910000Y-100996267D01*
%TO.C,C10*%
X136661252Y-108665000D02*
X136138748Y-108665000D01*
X136661252Y-110135000D02*
X136138748Y-110135000D01*
%TO.C,C1*%
X136865000Y-95738748D02*
X136865000Y-96261252D01*
X138335000Y-95738748D02*
X138335000Y-96261252D01*
%TO.C,R2*%
X136545276Y-118327500D02*
X137054724Y-118327500D01*
X136545276Y-119372500D02*
X137054724Y-119372500D01*
%TO.C,Y1*%
X139640000Y-93490000D02*
X139640000Y-98110000D01*
X139640000Y-98110000D02*
X145160000Y-98110000D01*
%TO.C,U2*%
X141540000Y-116165000D02*
X144260000Y-116165000D01*
X144260000Y-118935000D02*
X141540000Y-118935000D01*
X141010000Y-116550000D02*
X140680000Y-116790000D01*
X140680000Y-116310000D01*
X141010000Y-116550000D01*
G36*
X141010000Y-116550000D02*
G01*
X140680000Y-116790000D01*
X140680000Y-116310000D01*
X141010000Y-116550000D01*
G37*
%TO.C,C4*%
X139008767Y-103240000D02*
X138716233Y-103240000D01*
X139008767Y-104260000D02*
X138716233Y-104260000D01*
%TO.C,L2*%
X147540000Y-117678733D02*
X147540000Y-118021267D01*
X148560000Y-117678733D02*
X148560000Y-118021267D01*
%TO.C,C11*%
X136627955Y-110983901D02*
X136105451Y-110983901D01*
X136627955Y-112453901D02*
X136105451Y-112453901D01*
%TO.C,C6*%
X136661252Y-106290000D02*
X136138748Y-106290000D01*
X136661252Y-107760000D02*
X136138748Y-107760000D01*
%TO.C,J1*%
X130164938Y-92187608D02*
X130909938Y-92187608D01*
X130164938Y-92922608D02*
X130164938Y-92187608D01*
X130164938Y-93657608D02*
X130164938Y-106532608D01*
X130164938Y-93657608D02*
X130224373Y-93657608D01*
X130164938Y-106532608D02*
X130499908Y-106532608D01*
X131319968Y-106532608D02*
X131654938Y-106532608D01*
X131595503Y-93657608D02*
X131654938Y-93657608D01*
X131654938Y-93657608D02*
X131654938Y-106532608D01*
%TD*%
M02*
